<mxfile host="app.diagrams.net" modified="2023-03-26T12:33:33.988Z" agent="Mozilla/5.0 (Macintosh; Intel Mac OS X 10.15; rv:102.0) Gecko/20100101 Firefox/102.0" etag="-xhcjiCN5nLm5YBt7E0T" version="21.1.1">
  <diagram name="Page-1" id="v0Wd3gLG7Ax9MEDYlhAH">
    <mxGraphModel dx="1434" dy="659" grid="1" gridSize="10" guides="1" tooltips="1" connect="1" arrows="1" fold="1" page="1" pageScale="1" pageWidth="850" pageHeight="1100" math="0" shadow="0">
      <root>
        <mxCell id="0" />
        <mxCell id="1" parent="0" />
        <mxCell id="GR6ykVju9A3iwefrX5M7-134" style="vsdxID=53;fillColor=none;gradientColor=none;strokeColor=none;spacingTop=-3;spacingBottom=-3;spacingLeft=-3;spacingRight=-3;points=[];labelBackgroundColor=none;rounded=0;html=1;whiteSpace=wrap;" vertex="1" parent="1">
          <mxGeometry x="139" y="80.00000000000023" width="84" height="84" as="geometry" />
        </mxCell>
        <mxCell id="GR6ykVju9A3iwefrX5M7-135" style="vsdxID=54;fillColor=none;gradientColor=none;strokeColor=none;spacingTop=-3;spacingBottom=-3;spacingLeft=-3;spacingRight=-3;points=[];labelBackgroundColor=none;rounded=0;html=1;whiteSpace=wrap;" vertex="1" parent="GR6ykVju9A3iwefrX5M7-134">
          <mxGeometry width="84" height="84" as="geometry" />
        </mxCell>
        <mxCell id="GR6ykVju9A3iwefrX5M7-136" style="vsdxID=55;fillColor=#FFFFFF;gradientColor=none;shape=stencil(lZPRDoIwDEW/Zq9LWUHCs+J/EAVZRCATFP/eYYdsAzW+td2922mzMtxey6zNmYBrp5pzfpfHrmS4Y0LIusyV7HTEMGW4LRqVn1TT10fK22xUjtGluY03DOSLOEajScCDCknC482rsif9oVdkCEggeIjGEfgWGASVwChMmsQchVGgqzBpEvLQfrWStUUJDuKb+QMhuHgz8ERnteDyTnDWVBzcVTiNvnFnCN/o9Cyi2CUEFy8Ab3xWB+hLfOJVxFnuI3+AnA1L6kEsG/HJB1zOxkNfBf39Hf/V62D++4WsKlod+9zfFV2iPcP0CQ==);strokeColor=none;spacingTop=-3;spacingBottom=-3;spacingLeft=-3;spacingRight=-3;points=[];labelBackgroundColor=none;rounded=0;html=1;whiteSpace=wrap;" vertex="1" parent="GR6ykVju9A3iwefrX5M7-135">
          <mxGeometry x="1" y="1" width="82" height="82" as="geometry" />
        </mxCell>
        <mxCell id="GR6ykVju9A3iwefrX5M7-137" style="vsdxID=56;fillColor=#FFFFFF;gradientColor=none;shape=stencil(lZXRdoIwDIafprc9aUMpvXb6Hp6JgzMmHsSNvf1gLbQNCHpX4h/88iehDHe34njNmYRb29Sf+U95aguGb0zK8lLkTdn2J4Z7hrtz3eQfTX2/nOzz9Tgoh9NX/T28obN5BjmqIUvCr41Ijtl/4GD17/fGJgiXoXhiXIYgKdBJJ9IcR5ELJVy6SIdzkQulPMHwz6vyEsIGCRN+JlZpgxRfgFEEN6jJV5ClhDfwCqlqEbgvR8S8VE95e5c0wdU8lTFu77cmtIprEdMGIs+v9GPYIGG5GZQ1SBCzHstZPXI2LDhzCZdnkIzB5sy+qt/aCXihxbBuWaZiyyD2C6hZdAghdmp9YSAi21wWYHTyREInb+J3EQHANro5Sh41R8U7TeQLGy2Ih56BQgXbPJWCVPPcenj9c9thDNcp/U5O3Ry5Um5EjErsXPjorLu5Nrr9wV8E57Kq7D0S/k4vjj5kLx3c/wE=);strokeColor=none;spacingTop=-3;spacingBottom=-3;spacingLeft=-3;spacingRight=-3;points=[];labelBackgroundColor=none;rounded=0;html=1;whiteSpace=wrap;" vertex="1" parent="GR6ykVju9A3iwefrX5M7-135">
          <mxGeometry width="84" height="84" as="geometry" />
        </mxCell>
        <mxCell id="GR6ykVju9A3iwefrX5M7-138" style="vsdxID=57;fillColor=none;gradientColor=none;strokeColor=none;spacingTop=-3;spacingBottom=-3;spacingLeft=-3;spacingRight=-3;points=[];labelBackgroundColor=none;rounded=0;html=1;whiteSpace=wrap;" vertex="1" parent="GR6ykVju9A3iwefrX5M7-134">
          <mxGeometry x="2" y="2" width="80" height="80" as="geometry" />
        </mxCell>
        <mxCell id="GR6ykVju9A3iwefrX5M7-139" style="vsdxID=58;fillColor=#2d5967;gradientColor=none;shape=stencil(lZXLcoMwDEW/xlvGWDzidZr8R6YhhSmFDCEt+ftCbbAkB+Lu/LgyR/IVFrC/ladrIZS89V37WfxU574U8CaUqpqy6Kp+HAk4CNhf2q746Np7czbz62lSTqOv9ns6YTBxOo3SeIpS8mFW5N/saMR11SBxEqlkXft+78zJsdmMI62tOsZyOSgyfdipsrtAd2H5drpOJgmWzra4JIXSO0qFsOcVKSkaqgNQyVO4scZ5RgCZnBPqXSRjSukYONRMueQBXAAOY6OETv+84B6kno9bIBVF1LnLm175AL774KX9XniVGTtzNVzJ38so88puneRSSr2UxihbqK20nCqsszw9hwWvuzCImkV5wmkpKlKE2QQFhPkEBdiVhEPyhoPFWesdB5uUfstxfcDlIwx01+z6EwqKFUF/rgCf/jtgHLj//aWqa/Nc4H3+PoxL5m2Bwy8=);strokeColor=none;spacingTop=-3;spacingBottom=-3;spacingLeft=-3;spacingRight=-3;points=[];labelBackgroundColor=none;rounded=0;html=1;whiteSpace=wrap;" vertex="1" parent="GR6ykVju9A3iwefrX5M7-138">
          <mxGeometry width="80" height="80" as="geometry" />
        </mxCell>
        <mxCell id="GR6ykVju9A3iwefrX5M7-140" style="vsdxID=59;fillColor=#2d5967;gradientColor=none;shape=stencil(pZJbDsIgFERXwy+hQBW/a91Hk1IhIjQUX7sXcmNsNaWx/s1wz32EDGLVoJpeIkqG4N1J3nQbFGJ7RKm2SnodokKsRqzqnJdH7y62Bd83iUzq7K5pwh36SOqg5AGuIOAPgBptR+iruArOoCvB7PosOv0BjkUxpTdYlPOjdxyXf/GCY7qd57/u+ZVfuGeZj+Idl04bA2kb1z/jFZ8gmqx+Ag==);strokeColor=none;spacingTop=-3;spacingBottom=-3;spacingLeft=-3;spacingRight=-3;points=[];labelBackgroundColor=none;rounded=0;html=1;whiteSpace=wrap;" vertex="1" parent="GR6ykVju9A3iwefrX5M7-138">
          <mxGeometry x="11" y="51" width="58" height="17" as="geometry" />
        </mxCell>
        <mxCell id="GR6ykVju9A3iwefrX5M7-141" style="vsdxID=60;fillColor=#2d5967;gradientColor=none;shape=stencil(jVLRDoMgDPwaXg2UOeezc/9hJk4ypwZ107+fpCRClxnf2nLH9eCYzIa66BUDPoyme6qPLseaySsD0G2tjB7XismcyazqjHqYbmpL7PvCIm316t72hhl5MbcU4Au2gmN/Q+x9MggWeJwk0Vk4gggZfAYyWGAjgcNIinGDUxql6Z7yxnADgEheQmV/OzfioW5MZHfNWoUkFCVWiVF/JRkijtokJv2ng9+t6Iv/s0l+tdHt4QSsxRadSjcNJs8/p1FbRxhTmX8B);strokeColor=none;spacingTop=-3;spacingBottom=-3;spacingLeft=-3;spacingRight=-3;points=[];labelBackgroundColor=none;rounded=0;html=1;whiteSpace=wrap;" vertex="1" parent="GR6ykVju9A3iwefrX5M7-138">
          <mxGeometry x="57" y="58" width="4" height="4" as="geometry" />
        </mxCell>
        <mxCell id="GR6ykVju9A3iwefrX5M7-142" style="vsdxID=61;fillColor=#2d5967;gradientColor=none;shape=stencil(pZLbDsIgEES/Zl8JZW3E51r/o0mpEBEa2nr5e0Fi2qrpRd92Z8+QCRnArJFFLYDRpnX2JK6qbCXgHhhTRgqnWj8B5oBZZZ04OtuZMu51Ecgwne0lvHCLvh0nnAcXo/eo0Od2iLBWZgDT38CETqCv4yJ4VdoZePwPHEmyGcFBSSdyp2SL/xl65avhM9Jqw0ykBQY/9NWplNaxecP7e9W8FGuK+QM=);strokeColor=none;spacingTop=-3;spacingBottom=-3;spacingLeft=-3;spacingRight=-3;points=[];labelBackgroundColor=none;rounded=0;html=1;whiteSpace=wrap;" vertex="1" parent="GR6ykVju9A3iwefrX5M7-138">
          <mxGeometry x="11" y="11" width="17" height="17" as="geometry" />
        </mxCell>
        <mxCell id="GR6ykVju9A3iwefrX5M7-143" style="vsdxID=62;fillColor=#2d5967;gradientColor=none;shape=stencil(pZJJDoMwDEVP422UxGXYU3oPJEKJmhIUoMPtm8iqCnSE7vzj920r+oBZVxetAsm73tmDOuuyrwG3IKVuauV07yvAHDCrrFN7Z4emJN0WgQzV0Z7ChAv5BOfBI/mVNKkdoUY3I3QleN/wEp2vXwSvRac/kG6YTCZwikxEH2bHLI3/M4iIJfje8HzSYsOXk34w+OIRmkobQ5kb9+ch808UUMxv);strokeColor=none;spacingTop=-3;spacingBottom=-3;spacingLeft=-3;spacingRight=-3;points=[];labelBackgroundColor=none;rounded=0;html=1;whiteSpace=wrap;" vertex="1" parent="GR6ykVju9A3iwefrX5M7-138">
          <mxGeometry x="31" y="11" width="17" height="17" as="geometry" />
        </mxCell>
        <mxCell id="GR6ykVju9A3iwefrX5M7-144" style="vsdxID=63;fillColor=#2d5967;gradientColor=none;shape=stencil(pZLbDsIgEES/Zl8JZW3E51r/o0mpEBEa2nr5e0Fi2qrpRd92Z8+QCRnArJFFLYDRpnX2JK6qbCXgHhhTRgqnWj8B5oBZZZ04OtuZMu51Ecgwne0lvHCLvh0nnAcXo/eo0Od2iLBWZgDT38CETqCv4yJ4VdoZePwPHEmyGcFBSSdyp2SL/xl65avhM9Jqw0ykBQY/9NWplNaxecP7e9W8FGuK+QM=);strokeColor=none;spacingTop=-3;spacingBottom=-3;spacingLeft=-3;spacingRight=-3;points=[];labelBackgroundColor=none;rounded=0;html=1;whiteSpace=wrap;" vertex="1" parent="GR6ykVju9A3iwefrX5M7-138">
          <mxGeometry x="11" y="31" width="17" height="17" as="geometry" />
        </mxCell>
        <mxCell id="GR6ykVju9A3iwefrX5M7-145" style="vsdxID=64;fillColor=#2d5967;gradientColor=none;shape=stencil(pZJJDoMwDEVP422UxGXYU3oPJEKJmhIUoMPtm8iqCnSE7vzj920r+oBZVxetAsm73tmDOuuyrwG3IKVuauV07yvAHDCrrFN7Z4emJN0WgQzV0Z7ChAv5BOfBI/mVNKkdoUY3I3QleN/wEp2vXwSvRac/kG6YTCZwikxEH2bHLI3/M4iIJfje8HzSYsOXk34w+OIRmkobQ5kb9+ch808UUMxv);strokeColor=none;spacingTop=-3;spacingBottom=-3;spacingLeft=-3;spacingRight=-3;points=[];labelBackgroundColor=none;rounded=0;html=1;whiteSpace=wrap;" vertex="1" parent="GR6ykVju9A3iwefrX5M7-138">
          <mxGeometry x="31" y="31" width="17" height="17" as="geometry" />
        </mxCell>
        <mxCell id="GR6ykVju9A3iwefrX5M7-146" style="vsdxID=65;fillColor=#2d5967;gradientColor=none;shape=stencil(pZJJDoMwDEVP422UxGXYU3oPJEKJmhIUoMPtm8iqCnSE7vzj920r+oBZVxetAsm73tmDOuuyrwG3IKVuauV07yvAHDCrrFN7Z4emJN0WgQzV0Z7ChAv5BOfBI/mVNKkdoUY3I3QleN/wEp2vXwSvRac/kG6YTCZwikxEH2bHLI3/M4iIJfje8HzSYsOXk34w+OIRmkobQ5kb9+ch808UUMxv);strokeColor=none;spacingTop=-3;spacingBottom=-3;spacingLeft=-3;spacingRight=-3;points=[];labelBackgroundColor=none;rounded=0;html=1;whiteSpace=wrap;" vertex="1" parent="GR6ykVju9A3iwefrX5M7-138">
          <mxGeometry x="51" y="11" width="17" height="17" as="geometry" />
        </mxCell>
        <mxCell id="GR6ykVju9A3iwefrX5M7-147" style="vsdxID=66;fillColor=#2d5967;gradientColor=none;shape=stencil(pZJJDoMwDEVP422UxGXYU3oPJEKJmhIUoMPtm8iqCnSE7vzj920r+oBZVxetAsm73tmDOuuyrwG3IKVuauV07yvAHDCrrFN7Z4emJN0WgQzV0Z7ChAv5BOfBI/mVNKkdoUY3I3QleN/wEp2vXwSvRac/kG6YTCZwikxEH2bHLI3/M4iIJfje8HzSYsOXk34w+OIRmkobQ5kb9+ch808UUMxv);strokeColor=none;spacingTop=-3;spacingBottom=-3;spacingLeft=-3;spacingRight=-3;points=[];labelBackgroundColor=none;rounded=0;html=1;whiteSpace=wrap;" vertex="1" parent="GR6ykVju9A3iwefrX5M7-138">
          <mxGeometry x="51" y="31" width="17" height="17" as="geometry" />
        </mxCell>
        <mxCell id="GR6ykVju9A3iwefrX5M7-82" style="vsdxID=53;fillColor=none;gradientColor=none;strokeColor=none;spacingTop=-3;spacingBottom=-3;spacingLeft=-3;spacingRight=-3;points=[];labelBackgroundColor=none;rounded=0;html=1;whiteSpace=wrap;" vertex="1" parent="1">
          <mxGeometry x="130" y="90.00000000000023" width="84" height="84" as="geometry" />
        </mxCell>
        <mxCell id="GR6ykVju9A3iwefrX5M7-83" style="vsdxID=54;fillColor=none;gradientColor=none;strokeColor=none;spacingTop=-3;spacingBottom=-3;spacingLeft=-3;spacingRight=-3;points=[];labelBackgroundColor=none;rounded=0;html=1;whiteSpace=wrap;" vertex="1" parent="GR6ykVju9A3iwefrX5M7-82">
          <mxGeometry width="84" height="84" as="geometry" />
        </mxCell>
        <mxCell id="GR6ykVju9A3iwefrX5M7-84" style="vsdxID=55;fillColor=#FFFFFF;gradientColor=none;shape=stencil(lZPRDoIwDEW/Zq9LWUHCs+J/EAVZRCATFP/eYYdsAzW+td2922mzMtxey6zNmYBrp5pzfpfHrmS4Y0LIusyV7HTEMGW4LRqVn1TT10fK22xUjtGluY03DOSLOEajScCDCknC482rsif9oVdkCEggeIjGEfgWGASVwChMmsQchVGgqzBpEvLQfrWStUUJDuKb+QMhuHgz8ERnteDyTnDWVBzcVTiNvnFnCN/o9Cyi2CUEFy8Ab3xWB+hLfOJVxFnuI3+AnA1L6kEsG/HJB1zOxkNfBf39Hf/V62D++4WsKlod+9zfFV2iPcP0CQ==);strokeColor=none;spacingTop=-3;spacingBottom=-3;spacingLeft=-3;spacingRight=-3;points=[];labelBackgroundColor=none;rounded=0;html=1;whiteSpace=wrap;" vertex="1" parent="GR6ykVju9A3iwefrX5M7-83">
          <mxGeometry x="1" y="1" width="82" height="82" as="geometry" />
        </mxCell>
        <mxCell id="GR6ykVju9A3iwefrX5M7-85" style="vsdxID=56;fillColor=#FFFFFF;gradientColor=none;shape=stencil(lZXRdoIwDIafprc9aUMpvXb6Hp6JgzMmHsSNvf1gLbQNCHpX4h/88iehDHe34njNmYRb29Sf+U95aguGb0zK8lLkTdn2J4Z7hrtz3eQfTX2/nOzz9Tgoh9NX/T28obN5BjmqIUvCr41Ijtl/4GD17/fGJgiXoXhiXIYgKdBJJ9IcR5ELJVy6SIdzkQulPMHwz6vyEsIGCRN+JlZpgxRfgFEEN6jJV5ClhDfwCqlqEbgvR8S8VE95e5c0wdU8lTFu77cmtIprEdMGIs+v9GPYIGG5GZQ1SBCzHstZPXI2LDhzCZdnkIzB5sy+qt/aCXihxbBuWaZiyyD2C6hZdAghdmp9YSAi21wWYHTyREInb+J3EQHANro5Sh41R8U7TeQLGy2Ih56BQgXbPJWCVPPcenj9c9thDNcp/U5O3Ry5Um5EjErsXPjorLu5Nrr9wV8E57Kq7D0S/k4vjj5kLx3c/wE=);strokeColor=none;spacingTop=-3;spacingBottom=-3;spacingLeft=-3;spacingRight=-3;points=[];labelBackgroundColor=none;rounded=0;html=1;whiteSpace=wrap;" vertex="1" parent="GR6ykVju9A3iwefrX5M7-83">
          <mxGeometry width="84" height="84" as="geometry" />
        </mxCell>
        <mxCell id="GR6ykVju9A3iwefrX5M7-86" style="vsdxID=57;fillColor=none;gradientColor=none;strokeColor=none;spacingTop=-3;spacingBottom=-3;spacingLeft=-3;spacingRight=-3;points=[];labelBackgroundColor=none;rounded=0;html=1;whiteSpace=wrap;" vertex="1" parent="GR6ykVju9A3iwefrX5M7-82">
          <mxGeometry x="2" y="2" width="80" height="80" as="geometry" />
        </mxCell>
        <mxCell id="GR6ykVju9A3iwefrX5M7-87" style="vsdxID=58;fillColor=#2d5967;gradientColor=none;shape=stencil(lZXLcoMwDEW/xlvGWDzidZr8R6YhhSmFDCEt+ftCbbAkB+Lu/LgyR/IVFrC/ladrIZS89V37WfxU574U8CaUqpqy6Kp+HAk4CNhf2q746Np7czbz62lSTqOv9ns6YTBxOo3SeIpS8mFW5N/saMR11SBxEqlkXft+78zJsdmMI62tOsZyOSgyfdipsrtAd2H5drpOJgmWzra4JIXSO0qFsOcVKSkaqgNQyVO4scZ5RgCZnBPqXSRjSukYONRMueQBXAAOY6OETv+84B6kno9bIBVF1LnLm175AL774KX9XniVGTtzNVzJ38so88puneRSSr2UxihbqK20nCqsszw9hwWvuzCImkV5wmkpKlKE2QQFhPkEBdiVhEPyhoPFWesdB5uUfstxfcDlIwx01+z6EwqKFUF/rgCf/jtgHLj//aWqa/Nc4H3+PoxL5m2Bwy8=);strokeColor=none;spacingTop=-3;spacingBottom=-3;spacingLeft=-3;spacingRight=-3;points=[];labelBackgroundColor=none;rounded=0;html=1;whiteSpace=wrap;" vertex="1" parent="GR6ykVju9A3iwefrX5M7-86">
          <mxGeometry width="80" height="80" as="geometry" />
        </mxCell>
        <mxCell id="GR6ykVju9A3iwefrX5M7-88" style="vsdxID=59;fillColor=#2d5967;gradientColor=none;shape=stencil(pZJbDsIgFERXwy+hQBW/a91Hk1IhIjQUX7sXcmNsNaWx/s1wz32EDGLVoJpeIkqG4N1J3nQbFGJ7RKm2SnodokKsRqzqnJdH7y62Bd83iUzq7K5pwh36SOqg5AGuIOAPgBptR+iruArOoCvB7PosOv0BjkUxpTdYlPOjdxyXf/GCY7qd57/u+ZVfuGeZj+Idl04bA2kb1z/jFZ8gmqx+Ag==);strokeColor=none;spacingTop=-3;spacingBottom=-3;spacingLeft=-3;spacingRight=-3;points=[];labelBackgroundColor=none;rounded=0;html=1;whiteSpace=wrap;" vertex="1" parent="GR6ykVju9A3iwefrX5M7-86">
          <mxGeometry x="11" y="51" width="58" height="17" as="geometry" />
        </mxCell>
        <mxCell id="GR6ykVju9A3iwefrX5M7-89" style="vsdxID=60;fillColor=#2d5967;gradientColor=none;shape=stencil(jVLRDoMgDPwaXg2UOeezc/9hJk4ypwZ107+fpCRClxnf2nLH9eCYzIa66BUDPoyme6qPLseaySsD0G2tjB7XismcyazqjHqYbmpL7PvCIm316t72hhl5MbcU4Au2gmN/Q+x9MggWeJwk0Vk4gggZfAYyWGAjgcNIinGDUxql6Z7yxnADgEheQmV/OzfioW5MZHfNWoUkFCVWiVF/JRkijtokJv2ng9+t6Iv/s0l+tdHt4QSsxRadSjcNJs8/p1FbRxhTmX8B);strokeColor=none;spacingTop=-3;spacingBottom=-3;spacingLeft=-3;spacingRight=-3;points=[];labelBackgroundColor=none;rounded=0;html=1;whiteSpace=wrap;" vertex="1" parent="GR6ykVju9A3iwefrX5M7-86">
          <mxGeometry x="57" y="58" width="4" height="4" as="geometry" />
        </mxCell>
        <mxCell id="GR6ykVju9A3iwefrX5M7-90" style="vsdxID=61;fillColor=#2d5967;gradientColor=none;shape=stencil(pZLbDsIgEES/Zl8JZW3E51r/o0mpEBEa2nr5e0Fi2qrpRd92Z8+QCRnArJFFLYDRpnX2JK6qbCXgHhhTRgqnWj8B5oBZZZ04OtuZMu51Ecgwne0lvHCLvh0nnAcXo/eo0Od2iLBWZgDT38CETqCv4yJ4VdoZePwPHEmyGcFBSSdyp2SL/xl65avhM9Jqw0ykBQY/9NWplNaxecP7e9W8FGuK+QM=);strokeColor=none;spacingTop=-3;spacingBottom=-3;spacingLeft=-3;spacingRight=-3;points=[];labelBackgroundColor=none;rounded=0;html=1;whiteSpace=wrap;" vertex="1" parent="GR6ykVju9A3iwefrX5M7-86">
          <mxGeometry x="11" y="11" width="17" height="17" as="geometry" />
        </mxCell>
        <mxCell id="GR6ykVju9A3iwefrX5M7-91" style="vsdxID=62;fillColor=#2d5967;gradientColor=none;shape=stencil(pZJJDoMwDEVP422UxGXYU3oPJEKJmhIUoMPtm8iqCnSE7vzj920r+oBZVxetAsm73tmDOuuyrwG3IKVuauV07yvAHDCrrFN7Z4emJN0WgQzV0Z7ChAv5BOfBI/mVNKkdoUY3I3QleN/wEp2vXwSvRac/kG6YTCZwikxEH2bHLI3/M4iIJfje8HzSYsOXk34w+OIRmkobQ5kb9+ch808UUMxv);strokeColor=none;spacingTop=-3;spacingBottom=-3;spacingLeft=-3;spacingRight=-3;points=[];labelBackgroundColor=none;rounded=0;html=1;whiteSpace=wrap;" vertex="1" parent="GR6ykVju9A3iwefrX5M7-86">
          <mxGeometry x="31" y="11" width="17" height="17" as="geometry" />
        </mxCell>
        <mxCell id="GR6ykVju9A3iwefrX5M7-92" style="vsdxID=63;fillColor=#2d5967;gradientColor=none;shape=stencil(pZLbDsIgEES/Zl8JZW3E51r/o0mpEBEa2nr5e0Fi2qrpRd92Z8+QCRnArJFFLYDRpnX2JK6qbCXgHhhTRgqnWj8B5oBZZZ04OtuZMu51Ecgwne0lvHCLvh0nnAcXo/eo0Od2iLBWZgDT38CETqCv4yJ4VdoZePwPHEmyGcFBSSdyp2SL/xl65avhM9Jqw0ykBQY/9NWplNaxecP7e9W8FGuK+QM=);strokeColor=none;spacingTop=-3;spacingBottom=-3;spacingLeft=-3;spacingRight=-3;points=[];labelBackgroundColor=none;rounded=0;html=1;whiteSpace=wrap;" vertex="1" parent="GR6ykVju9A3iwefrX5M7-86">
          <mxGeometry x="11" y="31" width="17" height="17" as="geometry" />
        </mxCell>
        <mxCell id="GR6ykVju9A3iwefrX5M7-93" style="vsdxID=64;fillColor=#2d5967;gradientColor=none;shape=stencil(pZJJDoMwDEVP422UxGXYU3oPJEKJmhIUoMPtm8iqCnSE7vzj920r+oBZVxetAsm73tmDOuuyrwG3IKVuauV07yvAHDCrrFN7Z4emJN0WgQzV0Z7ChAv5BOfBI/mVNKkdoUY3I3QleN/wEp2vXwSvRac/kG6YTCZwikxEH2bHLI3/M4iIJfje8HzSYsOXk34w+OIRmkobQ5kb9+ch808UUMxv);strokeColor=none;spacingTop=-3;spacingBottom=-3;spacingLeft=-3;spacingRight=-3;points=[];labelBackgroundColor=none;rounded=0;html=1;whiteSpace=wrap;" vertex="1" parent="GR6ykVju9A3iwefrX5M7-86">
          <mxGeometry x="31" y="31" width="17" height="17" as="geometry" />
        </mxCell>
        <mxCell id="GR6ykVju9A3iwefrX5M7-94" style="vsdxID=65;fillColor=#2d5967;gradientColor=none;shape=stencil(pZJJDoMwDEVP422UxGXYU3oPJEKJmhIUoMPtm8iqCnSE7vzj920r+oBZVxetAsm73tmDOuuyrwG3IKVuauV07yvAHDCrrFN7Z4emJN0WgQzV0Z7ChAv5BOfBI/mVNKkdoUY3I3QleN/wEp2vXwSvRac/kG6YTCZwikxEH2bHLI3/M4iIJfje8HzSYsOXk34w+OIRmkobQ5kb9+ch808UUMxv);strokeColor=none;spacingTop=-3;spacingBottom=-3;spacingLeft=-3;spacingRight=-3;points=[];labelBackgroundColor=none;rounded=0;html=1;whiteSpace=wrap;" vertex="1" parent="GR6ykVju9A3iwefrX5M7-86">
          <mxGeometry x="51" y="11" width="17" height="17" as="geometry" />
        </mxCell>
        <mxCell id="GR6ykVju9A3iwefrX5M7-95" style="vsdxID=66;fillColor=#2d5967;gradientColor=none;shape=stencil(pZJJDoMwDEVP422UxGXYU3oPJEKJmhIUoMPtm8iqCnSE7vzj920r+oBZVxetAsm73tmDOuuyrwG3IKVuauV07yvAHDCrrFN7Z4emJN0WgQzV0Z7ChAv5BOfBI/mVNKkdoUY3I3QleN/wEp2vXwSvRac/kG6YTCZwikxEH2bHLI3/M4iIJfje8HzSYsOXk34w+OIRmkobQ5kb9+ch808UUMxv);strokeColor=none;spacingTop=-3;spacingBottom=-3;spacingLeft=-3;spacingRight=-3;points=[];labelBackgroundColor=none;rounded=0;html=1;whiteSpace=wrap;" vertex="1" parent="GR6ykVju9A3iwefrX5M7-86">
          <mxGeometry x="51" y="31" width="17" height="17" as="geometry" />
        </mxCell>
        <mxCell id="GR6ykVju9A3iwefrX5M7-68" style="vsdxID=53;fillColor=none;gradientColor=none;strokeColor=none;spacingTop=-3;spacingBottom=-3;spacingLeft=-3;spacingRight=-3;points=[];labelBackgroundColor=none;rounded=0;html=1;whiteSpace=wrap;" vertex="1" parent="1">
          <mxGeometry x="120" y="100.00000000000023" width="84" height="84" as="geometry" />
        </mxCell>
        <mxCell id="GR6ykVju9A3iwefrX5M7-69" style="vsdxID=54;fillColor=none;gradientColor=none;strokeColor=none;spacingTop=-3;spacingBottom=-3;spacingLeft=-3;spacingRight=-3;points=[];labelBackgroundColor=none;rounded=0;html=1;whiteSpace=wrap;" vertex="1" parent="GR6ykVju9A3iwefrX5M7-68">
          <mxGeometry width="84" height="84" as="geometry" />
        </mxCell>
        <mxCell id="GR6ykVju9A3iwefrX5M7-70" style="vsdxID=55;fillColor=#FFFFFF;gradientColor=none;shape=stencil(lZPRDoIwDEW/Zq9LWUHCs+J/EAVZRCATFP/eYYdsAzW+td2922mzMtxey6zNmYBrp5pzfpfHrmS4Y0LIusyV7HTEMGW4LRqVn1TT10fK22xUjtGluY03DOSLOEajScCDCknC482rsif9oVdkCEggeIjGEfgWGASVwChMmsQchVGgqzBpEvLQfrWStUUJDuKb+QMhuHgz8ERnteDyTnDWVBzcVTiNvnFnCN/o9Cyi2CUEFy8Ab3xWB+hLfOJVxFnuI3+AnA1L6kEsG/HJB1zOxkNfBf39Hf/V62D++4WsKlod+9zfFV2iPcP0CQ==);strokeColor=none;spacingTop=-3;spacingBottom=-3;spacingLeft=-3;spacingRight=-3;points=[];labelBackgroundColor=none;rounded=0;html=1;whiteSpace=wrap;" vertex="1" parent="GR6ykVju9A3iwefrX5M7-69">
          <mxGeometry x="1" y="1" width="82" height="82" as="geometry" />
        </mxCell>
        <mxCell id="GR6ykVju9A3iwefrX5M7-71" style="vsdxID=56;fillColor=#FFFFFF;gradientColor=none;shape=stencil(lZXRdoIwDIafprc9aUMpvXb6Hp6JgzMmHsSNvf1gLbQNCHpX4h/88iehDHe34njNmYRb29Sf+U95aguGb0zK8lLkTdn2J4Z7hrtz3eQfTX2/nOzz9Tgoh9NX/T28obN5BjmqIUvCr41Ijtl/4GD17/fGJgiXoXhiXIYgKdBJJ9IcR5ELJVy6SIdzkQulPMHwz6vyEsIGCRN+JlZpgxRfgFEEN6jJV5ClhDfwCqlqEbgvR8S8VE95e5c0wdU8lTFu77cmtIprEdMGIs+v9GPYIGG5GZQ1SBCzHstZPXI2LDhzCZdnkIzB5sy+qt/aCXihxbBuWaZiyyD2C6hZdAghdmp9YSAi21wWYHTyREInb+J3EQHANro5Sh41R8U7TeQLGy2Ih56BQgXbPJWCVPPcenj9c9thDNcp/U5O3Ry5Um5EjErsXPjorLu5Nrr9wV8E57Kq7D0S/k4vjj5kLx3c/wE=);strokeColor=none;spacingTop=-3;spacingBottom=-3;spacingLeft=-3;spacingRight=-3;points=[];labelBackgroundColor=none;rounded=0;html=1;whiteSpace=wrap;" vertex="1" parent="GR6ykVju9A3iwefrX5M7-69">
          <mxGeometry width="84" height="84" as="geometry" />
        </mxCell>
        <mxCell id="GR6ykVju9A3iwefrX5M7-72" style="vsdxID=57;fillColor=none;gradientColor=none;strokeColor=none;spacingTop=-3;spacingBottom=-3;spacingLeft=-3;spacingRight=-3;points=[];labelBackgroundColor=none;rounded=0;html=1;whiteSpace=wrap;" vertex="1" parent="GR6ykVju9A3iwefrX5M7-68">
          <mxGeometry x="2" y="2" width="80" height="80" as="geometry" />
        </mxCell>
        <mxCell id="GR6ykVju9A3iwefrX5M7-73" style="vsdxID=58;fillColor=#2d5967;gradientColor=none;shape=stencil(lZXLcoMwDEW/xlvGWDzidZr8R6YhhSmFDCEt+ftCbbAkB+Lu/LgyR/IVFrC/ladrIZS89V37WfxU574U8CaUqpqy6Kp+HAk4CNhf2q746Np7czbz62lSTqOv9ns6YTBxOo3SeIpS8mFW5N/saMR11SBxEqlkXft+78zJsdmMI62tOsZyOSgyfdipsrtAd2H5drpOJgmWzra4JIXSO0qFsOcVKSkaqgNQyVO4scZ5RgCZnBPqXSRjSukYONRMueQBXAAOY6OETv+84B6kno9bIBVF1LnLm175AL774KX9XniVGTtzNVzJ38so88puneRSSr2UxihbqK20nCqsszw9hwWvuzCImkV5wmkpKlKE2QQFhPkEBdiVhEPyhoPFWesdB5uUfstxfcDlIwx01+z6EwqKFUF/rgCf/jtgHLj//aWqa/Nc4H3+PoxL5m2Bwy8=);strokeColor=none;spacingTop=-3;spacingBottom=-3;spacingLeft=-3;spacingRight=-3;points=[];labelBackgroundColor=none;rounded=0;html=1;whiteSpace=wrap;" vertex="1" parent="GR6ykVju9A3iwefrX5M7-72">
          <mxGeometry width="80" height="80" as="geometry" />
        </mxCell>
        <mxCell id="GR6ykVju9A3iwefrX5M7-74" style="vsdxID=59;fillColor=#2d5967;gradientColor=none;shape=stencil(pZJbDsIgFERXwy+hQBW/a91Hk1IhIjQUX7sXcmNsNaWx/s1wz32EDGLVoJpeIkqG4N1J3nQbFGJ7RKm2SnodokKsRqzqnJdH7y62Bd83iUzq7K5pwh36SOqg5AGuIOAPgBptR+iruArOoCvB7PosOv0BjkUxpTdYlPOjdxyXf/GCY7qd57/u+ZVfuGeZj+Idl04bA2kb1z/jFZ8gmqx+Ag==);strokeColor=none;spacingTop=-3;spacingBottom=-3;spacingLeft=-3;spacingRight=-3;points=[];labelBackgroundColor=none;rounded=0;html=1;whiteSpace=wrap;" vertex="1" parent="GR6ykVju9A3iwefrX5M7-72">
          <mxGeometry x="11" y="51" width="58" height="17" as="geometry" />
        </mxCell>
        <mxCell id="GR6ykVju9A3iwefrX5M7-75" style="vsdxID=60;fillColor=#2d5967;gradientColor=none;shape=stencil(jVLRDoMgDPwaXg2UOeezc/9hJk4ypwZ107+fpCRClxnf2nLH9eCYzIa66BUDPoyme6qPLseaySsD0G2tjB7XismcyazqjHqYbmpL7PvCIm316t72hhl5MbcU4Au2gmN/Q+x9MggWeJwk0Vk4gggZfAYyWGAjgcNIinGDUxql6Z7yxnADgEheQmV/OzfioW5MZHfNWoUkFCVWiVF/JRkijtokJv2ng9+t6Iv/s0l+tdHt4QSsxRadSjcNJs8/p1FbRxhTmX8B);strokeColor=none;spacingTop=-3;spacingBottom=-3;spacingLeft=-3;spacingRight=-3;points=[];labelBackgroundColor=none;rounded=0;html=1;whiteSpace=wrap;" vertex="1" parent="GR6ykVju9A3iwefrX5M7-72">
          <mxGeometry x="57" y="58" width="4" height="4" as="geometry" />
        </mxCell>
        <mxCell id="GR6ykVju9A3iwefrX5M7-76" style="vsdxID=61;fillColor=#2d5967;gradientColor=none;shape=stencil(pZLbDsIgEES/Zl8JZW3E51r/o0mpEBEa2nr5e0Fi2qrpRd92Z8+QCRnArJFFLYDRpnX2JK6qbCXgHhhTRgqnWj8B5oBZZZ04OtuZMu51Ecgwne0lvHCLvh0nnAcXo/eo0Od2iLBWZgDT38CETqCv4yJ4VdoZePwPHEmyGcFBSSdyp2SL/xl65avhM9Jqw0ykBQY/9NWplNaxecP7e9W8FGuK+QM=);strokeColor=none;spacingTop=-3;spacingBottom=-3;spacingLeft=-3;spacingRight=-3;points=[];labelBackgroundColor=none;rounded=0;html=1;whiteSpace=wrap;" vertex="1" parent="GR6ykVju9A3iwefrX5M7-72">
          <mxGeometry x="11" y="11" width="17" height="17" as="geometry" />
        </mxCell>
        <mxCell id="GR6ykVju9A3iwefrX5M7-77" style="vsdxID=62;fillColor=#2d5967;gradientColor=none;shape=stencil(pZJJDoMwDEVP422UxGXYU3oPJEKJmhIUoMPtm8iqCnSE7vzj920r+oBZVxetAsm73tmDOuuyrwG3IKVuauV07yvAHDCrrFN7Z4emJN0WgQzV0Z7ChAv5BOfBI/mVNKkdoUY3I3QleN/wEp2vXwSvRac/kG6YTCZwikxEH2bHLI3/M4iIJfje8HzSYsOXk34w+OIRmkobQ5kb9+ch808UUMxv);strokeColor=none;spacingTop=-3;spacingBottom=-3;spacingLeft=-3;spacingRight=-3;points=[];labelBackgroundColor=none;rounded=0;html=1;whiteSpace=wrap;" vertex="1" parent="GR6ykVju9A3iwefrX5M7-72">
          <mxGeometry x="31" y="11" width="17" height="17" as="geometry" />
        </mxCell>
        <mxCell id="GR6ykVju9A3iwefrX5M7-78" style="vsdxID=63;fillColor=#2d5967;gradientColor=none;shape=stencil(pZLbDsIgEES/Zl8JZW3E51r/o0mpEBEa2nr5e0Fi2qrpRd92Z8+QCRnArJFFLYDRpnX2JK6qbCXgHhhTRgqnWj8B5oBZZZ04OtuZMu51Ecgwne0lvHCLvh0nnAcXo/eo0Od2iLBWZgDT38CETqCv4yJ4VdoZePwPHEmyGcFBSSdyp2SL/xl65avhM9Jqw0ykBQY/9NWplNaxecP7e9W8FGuK+QM=);strokeColor=none;spacingTop=-3;spacingBottom=-3;spacingLeft=-3;spacingRight=-3;points=[];labelBackgroundColor=none;rounded=0;html=1;whiteSpace=wrap;" vertex="1" parent="GR6ykVju9A3iwefrX5M7-72">
          <mxGeometry x="11" y="31" width="17" height="17" as="geometry" />
        </mxCell>
        <mxCell id="GR6ykVju9A3iwefrX5M7-79" style="vsdxID=64;fillColor=#2d5967;gradientColor=none;shape=stencil(pZJJDoMwDEVP422UxGXYU3oPJEKJmhIUoMPtm8iqCnSE7vzj920r+oBZVxetAsm73tmDOuuyrwG3IKVuauV07yvAHDCrrFN7Z4emJN0WgQzV0Z7ChAv5BOfBI/mVNKkdoUY3I3QleN/wEp2vXwSvRac/kG6YTCZwikxEH2bHLI3/M4iIJfje8HzSYsOXk34w+OIRmkobQ5kb9+ch808UUMxv);strokeColor=none;spacingTop=-3;spacingBottom=-3;spacingLeft=-3;spacingRight=-3;points=[];labelBackgroundColor=none;rounded=0;html=1;whiteSpace=wrap;" vertex="1" parent="GR6ykVju9A3iwefrX5M7-72">
          <mxGeometry x="31" y="31" width="17" height="17" as="geometry" />
        </mxCell>
        <mxCell id="GR6ykVju9A3iwefrX5M7-80" style="vsdxID=65;fillColor=#2d5967;gradientColor=none;shape=stencil(pZJJDoMwDEVP422UxGXYU3oPJEKJmhIUoMPtm8iqCnSE7vzj920r+oBZVxetAsm73tmDOuuyrwG3IKVuauV07yvAHDCrrFN7Z4emJN0WgQzV0Z7ChAv5BOfBI/mVNKkdoUY3I3QleN/wEp2vXwSvRac/kG6YTCZwikxEH2bHLI3/M4iIJfje8HzSYsOXk34w+OIRmkobQ5kb9+ch808UUMxv);strokeColor=none;spacingTop=-3;spacingBottom=-3;spacingLeft=-3;spacingRight=-3;points=[];labelBackgroundColor=none;rounded=0;html=1;whiteSpace=wrap;" vertex="1" parent="GR6ykVju9A3iwefrX5M7-72">
          <mxGeometry x="51" y="11" width="17" height="17" as="geometry" />
        </mxCell>
        <mxCell id="GR6ykVju9A3iwefrX5M7-81" style="vsdxID=66;fillColor=#2d5967;gradientColor=none;shape=stencil(pZJJDoMwDEVP422UxGXYU3oPJEKJmhIUoMPtm8iqCnSE7vzj920r+oBZVxetAsm73tmDOuuyrwG3IKVuauV07yvAHDCrrFN7Z4emJN0WgQzV0Z7ChAv5BOfBI/mVNKkdoUY3I3QleN/wEp2vXwSvRac/kG6YTCZwikxEH2bHLI3/M4iIJfje8HzSYsOXk34w+OIRmkobQ5kb9+ch808UUMxv);strokeColor=none;spacingTop=-3;spacingBottom=-3;spacingLeft=-3;spacingRight=-3;points=[];labelBackgroundColor=none;rounded=0;html=1;whiteSpace=wrap;" vertex="1" parent="GR6ykVju9A3iwefrX5M7-72">
          <mxGeometry x="51" y="31" width="17" height="17" as="geometry" />
        </mxCell>
        <mxCell id="GR6ykVju9A3iwefrX5M7-10" value="" style="group" vertex="1" connectable="0" parent="1">
          <mxGeometry x="110" y="110.00000000000023" width="161.5" height="130" as="geometry" />
        </mxCell>
        <mxCell id="GR6ykVju9A3iwefrX5M7-11" style="vsdxID=53;fillColor=none;gradientColor=none;strokeColor=none;spacingTop=-3;spacingBottom=-3;spacingLeft=-3;spacingRight=-3;points=[];labelBackgroundColor=none;rounded=0;html=1;whiteSpace=wrap;" vertex="1" parent="GR6ykVju9A3iwefrX5M7-10">
          <mxGeometry width="161.5" height="129.99999999999977" as="geometry" />
        </mxCell>
        <mxCell id="GR6ykVju9A3iwefrX5M7-12" style="vsdxID=54;fillColor=none;gradientColor=none;strokeColor=none;spacingTop=-3;spacingBottom=-3;spacingLeft=-3;spacingRight=-3;points=[];labelBackgroundColor=none;rounded=0;html=1;whiteSpace=wrap;" vertex="1" parent="GR6ykVju9A3iwefrX5M7-11">
          <mxGeometry width="84" height="84" as="geometry" />
        </mxCell>
        <mxCell id="GR6ykVju9A3iwefrX5M7-13" style="vsdxID=55;fillColor=#FFFFFF;gradientColor=none;shape=stencil(lZPRDoIwDEW/Zq9LWUHCs+J/EAVZRCATFP/eYYdsAzW+td2922mzMtxey6zNmYBrp5pzfpfHrmS4Y0LIusyV7HTEMGW4LRqVn1TT10fK22xUjtGluY03DOSLOEajScCDCknC482rsif9oVdkCEggeIjGEfgWGASVwChMmsQchVGgqzBpEvLQfrWStUUJDuKb+QMhuHgz8ERnteDyTnDWVBzcVTiNvnFnCN/o9Cyi2CUEFy8Ab3xWB+hLfOJVxFnuI3+AnA1L6kEsG/HJB1zOxkNfBf39Hf/V62D++4WsKlod+9zfFV2iPcP0CQ==);strokeColor=none;spacingTop=-3;spacingBottom=-3;spacingLeft=-3;spacingRight=-3;points=[];labelBackgroundColor=none;rounded=0;html=1;whiteSpace=wrap;" vertex="1" parent="GR6ykVju9A3iwefrX5M7-12">
          <mxGeometry x="1" y="1" width="82" height="82" as="geometry" />
        </mxCell>
        <mxCell id="GR6ykVju9A3iwefrX5M7-14" style="vsdxID=56;fillColor=#FFFFFF;gradientColor=none;shape=stencil(lZXRdoIwDIafprc9aUMpvXb6Hp6JgzMmHsSNvf1gLbQNCHpX4h/88iehDHe34njNmYRb29Sf+U95aguGb0zK8lLkTdn2J4Z7hrtz3eQfTX2/nOzz9Tgoh9NX/T28obN5BjmqIUvCr41Ijtl/4GD17/fGJgiXoXhiXIYgKdBJJ9IcR5ELJVy6SIdzkQulPMHwz6vyEsIGCRN+JlZpgxRfgFEEN6jJV5ClhDfwCqlqEbgvR8S8VE95e5c0wdU8lTFu77cmtIprEdMGIs+v9GPYIGG5GZQ1SBCzHstZPXI2LDhzCZdnkIzB5sy+qt/aCXihxbBuWaZiyyD2C6hZdAghdmp9YSAi21wWYHTyREInb+J3EQHANro5Sh41R8U7TeQLGy2Ih56BQgXbPJWCVPPcenj9c9thDNcp/U5O3Ry5Um5EjErsXPjorLu5Nrr9wV8E57Kq7D0S/k4vjj5kLx3c/wE=);strokeColor=none;spacingTop=-3;spacingBottom=-3;spacingLeft=-3;spacingRight=-3;points=[];labelBackgroundColor=none;rounded=0;html=1;whiteSpace=wrap;" vertex="1" parent="GR6ykVju9A3iwefrX5M7-12">
          <mxGeometry width="84" height="84" as="geometry" />
        </mxCell>
        <mxCell id="GR6ykVju9A3iwefrX5M7-15" style="vsdxID=57;fillColor=none;gradientColor=none;strokeColor=none;spacingTop=-3;spacingBottom=-3;spacingLeft=-3;spacingRight=-3;points=[];labelBackgroundColor=none;rounded=0;html=1;whiteSpace=wrap;" vertex="1" parent="GR6ykVju9A3iwefrX5M7-11">
          <mxGeometry x="2" y="2" width="159.5" height="127.99999999999977" as="geometry" />
        </mxCell>
        <mxCell id="GR6ykVju9A3iwefrX5M7-16" style="vsdxID=58;fillColor=#2d5967;gradientColor=none;shape=stencil(lZXLcoMwDEW/xlvGWDzidZr8R6YhhSmFDCEt+ftCbbAkB+Lu/LgyR/IVFrC/ladrIZS89V37WfxU574U8CaUqpqy6Kp+HAk4CNhf2q746Np7czbz62lSTqOv9ns6YTBxOo3SeIpS8mFW5N/saMR11SBxEqlkXft+78zJsdmMI62tOsZyOSgyfdipsrtAd2H5drpOJgmWzra4JIXSO0qFsOcVKSkaqgNQyVO4scZ5RgCZnBPqXSRjSukYONRMueQBXAAOY6OETv+84B6kno9bIBVF1LnLm175AL774KX9XniVGTtzNVzJ38so88puneRSSr2UxihbqK20nCqsszw9hwWvuzCImkV5wmkpKlKE2QQFhPkEBdiVhEPyhoPFWesdB5uUfstxfcDlIwx01+z6EwqKFUF/rgCf/jtgHLj//aWqa/Nc4H3+PoxL5m2Bwy8=);strokeColor=none;spacingTop=-3;spacingBottom=-3;spacingLeft=-3;spacingRight=-3;points=[];labelBackgroundColor=none;rounded=0;html=1;whiteSpace=wrap;" vertex="1" parent="GR6ykVju9A3iwefrX5M7-15">
          <mxGeometry width="80" height="80" as="geometry" />
        </mxCell>
        <mxCell id="GR6ykVju9A3iwefrX5M7-17" style="vsdxID=59;fillColor=#2d5967;gradientColor=none;shape=stencil(pZJbDsIgFERXwy+hQBW/a91Hk1IhIjQUX7sXcmNsNaWx/s1wz32EDGLVoJpeIkqG4N1J3nQbFGJ7RKm2SnodokKsRqzqnJdH7y62Bd83iUzq7K5pwh36SOqg5AGuIOAPgBptR+iruArOoCvB7PosOv0BjkUxpTdYlPOjdxyXf/GCY7qd57/u+ZVfuGeZj+Idl04bA2kb1z/jFZ8gmqx+Ag==);strokeColor=none;spacingTop=-3;spacingBottom=-3;spacingLeft=-3;spacingRight=-3;points=[];labelBackgroundColor=none;rounded=0;html=1;whiteSpace=wrap;" vertex="1" parent="GR6ykVju9A3iwefrX5M7-15">
          <mxGeometry x="11" y="51" width="58" height="17" as="geometry" />
        </mxCell>
        <mxCell id="GR6ykVju9A3iwefrX5M7-18" style="vsdxID=60;fillColor=#2d5967;gradientColor=none;shape=stencil(jVLRDoMgDPwaXg2UOeezc/9hJk4ypwZ107+fpCRClxnf2nLH9eCYzIa66BUDPoyme6qPLseaySsD0G2tjB7XismcyazqjHqYbmpL7PvCIm316t72hhl5MbcU4Au2gmN/Q+x9MggWeJwk0Vk4gggZfAYyWGAjgcNIinGDUxql6Z7yxnADgEheQmV/OzfioW5MZHfNWoUkFCVWiVF/JRkijtokJv2ng9+t6Iv/s0l+tdHt4QSsxRadSjcNJs8/p1FbRxhTmX8B);strokeColor=none;spacingTop=-3;spacingBottom=-3;spacingLeft=-3;spacingRight=-3;points=[];labelBackgroundColor=none;rounded=0;html=1;whiteSpace=wrap;" vertex="1" parent="GR6ykVju9A3iwefrX5M7-15">
          <mxGeometry x="57" y="58" width="4" height="4" as="geometry" />
        </mxCell>
        <mxCell id="GR6ykVju9A3iwefrX5M7-19" style="vsdxID=61;fillColor=#2d5967;gradientColor=none;shape=stencil(pZLbDsIgEES/Zl8JZW3E51r/o0mpEBEa2nr5e0Fi2qrpRd92Z8+QCRnArJFFLYDRpnX2JK6qbCXgHhhTRgqnWj8B5oBZZZ04OtuZMu51Ecgwne0lvHCLvh0nnAcXo/eo0Od2iLBWZgDT38CETqCv4yJ4VdoZePwPHEmyGcFBSSdyp2SL/xl65avhM9Jqw0ykBQY/9NWplNaxecP7e9W8FGuK+QM=);strokeColor=none;spacingTop=-3;spacingBottom=-3;spacingLeft=-3;spacingRight=-3;points=[];labelBackgroundColor=none;rounded=0;html=1;whiteSpace=wrap;" vertex="1" parent="GR6ykVju9A3iwefrX5M7-15">
          <mxGeometry x="11" y="11" width="17" height="17" as="geometry" />
        </mxCell>
        <mxCell id="GR6ykVju9A3iwefrX5M7-20" style="vsdxID=62;fillColor=#2d5967;gradientColor=none;shape=stencil(pZJJDoMwDEVP422UxGXYU3oPJEKJmhIUoMPtm8iqCnSE7vzj920r+oBZVxetAsm73tmDOuuyrwG3IKVuauV07yvAHDCrrFN7Z4emJN0WgQzV0Z7ChAv5BOfBI/mVNKkdoUY3I3QleN/wEp2vXwSvRac/kG6YTCZwikxEH2bHLI3/M4iIJfje8HzSYsOXk34w+OIRmkobQ5kb9+ch808UUMxv);strokeColor=none;spacingTop=-3;spacingBottom=-3;spacingLeft=-3;spacingRight=-3;points=[];labelBackgroundColor=none;rounded=0;html=1;whiteSpace=wrap;" vertex="1" parent="GR6ykVju9A3iwefrX5M7-15">
          <mxGeometry x="31" y="11" width="17" height="17" as="geometry" />
        </mxCell>
        <mxCell id="GR6ykVju9A3iwefrX5M7-21" style="vsdxID=63;fillColor=#2d5967;gradientColor=none;shape=stencil(pZLbDsIgEES/Zl8JZW3E51r/o0mpEBEa2nr5e0Fi2qrpRd92Z8+QCRnArJFFLYDRpnX2JK6qbCXgHhhTRgqnWj8B5oBZZZ04OtuZMu51Ecgwne0lvHCLvh0nnAcXo/eo0Od2iLBWZgDT38CETqCv4yJ4VdoZePwPHEmyGcFBSSdyp2SL/xl65avhM9Jqw0ykBQY/9NWplNaxecP7e9W8FGuK+QM=);strokeColor=none;spacingTop=-3;spacingBottom=-3;spacingLeft=-3;spacingRight=-3;points=[];labelBackgroundColor=none;rounded=0;html=1;whiteSpace=wrap;" vertex="1" parent="GR6ykVju9A3iwefrX5M7-15">
          <mxGeometry x="11" y="31" width="17" height="17" as="geometry" />
        </mxCell>
        <mxCell id="GR6ykVju9A3iwefrX5M7-22" style="vsdxID=64;fillColor=#2d5967;gradientColor=none;shape=stencil(pZJJDoMwDEVP422UxGXYU3oPJEKJmhIUoMPtm8iqCnSE7vzj920r+oBZVxetAsm73tmDOuuyrwG3IKVuauV07yvAHDCrrFN7Z4emJN0WgQzV0Z7ChAv5BOfBI/mVNKkdoUY3I3QleN/wEp2vXwSvRac/kG6YTCZwikxEH2bHLI3/M4iIJfje8HzSYsOXk34w+OIRmkobQ5kb9+ch808UUMxv);strokeColor=none;spacingTop=-3;spacingBottom=-3;spacingLeft=-3;spacingRight=-3;points=[];labelBackgroundColor=none;rounded=0;html=1;whiteSpace=wrap;" vertex="1" parent="GR6ykVju9A3iwefrX5M7-15">
          <mxGeometry x="31" y="31" width="17" height="17" as="geometry" />
        </mxCell>
        <mxCell id="GR6ykVju9A3iwefrX5M7-23" style="vsdxID=65;fillColor=#2d5967;gradientColor=none;shape=stencil(pZJJDoMwDEVP422UxGXYU3oPJEKJmhIUoMPtm8iqCnSE7vzj920r+oBZVxetAsm73tmDOuuyrwG3IKVuauV07yvAHDCrrFN7Z4emJN0WgQzV0Z7ChAv5BOfBI/mVNKkdoUY3I3QleN/wEp2vXwSvRac/kG6YTCZwikxEH2bHLI3/M4iIJfje8HzSYsOXk34w+OIRmkobQ5kb9+ch808UUMxv);strokeColor=none;spacingTop=-3;spacingBottom=-3;spacingLeft=-3;spacingRight=-3;points=[];labelBackgroundColor=none;rounded=0;html=1;whiteSpace=wrap;" vertex="1" parent="GR6ykVju9A3iwefrX5M7-15">
          <mxGeometry x="51" y="11" width="17" height="17" as="geometry" />
        </mxCell>
        <mxCell id="GR6ykVju9A3iwefrX5M7-24" style="vsdxID=66;fillColor=#2d5967;gradientColor=none;shape=stencil(pZJJDoMwDEVP422UxGXYU3oPJEKJmhIUoMPtm8iqCnSE7vzj920r+oBZVxetAsm73tmDOuuyrwG3IKVuauV07yvAHDCrrFN7Z4emJN0WgQzV0Z7ChAv5BOfBI/mVNKkdoUY3I3QleN/wEp2vXwSvRac/kG6YTCZwikxEH2bHLI3/M4iIJfje8HzSYsOXk34w+OIRmkobQ5kb9+ch808UUMxv);strokeColor=none;spacingTop=-3;spacingBottom=-3;spacingLeft=-3;spacingRight=-3;points=[];labelBackgroundColor=none;rounded=0;html=1;whiteSpace=wrap;" vertex="1" parent="GR6ykVju9A3iwefrX5M7-15">
          <mxGeometry x="51" y="31" width="17" height="17" as="geometry" />
        </mxCell>
        <mxCell id="GR6ykVju9A3iwefrX5M7-283" value="&lt;div&gt;Linux 8 Managed Instance Group1&lt;/div&gt;&lt;div&gt;&lt;br&gt;&lt;/div&gt;" style="fontStyle=0;verticalAlign=top;align=center;spacingTop=-2;fillColor=none;rounded=0;whiteSpace=wrap;html=1;strokeColor=#00882B;strokeWidth=2;dashed=1;container=1;collapsible=0;expand=0;recursiveResize=0;" vertex="1" parent="GR6ykVju9A3iwefrX5M7-15">
          <mxGeometry x="-40.5" y="-72.00000000000023" width="200" height="200" as="geometry" />
        </mxCell>
        <mxCell id="GR6ykVju9A3iwefrX5M7-25" value="4 Managed Instances" style="verticalAlign=middle;align=center;vsdxID=68;fillColor=none;gradientColor=none;shape=stencil(nZBLDoAgDERP0z3SIyjew0SURgSD+Lu9kMZoXLhwN9O+tukAlrNpJg1SzDH4QW/URgNYgZTkjA4UkwJUgGXng+6DX1zLfmoymdXo17xh5zmRJ6Q42BWCfc2oJfdAr+Yv+AP9Cb7OJ3H/2JG1HNGz/84klThPVCc=);strokeColor=none;spacingTop=-3;spacingBottom=-3;spacingLeft=-3;spacingRight=-3;points=[];labelBackgroundColor=none;rounded=0;html=1;whiteSpace=wrap;" vertex="1" parent="GR6ykVju9A3iwefrX5M7-283">
          <mxGeometry x="19" y="154.00000000000023" width="136" height="41" as="geometry" />
        </mxCell>
        <mxCell id="GR6ykVju9A3iwefrX5M7-284" value="&lt;div&gt;Linux 8 Managed Instance Group2&lt;/div&gt;" style="fontStyle=0;verticalAlign=top;align=center;spacingTop=-2;fillColor=none;rounded=0;whiteSpace=wrap;html=1;strokeColor=#00882B;strokeWidth=2;dashed=1;container=0;collapsible=0;expand=0;recursiveResize=0;" vertex="1" parent="1">
          <mxGeometry x="72" y="281" width="200" height="200" as="geometry" />
        </mxCell>
        <mxCell id="GR6ykVju9A3iwefrX5M7-286" value="Linux 9 Managed Instance Group 2" style="fontStyle=0;verticalAlign=top;align=center;spacingTop=-2;fillColor=none;rounded=0;whiteSpace=wrap;html=1;strokeColor=#00882B;strokeWidth=2;dashed=1;container=0;collapsible=0;expand=0;recursiveResize=0;" vertex="1" parent="1">
          <mxGeometry x="72" y="758" width="200" height="200" as="geometry" />
        </mxCell>
        <mxCell id="GR6ykVju9A3iwefrX5M7-345" style="vsdxID=102;fillColor=none;gradientColor=none;strokeColor=none;spacingTop=-3;spacingBottom=-3;spacingLeft=-3;spacingRight=-3;points=[];labelBackgroundColor=none;rounded=0;html=1;whiteSpace=wrap;" vertex="1" parent="1">
          <mxGeometry x="379" y="100" width="85" height="80" as="geometry" />
        </mxCell>
        <mxCell id="GR6ykVju9A3iwefrX5M7-346" style="vsdxID=103;fillColor=#FFFFFF;gradientColor=none;shape=stencil(pZbBchoxDIafhqvGtmxZOqfJe2QaUphSyBDShrev6K5trB08ZHpbhLWfvJJ+aYUP75vnt/UquPfT8fBz/Wf7ctqs8NsqhO1+sz5uT/q0wscVPrwejusfx8PH/mX6/fZ8OXl5+nX4fXnD5+TnGTBfvII7TxZGiPTP8jQ57Lb7oUNCELzt4L50GELqz6slX5///nGc4vfFIxWP2RITyBzhZ5iDBi4xz5aopjAfwtkE3s+HZgsyBD+CE6CBYwTyPVwghh6OHij3cI/gYk9XRxpeXX049nj1KR+w3j1Cwp4fGCgafgJHhp+BZchPQAafwUeDb9moeILABk/VseITIA3xBMKG70DI8KXksPJ9Bud7fggQpefrd/NDvgaYzf29BzTZ14ww9XyBnHq8Vo0pPT2DI/ilznIPV5cejQnCEm3ICRjH6L5DkSAWhztDzRAWkZoq0TOyCDWZItF2JLKxhmGOUJpazSYGMfDoaj0UOBcNbOqgQmMqNJfM3oBH7Wlzc+0y056RwLADiFUmaS1cqhMojdgptLarSommQBJVHShw15PpSpCxCu7w1rRUJQ8+9GTK7b312kl6eHa1cKpE8/DWGcEbQc5V1Qs7J0hGkL0DIwg515jPTaLnCrhFzy1N5eYRUAye25xpGunR8LnOp3OT6ByGfFnydUL1eHZFVhueIJvrs4dgK07ldjgMdXGoIRe8fhGDV+0Xg2dIRpWYW4qKQmuTDqeh1L2ljQMENL0uqv3LaRiN0ojy7S4Qi+7dGkfO9XRVDJt7kTr5zq3/s2l3oQVd29l3tdeLsqTaPPftWZpfx//nwBGc3HaIddSc++9z51b55TV04aAPbet93e5209J8/b/dktU0bdj4+Bc=);strokeColor=none;spacingTop=-3;spacingBottom=-3;spacingLeft=-3;spacingRight=-3;points=[];labelBackgroundColor=none;rounded=0;html=1;whiteSpace=wrap;" vertex="1" parent="GR6ykVju9A3iwefrX5M7-345">
          <mxGeometry x="1" width="83" height="78" as="geometry" />
        </mxCell>
        <mxCell id="GR6ykVju9A3iwefrX5M7-347" style="vsdxID=104;fillColor=#FFFFFF;gradientColor=none;shape=stencil(pVjbctw2DP2afcWQ4P05Tf4jkzj1Tl07s3Ha9d8HqkRQPFxx3cnbWgZ0BBA4B+DJffjx+Pn7w4nNj9fLy18P/56/vj6e3B8n5vPz48Pl/Cq/Tu7jyX349nJ5+PPy8vP56/r398+L5fLr75d/ljdcV78QqfDixeZtfcLk8n8PPq32X35eVge7/j8aSmXzsOoS1ydX3ow8bU/etieOwmbiNpNEub5nexQoxhl0smQBWl5ie+jkKIce2xoqPXgKFFIPbj2FaeApknE9um2vUfhIyQJ8JO8BP1FwgJ/I8hQ/a5oVX8IH+ELOAXwmTj18NuQCwGfyZQafmZIH+EIGws+BDITPhkwE/EQm9/hsa5IO8Iut1dHqztdvVvziqUDlcRniL3GI33mann5JlOD0vdFcK3zSjFR4H4ktwEupcQ8fLHHY4z+dn3dtWhyVir45SNOVY4elDvj3HOTAt7zddPCFUu4cJHjHxw5SBwBgKf0f+zsRcM3gu+297e1Nrd2DGpAOgAoIVKAA5aCwALg2duM+MkB9LlNKM+ysVVTBXSDPPbgVggTaZYrAfQvRAbihPCVe26AU3QykLzzH3MNL70XgfbHKvseX4NK0+YTnPPZ+ogLMb3eKUvEjMr/wHOZedCe7KXymCMmXczaYfGkIpB5TK1DxF54bqddO0y9gFqk3qG5XfAnDofJ4spB+yVuC+C3XKj7CL5prxWfl+WsrNUZ8i6rvRuoTo7nySKEbFD47ML/bSTqPVhV/bL0Bv6cJ8dCEvfeDE8U8fHAArZCWv/HBDqTKFfLD95ppuYouMZaLaTRQaQnPypAFbC+SC+CFwhRaxrxhQmPgiYU1fQ8u/JIBOw8TmgeJRPBFQ4GkdGKr2MGTAWweenQ/FDs16hiqr5H7U/S9qdtMA3OUQh+ZGdpP1CvCkRodRTWrSeugRWbmR+qbzmtaHRYTVwrbHamD3vemR9bZ/aiNylBMu1GW1cgA6Wet2mtT1wCkm6tWHIFDzEUpWJETYQ+Nk6awR11QWgtxx/YD3bhaoLftb9AjDubigmQTmoTwYLQj56Hf74AbVZgdODT8IrC5Bxe2yZCqZSCDpcC6OyWybCDItFGbZTeYJFgJpTcyDiZBP2k3GUx3EnHBpUAmDp32WK08wkfKA7rBsSjB/DrAy5YNjLeMRdAhYmUg+1L9HlYySbWOWLuxbIq/G3haOWSovDjQknPNSKldl49ai6kOCofDuIHYvfL/VQkwQuJ9O4uK3bY4FZpSi+NmizahbIsG88S+N/Y1azeNZYgt4fccsqv6f9uhtFsUdcgTdRMpTv2mVEpt1aPVMPYZssYcmy/KlfH9k/xn0/aM7Ymvp3rbwTZm0YjTZOYbHe4cQglt9n2vQ+5pPrhZzCWSv3MBMHRnI2LtkDi0Zz2Z1iFGBUjvK/KwMfoqHofXJcBLeaDF4tp9VuUl1qzoVVEe2lMKeH5VlOPADUuX9PB5R3hNJ4CVpdRQvsXIzi/KDOGyFJXbd/d0HvR4ERMY11Juwtl0Yj4FL9eEiN9GOMVP4y2pV17YX1Pi9iFlOpXkFBrpqk54UOTUriXeVCcMiEIsbe+rdVfffXQ5HdpMVoMfxpHY9oSqEz3wjfl/Rl/zYV5+tMv3b+enp/Xufv9/vKyXR+tFv/v4Cw==);strokeColor=none;spacingTop=-3;spacingBottom=-3;spacingLeft=-3;spacingRight=-3;points=[];labelBackgroundColor=none;rounded=0;html=1;whiteSpace=wrap;" vertex="1" parent="GR6ykVju9A3iwefrX5M7-345">
          <mxGeometry width="85" height="80" as="geometry" />
        </mxCell>
        <mxCell id="GR6ykVju9A3iwefrX5M7-348" style="vsdxID=105;fillColor=#2d5967;gradientColor=none;shape=stencil(nZjdchwnEIWfZm+7gOb32rHfwxXL0VYUySXLyebtc6Z2gOGQQYmrdLGLYL+h6T6nmYt++P74+dvDxZnvb68vvz/8df3y9njRXy7OXZ8fH16vb/h00Y8X/fD15fXht9eXH89f7t+/fd5mbp/+ePlz+4XbfV3OkuK2ypm/7yOaZfuKv0/3Bb/+eL2vsPuSKKHsS/YhDeL3oZvbZ3lx+6R9RFXCPnTTfZKVtE/aR9SJ5iXdSHREt1J0pKfSZ1W8HdkJOw8j3GFVWMFTkpxHuMvC7CQ2j2yHkGXCR9668xLtkh7EjnCLs6K4JycpjXTrJIeRHouUkY5o6AoekxiKe3veBo8qsRBcCrNNy4x9xEhZnnnosdpHzMgNKlZHrpHkR64vkkcuVi0z3UfxdNxBAu3ZI61HdBGfCG3F2pFtEb20hBvROMJtFBdGunZYi3gSTyFHTXvKti11Vnjtv3LItuIJH0UZX+rxNnoQdRO9xCUeOVEmfK2rW6+rSHgcfNSRj3MmPI4xLwsdm0hUa1AZk0Y8Iq2Udoh0pErHqXkqNp/ELUt9O2lKeaRvjWLjByGhCVZo85hj/UhHtZg13fd0qXnvW0AaXVukGz6KKcR3VVM7H1KyjH7p1VzVxzSxblpTi7fRY5wyryVsZUMe87LsbNONyoaXBGIb8XFkZ5woRd6IpZorYay5p+vzwYp3TdttuECh7flkHGt9qJ9eYMX58wW+GsLp/EmmxZFa5jBbRJeVGjrTTayZEYcO3rc7y2nOsDMn25OxO6Ehf4q9hm8HadYRH30t6/OCtaTWMMOJn7oUVL6RTEYFoauNUiuZLGbNR5JS3obQd9bF0VHiBtf0oeml6Q1eFaxcu4oTPurGkWB61zSs8RESFsw4uSUSKbJTu+q7Z3y0YbR/DHHdQsNZslzrLZpoeCnsF6n++pldwYgYn1oB3bo5eKKnKffh+4ZEC89o1r0C9kXZh/rNtHs/d0kOcsh8P7k1EkLfa5TYrjYH404pz92hToaxWRgZhrVVXM+Ux/e8anqg1CzAnDLh89QYh9Kfsar2O6UfnXCjZKYuMcKGSfc2Z6RWIR6art49rM0arTw7FsRAqVGDGFLhoxYTCd9mjnHEbyFa0dOhCThcx2j3yfe7Vq0F325ohysRd8moq/TejYxbdFRZpqOHhRva/qG9bq5j+tWpN+5maTtZRalP/Rfdy63f7PzD7anykxTmp3q1PbM9w3dC1A9fEuDcmXolmIOn5CsHce5XtTXd15agu15oItPwfiq8hA6Kkg+zpmYt1Oc+5/MtIdtJdzBr6jlwIY/T9pX4iJsfsn/skHD2LV9+coE15nw62sWi/2N6nDq8VKXhLH5lbtmS8C3HmDF4OBa+05fc4nlomfK6Y0tT6qpkzh1l3ULhTO3i4SVWv/E6dx6r//DaCx/6S7Ov16en+zu34//5JRuG7i/o9OM/);strokeColor=none;spacingTop=-3;spacingBottom=-3;spacingLeft=-3;spacingRight=-3;points=[];labelBackgroundColor=none;rounded=0;html=1;whiteSpace=wrap;" vertex="1" parent="GR6ykVju9A3iwefrX5M7-345">
          <mxGeometry x="2" y="1" width="81" height="40" as="geometry" />
        </mxCell>
        <mxCell id="GR6ykVju9A3iwefrX5M7-349" style="vsdxID=106;fillColor=#2d5967;gradientColor=none;shape=stencil(lZPbDsIgDIafhtumBwbs2sN7LHE64tzMnKe3d5MLZUYS7lr4/vYntEpWl6Y614rxMg79sb773dgoWStm3zX14McpUrJRstr3Q30Y+mu3C/m5msk5OvW3ucIj6HBWMD5D5sAU74NtYFvffbFEYCXiicHZ/wLWQGbRQP/HnQBFNJdQJPxYBKMjgWhATggM6LiDGMAyR6ARhBJPmBy7uEMBJod3FkhyHJUExuUICDHxx4jL6i41EgucLXDC/e9AJKzkjGaanYLP/O9924b1+b5f7st0FHZNNi8=);strokeColor=none;spacingTop=-3;spacingBottom=-3;spacingLeft=-3;spacingRight=-3;points=[];labelBackgroundColor=none;rounded=0;html=1;whiteSpace=wrap;" vertex="1" parent="GR6ykVju9A3iwefrX5M7-345">
          <mxGeometry x="34" y="23" width="33" height="46" as="geometry" />
        </mxCell>
        <mxCell id="GR6ykVju9A3iwefrX5M7-350" style="vsdxID=107;fillColor=#2d5967;gradientColor=none;shape=stencil(lZTbboMwDIafJrdWbDen6657j0qlIxqDirKtffuFZafAsODOOP+Hfh9kxftrfbxUivR16Lvn6j2ehlrxgyKKbV31cUiR4oPi/bnrq6e+e21P+ftyHJVj9NK9jX+4Zc4jWDtSpO9fmQA2fGYeM9DEVgTYA+IygFqXcoQdrZeTAxLkYQeEJWAA7TLgLHg7NWSEgtEB+wJADVoomBkoFMCPx3/1hECm0Otlcdkc9z2LNVoClvvCOClT8DEdU0hN9OvlngHdliXbvJUzoNz7NENHZbkW0Aj9QUDesvdzIFkyQtFzSzbNV7C0uYYVQAp+T8U5Nk2+NH/fp6clpfJZ4sMH);strokeColor=none;spacingTop=-3;spacingBottom=-3;spacingLeft=-3;spacingRight=-3;points=[];labelBackgroundColor=none;rounded=0;html=1;whiteSpace=wrap;" vertex="1" parent="GR6ykVju9A3iwefrX5M7-345">
          <mxGeometry x="17" y="32" width="33" height="45" as="geometry" />
        </mxCell>
        <mxCell id="GR6ykVju9A3iwefrX5M7-351" style="vsdxID=108;fillColor=#2d5967;gradientColor=none;shape=stencil(jZDdCoMwDIWfJrcSG5jbtXPvIVjXsK6V2v29vS1hTAdC785JvoTDAWpn008aFM4x+Jt+8RAN0BmUYmd04JgUUAfUjj7oa/APN4if+kxmdffP/OEtd5gvFH7W7iKgZbcLHuoKaR+ucYt/fRFMx+rUlAYpTrwBk/gVMrK10ud6/19gGkn51C0=);strokeColor=none;spacingTop=-3;spacingBottom=-3;spacingLeft=-3;spacingRight=-3;points=[];labelBackgroundColor=none;rounded=0;html=1;whiteSpace=wrap;" vertex="1" parent="GR6ykVju9A3iwefrX5M7-345">
          <mxGeometry x="23" y="44" width="6" height="7" as="geometry" />
        </mxCell>
        <mxCell id="GR6ykVju9A3iwefrX5M7-352" style="vsdxID=109;fillColor=#2d5967;gradientColor=none;shape=stencil(lZHNDsIgEISfhiuhLBU81/oeTUqFiNBQ/Ht7QdKoNRJ7G2bnIwuDoJlUN0pEyRS8O8qr7oNCsEOUaquk1yEqBC2CZnBeHrw72z6fxy4lkzq5S7rhljlRY84SRck9OxuOoXo6+wwYbYtARcjv+Dycw1uCCfwfrzlmpTjDAB9AYZXFIliINa9c/S1fQBSvFgZtTC7xfb5sLVq5cWgf);strokeColor=none;spacingTop=-3;spacingBottom=-3;spacingLeft=-3;spacingRight=-3;points=[];labelBackgroundColor=none;rounded=0;html=1;whiteSpace=wrap;" vertex="1" parent="GR6ykVju9A3iwefrX5M7-345">
          <mxGeometry x="26" y="29" width="30" height="21" as="geometry" />
        </mxCell>
        <mxCell id="GR6ykVju9A3iwefrX5M7-353" style="vsdxID=110;fillColor=#2d5967;gradientColor=none;shape=stencil(jZDRCoMwDEW/Jq9SE5j47Nx/CNY1rGuldnP7+7UEmdtD8e3e3JMQLlC3mGHWgGqJwd/0ymM0QGdAZGd04JgUUA/UTT7oa/APN4qfh0xmdffPfOEleypvoHqLq5X4i6CW3Q7dwg1uTlXTHscLl39BpAqPssWHi2gS304mtlYq3ef/HaaR9E/9Bw==);strokeColor=none;spacingTop=-3;spacingBottom=-3;spacingLeft=-3;spacingRight=-3;points=[];labelBackgroundColor=none;rounded=0;html=1;whiteSpace=wrap;" vertex="1" parent="GR6ykVju9A3iwefrX5M7-345">
          <mxGeometry x="52" y="64" width="4" height="9" as="geometry" />
        </mxCell>
        <mxCell id="GR6ykVju9A3iwefrX5M7-354" style="vsdxID=111;fillColor=#2d5967;gradientColor=none;shape=stencil(nZjdchwnEIWfZm+7gOb32rHfwxXL0VYUySXLyebtc6Z2gOGQQYmrdLGLYL+h6T6nmYt++P74+dvDxZnvb68vvz/8df3y9njRXy7OXZ8fH16vb/h00Y8X/fD15fXht9eXH89f7t+/fd5mbp/+ePlz+4XbfV3OkuK2ypm/7yOaZfuKv0/3Bb/+eL2vsPuSKKHsS/YhDeL3oZvbZ3lx+6R9RFXCPnTTfZKVtE/aR9SJ5iXdSHREt1J0pKfSZ1W8HdkJOw8j3GFVWMFTkpxHuMvC7CQ2j2yHkGXCR9668xLtkh7EjnCLs6K4JycpjXTrJIeRHouUkY5o6AoekxiKe3veBo8qsRBcCrNNy4x9xEhZnnnosdpHzMgNKlZHrpHkR64vkkcuVi0z3UfxdNxBAu3ZI61HdBGfCG3F2pFtEb20hBvROMJtFBdGunZYi3gSTyFHTXvKti11Vnjtv3LItuIJH0UZX+rxNnoQdRO9xCUeOVEmfK2rW6+rSHgcfNSRj3MmPI4xLwsdm0hUa1AZk0Y8Iq2Udoh0pErHqXkqNp/ELUt9O2lKeaRvjWLjByGhCVZo85hj/UhHtZg13fd0qXnvW0AaXVukGz6KKcR3VVM7H1KyjH7p1VzVxzSxblpTi7fRY5wyryVsZUMe87LsbNONyoaXBGIb8XFkZ5woRd6IpZorYay5p+vzwYp3TdttuECh7flkHGt9qJ9eYMX58wW+GsLp/EmmxZFa5jBbRJeVGjrTTayZEYcO3rc7y2nOsDMn25OxO6Ehf4q9hm8HadYRH30t6/OCtaTWMMOJn7oUVL6RTEYFoauNUiuZLGbNR5JS3obQd9bF0VHiBtf0oeml6Q1eFaxcu4oTPurGkWB61zSs8RESFsw4uSUSKbJTu+q7Z3y0YbR/DHHdQsNZslzrLZpoeCnsF6n++pldwYgYn1oB3bo5eKKnKffh+4ZEC89o1r0C9kXZh/rNtHs/d0kOcsh8P7k1EkLfa5TYrjYH404pz92hToaxWRgZhrVVXM+Ux/e8anqg1CzAnDLh89QYh9Kfsar2O6UfnXCjZKYuMcKGSfc2Z6RWIR6art49rM0arTw7FsRAqVGDGFLhoxYTCd9mjnHEbyFa0dOhCThcx2j3yfe7Vq0F325ohysRd8moq/TejYxbdFRZpqOHhRva/qG9bq5j+tWpN+5maTtZRalP/Rfdy63f7PzD7anykxTmp3q1PbM9w3dC1A9fEuDcmXolmIOn5CsHce5XtTXd15agu15oItPwfiq8hA6Kkg+zpmYt1Oc+5/MtIdtJdzBr6jlwIY/T9pX4iJsfsn/skHD2LV9+coE15nw62sWi/2N6nDq8VKXhLH5lbtmS8C3HmDF4OBa+05fc4nlomfK6Y0tT6qpkzh1l3ULhTO3i4SVWv/E6dx6r//DaCx/6S7Ov16en+zu34//5JRuG7i/o9OM/);strokeColor=none;spacingTop=-3;spacingBottom=-3;spacingLeft=-3;spacingRight=-3;points=[];labelBackgroundColor=none;rounded=0;html=1;whiteSpace=wrap;" vertex="1" parent="GR6ykVju9A3iwefrX5M7-345">
          <mxGeometry x="2" y="1" width="81" height="40" as="geometry" />
        </mxCell>
        <mxCell id="GR6ykVju9A3iwefrX5M7-355" style="vsdxID=112;fillColor=#2d5967;gradientColor=none;shape=stencil(lZPbDsIgDIafhtumBwbs2sN7LHE64tzMnKe3d5MLZUYS7lr4/vYntEpWl6Y614rxMg79sb773dgoWStm3zX14McpUrJRstr3Q30Y+mu3C/m5msk5OvW3ucIj6HBWMD5D5sAU74NtYFvffbFEYCXiicHZ/wLWQGbRQP/HnQBFNJdQJPxYBKMjgWhATggM6LiDGMAyR6ARhBJPmBy7uEMBJod3FkhyHJUExuUICDHxx4jL6i41EgucLXDC/e9AJKzkjGaanYLP/O9924b1+b5f7st0FHZNNi8=);strokeColor=none;spacingTop=-3;spacingBottom=-3;spacingLeft=-3;spacingRight=-3;points=[];labelBackgroundColor=none;rounded=0;html=1;whiteSpace=wrap;" vertex="1" parent="GR6ykVju9A3iwefrX5M7-345">
          <mxGeometry x="34" y="23" width="33" height="46" as="geometry" />
        </mxCell>
        <mxCell id="GR6ykVju9A3iwefrX5M7-356" style="vsdxID=113;fillColor=#2d5967;gradientColor=none;shape=stencil(lZTbboMwDIafJrdWbDen6657j0qlIxqDirKtffuFZafAsODOOP+Hfh9kxftrfbxUivR16Lvn6j2ehlrxgyKKbV31cUiR4oPi/bnrq6e+e21P+ftyHJVj9NK9jX+4Zc4jWDtSpO9fmQA2fGYeM9DEVgTYA+IygFqXcoQdrZeTAxLkYQeEJWAA7TLgLHg7NWSEgtEB+wJADVoomBkoFMCPx3/1hECm0Otlcdkc9z2LNVoClvvCOClT8DEdU0hN9OvlngHdliXbvJUzoNz7NENHZbkW0Aj9QUDesvdzIFkyQtFzSzbNV7C0uYYVQAp+T8U5Nk2+NH/fp6clpfJZ4sMH);strokeColor=none;spacingTop=-3;spacingBottom=-3;spacingLeft=-3;spacingRight=-3;points=[];labelBackgroundColor=none;rounded=0;html=1;whiteSpace=wrap;" vertex="1" parent="GR6ykVju9A3iwefrX5M7-345">
          <mxGeometry x="17" y="32" width="33" height="45" as="geometry" />
        </mxCell>
        <mxCell id="GR6ykVju9A3iwefrX5M7-357" style="vsdxID=114;fillColor=#2d5967;gradientColor=none;shape=stencil(jZDdCoMwDIWfJrcSG5jbtXPvIVjXsK6V2v29vS1hTAdC785JvoTDAWpn008aFM4x+Jt+8RAN0BmUYmd04JgUUAfUjj7oa/APN4if+kxmdffP/OEtd5gvFH7W7iKgZbcLHuoKaR+ucYt/fRFMx+rUlAYpTrwBk/gVMrK10ud6/19gGkn51C0=);strokeColor=none;spacingTop=-3;spacingBottom=-3;spacingLeft=-3;spacingRight=-3;points=[];labelBackgroundColor=none;rounded=0;html=1;whiteSpace=wrap;" vertex="1" parent="GR6ykVju9A3iwefrX5M7-345">
          <mxGeometry x="23" y="44" width="6" height="7" as="geometry" />
        </mxCell>
        <mxCell id="GR6ykVju9A3iwefrX5M7-358" style="vsdxID=115;fillColor=#2d5967;gradientColor=none;shape=stencil(lZHNDsIgEISfhiuhLBU81/oeTUqFiNBQ/Ht7QdKoNRJ7G2bnIwuDoJlUN0pEyRS8O8qr7oNCsEOUaquk1yEqBC2CZnBeHrw72z6fxy4lkzq5S7rhljlRY84SRck9OxuOoXo6+wwYbYtARcjv+Dycw1uCCfwfrzlmpTjDAB9AYZXFIliINa9c/S1fQBSvFgZtTC7xfb5sLVq5cWgf);strokeColor=none;spacingTop=-3;spacingBottom=-3;spacingLeft=-3;spacingRight=-3;points=[];labelBackgroundColor=none;rounded=0;html=1;whiteSpace=wrap;" vertex="1" parent="GR6ykVju9A3iwefrX5M7-345">
          <mxGeometry x="26" y="29" width="30" height="21" as="geometry" />
        </mxCell>
        <mxCell id="GR6ykVju9A3iwefrX5M7-359" style="vsdxID=116;fillColor=#2d5967;gradientColor=none;shape=stencil(jZDRCoMwDEW/Jq9SE5j47Nx/CNY1rGuldnP7+7UEmdtD8e3e3JMQLlC3mGHWgGqJwd/0ymM0QGdAZGd04JgUUA/UTT7oa/APN4qfh0xmdffPfOEleypvoHqLq5X4i6CW3Q7dwg1uTlXTHscLl39BpAqPssWHi2gS304mtlYq3ef/HaaR9E/9Bw==);strokeColor=none;spacingTop=-3;spacingBottom=-3;spacingLeft=-3;spacingRight=-3;points=[];labelBackgroundColor=none;rounded=0;html=1;whiteSpace=wrap;" vertex="1" parent="GR6ykVju9A3iwefrX5M7-345">
          <mxGeometry x="52" y="64" width="4" height="9" as="geometry" />
        </mxCell>
        <mxCell id="GR6ykVju9A3iwefrX5M7-360" value="&lt;div&gt;Oracle Linux 8&lt;/div&gt;&lt;div&gt;Software Source 1&lt;br&gt;&lt;/div&gt;" style="verticalAlign=middle;align=center;vsdxID=118;fillColor=none;gradientColor=none;shape=stencil(nZBLDoAgDERP0z3SIyjew0SURgSD+Lu9kMZoXLhwN9O+tukAlrNpJg1SzDH4QW/URgNYgZTkjA4UkwJUgGXng+6DX1zLfmoymdXo17xh5zmRJ6Q42BWCfc2oJfdAr+Yv+AP9Cb7OJ3H/2JG1HNGz/84klThPVCc=);strokeColor=none;spacingTop=-3;spacingBottom=-3;spacingLeft=-3;spacingRight=-3;points=[];labelBackgroundColor=none;rounded=0;html=1;whiteSpace=wrap;" vertex="1" parent="1">
          <mxGeometry x="360" y="184" width="122" height="32" as="geometry" />
        </mxCell>
        <mxCell id="GR6ykVju9A3iwefrX5M7-361" style="vsdxID=102;fillColor=none;gradientColor=none;strokeColor=none;spacingTop=-3;spacingBottom=-3;spacingLeft=-3;spacingRight=-3;points=[];labelBackgroundColor=none;rounded=0;html=1;whiteSpace=wrap;" vertex="1" parent="1">
          <mxGeometry x="379.5" y="320" width="85" height="80" as="geometry" />
        </mxCell>
        <mxCell id="GR6ykVju9A3iwefrX5M7-362" style="vsdxID=103;fillColor=#FFFFFF;gradientColor=none;shape=stencil(pZbBchoxDIafhqvGtmxZOqfJe2QaUphSyBDShrev6K5trB08ZHpbhLWfvJJ+aYUP75vnt/UquPfT8fBz/Wf7ctqs8NsqhO1+sz5uT/q0wscVPrwejusfx8PH/mX6/fZ8OXl5+nX4fXnD5+TnGTBfvII7TxZGiPTP8jQ57Lb7oUNCELzt4L50GELqz6slX5///nGc4vfFIxWP2RITyBzhZ5iDBi4xz5aopjAfwtkE3s+HZgsyBD+CE6CBYwTyPVwghh6OHij3cI/gYk9XRxpeXX049nj1KR+w3j1Cwp4fGCgafgJHhp+BZchPQAafwUeDb9moeILABk/VseITIA3xBMKG70DI8KXksPJ9Bud7fggQpefrd/NDvgaYzf29BzTZ14ww9XyBnHq8Vo0pPT2DI/ilznIPV5cejQnCEm3ICRjH6L5DkSAWhztDzRAWkZoq0TOyCDWZItF2JLKxhmGOUJpazSYGMfDoaj0UOBcNbOqgQmMqNJfM3oBH7Wlzc+0y056RwLADiFUmaS1cqhMojdgptLarSommQBJVHShw15PpSpCxCu7w1rRUJQ8+9GTK7b312kl6eHa1cKpE8/DWGcEbQc5V1Qs7J0hGkL0DIwg515jPTaLnCrhFzy1N5eYRUAye25xpGunR8LnOp3OT6ByGfFnydUL1eHZFVhueIJvrs4dgK07ldjgMdXGoIRe8fhGDV+0Xg2dIRpWYW4qKQmuTDqeh1L2ljQMENL0uqv3LaRiN0ojy7S4Qi+7dGkfO9XRVDJt7kTr5zq3/s2l3oQVd29l3tdeLsqTaPPftWZpfx//nwBGc3HaIddSc++9z51b55TV04aAPbet93e5209J8/b/dktU0bdj4+Bc=);strokeColor=none;spacingTop=-3;spacingBottom=-3;spacingLeft=-3;spacingRight=-3;points=[];labelBackgroundColor=none;rounded=0;html=1;whiteSpace=wrap;" vertex="1" parent="GR6ykVju9A3iwefrX5M7-361">
          <mxGeometry x="1" width="83" height="78" as="geometry" />
        </mxCell>
        <mxCell id="GR6ykVju9A3iwefrX5M7-363" style="vsdxID=104;fillColor=#FFFFFF;gradientColor=none;shape=stencil(pVjbctw2DP2afcWQ4P05Tf4jkzj1Tl07s3Ha9d8HqkRQPFxx3cnbWgZ0BBA4B+DJffjx+Pn7w4nNj9fLy18P/56/vj6e3B8n5vPz48Pl/Cq/Tu7jyX349nJ5+PPy8vP56/r398+L5fLr75d/ljdcV78QqfDixeZtfcLk8n8PPq32X35eVge7/j8aSmXzsOoS1ydX3ow8bU/etieOwmbiNpNEub5nexQoxhl0smQBWl5ie+jkKIce2xoqPXgKFFIPbj2FaeApknE9um2vUfhIyQJ8JO8BP1FwgJ/I8hQ/a5oVX8IH+ELOAXwmTj18NuQCwGfyZQafmZIH+EIGws+BDITPhkwE/EQm9/hsa5IO8Iut1dHqztdvVvziqUDlcRniL3GI33mann5JlOD0vdFcK3zSjFR4H4ktwEupcQ8fLHHY4z+dn3dtWhyVir45SNOVY4elDvj3HOTAt7zddPCFUu4cJHjHxw5SBwBgKf0f+zsRcM3gu+297e1Nrd2DGpAOgAoIVKAA5aCwALg2duM+MkB9LlNKM+ysVVTBXSDPPbgVggTaZYrAfQvRAbihPCVe26AU3QykLzzH3MNL70XgfbHKvseX4NK0+YTnPPZ+ogLMb3eKUvEjMr/wHOZedCe7KXymCMmXczaYfGkIpB5TK1DxF54bqddO0y9gFqk3qG5XfAnDofJ4spB+yVuC+C3XKj7CL5prxWfl+WsrNUZ8i6rvRuoTo7nySKEbFD47ML/bSTqPVhV/bL0Bv6cJ8dCEvfeDE8U8fHAArZCWv/HBDqTKFfLD95ppuYouMZaLaTRQaQnPypAFbC+SC+CFwhRaxrxhQmPgiYU1fQ8u/JIBOw8TmgeJRPBFQ4GkdGKr2MGTAWweenQ/FDs16hiqr5H7U/S9qdtMA3OUQh+ZGdpP1CvCkRodRTWrSeugRWbmR+qbzmtaHRYTVwrbHamD3vemR9bZ/aiNylBMu1GW1cgA6Wet2mtT1wCkm6tWHIFDzEUpWJETYQ+Nk6awR11QWgtxx/YD3bhaoLftb9AjDubigmQTmoTwYLQj56Hf74AbVZgdODT8IrC5Bxe2yZCqZSCDpcC6OyWybCDItFGbZTeYJFgJpTcyDiZBP2k3GUx3EnHBpUAmDp32WK08wkfKA7rBsSjB/DrAy5YNjLeMRdAhYmUg+1L9HlYySbWOWLuxbIq/G3haOWSovDjQknPNSKldl49ai6kOCofDuIHYvfL/VQkwQuJ9O4uK3bY4FZpSi+NmizahbIsG88S+N/Y1azeNZYgt4fccsqv6f9uhtFsUdcgTdRMpTv2mVEpt1aPVMPYZssYcmy/KlfH9k/xn0/aM7Ymvp3rbwTZm0YjTZOYbHe4cQglt9n2vQ+5pPrhZzCWSv3MBMHRnI2LtkDi0Zz2Z1iFGBUjvK/KwMfoqHofXJcBLeaDF4tp9VuUl1qzoVVEe2lMKeH5VlOPADUuX9PB5R3hNJ4CVpdRQvsXIzi/KDOGyFJXbd/d0HvR4ERMY11Juwtl0Yj4FL9eEiN9GOMVP4y2pV17YX1Pi9iFlOpXkFBrpqk54UOTUriXeVCcMiEIsbe+rdVfffXQ5HdpMVoMfxpHY9oSqEz3wjfl/Rl/zYV5+tMv3b+enp/Xufv9/vKyXR+tFv/v4Cw==);strokeColor=none;spacingTop=-3;spacingBottom=-3;spacingLeft=-3;spacingRight=-3;points=[];labelBackgroundColor=none;rounded=0;html=1;whiteSpace=wrap;" vertex="1" parent="GR6ykVju9A3iwefrX5M7-361">
          <mxGeometry width="85" height="80" as="geometry" />
        </mxCell>
        <mxCell id="GR6ykVju9A3iwefrX5M7-364" style="vsdxID=105;fillColor=#2d5967;gradientColor=none;shape=stencil(nZjdchwnEIWfZm+7gOb32rHfwxXL0VYUySXLyebtc6Z2gOGQQYmrdLGLYL+h6T6nmYt++P74+dvDxZnvb68vvz/8df3y9njRXy7OXZ8fH16vb/h00Y8X/fD15fXht9eXH89f7t+/fd5mbp/+ePlz+4XbfV3OkuK2ypm/7yOaZfuKv0/3Bb/+eL2vsPuSKKHsS/YhDeL3oZvbZ3lx+6R9RFXCPnTTfZKVtE/aR9SJ5iXdSHREt1J0pKfSZ1W8HdkJOw8j3GFVWMFTkpxHuMvC7CQ2j2yHkGXCR9668xLtkh7EjnCLs6K4JycpjXTrJIeRHouUkY5o6AoekxiKe3veBo8qsRBcCrNNy4x9xEhZnnnosdpHzMgNKlZHrpHkR64vkkcuVi0z3UfxdNxBAu3ZI61HdBGfCG3F2pFtEb20hBvROMJtFBdGunZYi3gSTyFHTXvKti11Vnjtv3LItuIJH0UZX+rxNnoQdRO9xCUeOVEmfK2rW6+rSHgcfNSRj3MmPI4xLwsdm0hUa1AZk0Y8Iq2Udoh0pErHqXkqNp/ELUt9O2lKeaRvjWLjByGhCVZo85hj/UhHtZg13fd0qXnvW0AaXVukGz6KKcR3VVM7H1KyjH7p1VzVxzSxblpTi7fRY5wyryVsZUMe87LsbNONyoaXBGIb8XFkZ5woRd6IpZorYay5p+vzwYp3TdttuECh7flkHGt9qJ9eYMX58wW+GsLp/EmmxZFa5jBbRJeVGjrTTayZEYcO3rc7y2nOsDMn25OxO6Ehf4q9hm8HadYRH30t6/OCtaTWMMOJn7oUVL6RTEYFoauNUiuZLGbNR5JS3obQd9bF0VHiBtf0oeml6Q1eFaxcu4oTPurGkWB61zSs8RESFsw4uSUSKbJTu+q7Z3y0YbR/DHHdQsNZslzrLZpoeCnsF6n++pldwYgYn1oB3bo5eKKnKffh+4ZEC89o1r0C9kXZh/rNtHs/d0kOcsh8P7k1EkLfa5TYrjYH404pz92hToaxWRgZhrVVXM+Ux/e8anqg1CzAnDLh89QYh9Kfsar2O6UfnXCjZKYuMcKGSfc2Z6RWIR6art49rM0arTw7FsRAqVGDGFLhoxYTCd9mjnHEbyFa0dOhCThcx2j3yfe7Vq0F325ohysRd8moq/TejYxbdFRZpqOHhRva/qG9bq5j+tWpN+5maTtZRalP/Rfdy63f7PzD7anykxTmp3q1PbM9w3dC1A9fEuDcmXolmIOn5CsHce5XtTXd15agu15oItPwfiq8hA6Kkg+zpmYt1Oc+5/MtIdtJdzBr6jlwIY/T9pX4iJsfsn/skHD2LV9+coE15nw62sWi/2N6nDq8VKXhLH5lbtmS8C3HmDF4OBa+05fc4nlomfK6Y0tT6qpkzh1l3ULhTO3i4SVWv/E6dx6r//DaCx/6S7Ov16en+zu34//5JRuG7i/o9OM/);strokeColor=none;spacingTop=-3;spacingBottom=-3;spacingLeft=-3;spacingRight=-3;points=[];labelBackgroundColor=none;rounded=0;html=1;whiteSpace=wrap;" vertex="1" parent="GR6ykVju9A3iwefrX5M7-361">
          <mxGeometry x="2" y="1" width="81" height="40" as="geometry" />
        </mxCell>
        <mxCell id="GR6ykVju9A3iwefrX5M7-365" style="vsdxID=106;fillColor=#2d5967;gradientColor=none;shape=stencil(lZPbDsIgDIafhtumBwbs2sN7LHE64tzMnKe3d5MLZUYS7lr4/vYntEpWl6Y614rxMg79sb773dgoWStm3zX14McpUrJRstr3Q30Y+mu3C/m5msk5OvW3ucIj6HBWMD5D5sAU74NtYFvffbFEYCXiicHZ/wLWQGbRQP/HnQBFNJdQJPxYBKMjgWhATggM6LiDGMAyR6ARhBJPmBy7uEMBJod3FkhyHJUExuUICDHxx4jL6i41EgucLXDC/e9AJKzkjGaanYLP/O9924b1+b5f7st0FHZNNi8=);strokeColor=none;spacingTop=-3;spacingBottom=-3;spacingLeft=-3;spacingRight=-3;points=[];labelBackgroundColor=none;rounded=0;html=1;whiteSpace=wrap;" vertex="1" parent="GR6ykVju9A3iwefrX5M7-361">
          <mxGeometry x="34" y="23" width="33" height="46" as="geometry" />
        </mxCell>
        <mxCell id="GR6ykVju9A3iwefrX5M7-366" style="vsdxID=107;fillColor=#2d5967;gradientColor=none;shape=stencil(lZTbboMwDIafJrdWbDen6657j0qlIxqDirKtffuFZafAsODOOP+Hfh9kxftrfbxUivR16Lvn6j2ehlrxgyKKbV31cUiR4oPi/bnrq6e+e21P+ftyHJVj9NK9jX+4Zc4jWDtSpO9fmQA2fGYeM9DEVgTYA+IygFqXcoQdrZeTAxLkYQeEJWAA7TLgLHg7NWSEgtEB+wJADVoomBkoFMCPx3/1hECm0Otlcdkc9z2LNVoClvvCOClT8DEdU0hN9OvlngHdliXbvJUzoNz7NENHZbkW0Aj9QUDesvdzIFkyQtFzSzbNV7C0uYYVQAp+T8U5Nk2+NH/fp6clpfJZ4sMH);strokeColor=none;spacingTop=-3;spacingBottom=-3;spacingLeft=-3;spacingRight=-3;points=[];labelBackgroundColor=none;rounded=0;html=1;whiteSpace=wrap;" vertex="1" parent="GR6ykVju9A3iwefrX5M7-361">
          <mxGeometry x="17" y="32" width="33" height="45" as="geometry" />
        </mxCell>
        <mxCell id="GR6ykVju9A3iwefrX5M7-367" style="vsdxID=108;fillColor=#2d5967;gradientColor=none;shape=stencil(jZDdCoMwDIWfJrcSG5jbtXPvIVjXsK6V2v29vS1hTAdC785JvoTDAWpn008aFM4x+Jt+8RAN0BmUYmd04JgUUAfUjj7oa/APN4if+kxmdffP/OEtd5gvFH7W7iKgZbcLHuoKaR+ucYt/fRFMx+rUlAYpTrwBk/gVMrK10ud6/19gGkn51C0=);strokeColor=none;spacingTop=-3;spacingBottom=-3;spacingLeft=-3;spacingRight=-3;points=[];labelBackgroundColor=none;rounded=0;html=1;whiteSpace=wrap;" vertex="1" parent="GR6ykVju9A3iwefrX5M7-361">
          <mxGeometry x="23" y="44" width="6" height="7" as="geometry" />
        </mxCell>
        <mxCell id="GR6ykVju9A3iwefrX5M7-368" style="vsdxID=109;fillColor=#2d5967;gradientColor=none;shape=stencil(lZHNDsIgEISfhiuhLBU81/oeTUqFiNBQ/Ht7QdKoNRJ7G2bnIwuDoJlUN0pEyRS8O8qr7oNCsEOUaquk1yEqBC2CZnBeHrw72z6fxy4lkzq5S7rhljlRY84SRck9OxuOoXo6+wwYbYtARcjv+Dycw1uCCfwfrzlmpTjDAB9AYZXFIliINa9c/S1fQBSvFgZtTC7xfb5sLVq5cWgf);strokeColor=none;spacingTop=-3;spacingBottom=-3;spacingLeft=-3;spacingRight=-3;points=[];labelBackgroundColor=none;rounded=0;html=1;whiteSpace=wrap;" vertex="1" parent="GR6ykVju9A3iwefrX5M7-361">
          <mxGeometry x="26" y="29" width="30" height="21" as="geometry" />
        </mxCell>
        <mxCell id="GR6ykVju9A3iwefrX5M7-369" style="vsdxID=110;fillColor=#2d5967;gradientColor=none;shape=stencil(jZDRCoMwDEW/Jq9SE5j47Nx/CNY1rGuldnP7+7UEmdtD8e3e3JMQLlC3mGHWgGqJwd/0ymM0QGdAZGd04JgUUA/UTT7oa/APN4qfh0xmdffPfOEleypvoHqLq5X4i6CW3Q7dwg1uTlXTHscLl39BpAqPssWHi2gS304mtlYq3ef/HaaR9E/9Bw==);strokeColor=none;spacingTop=-3;spacingBottom=-3;spacingLeft=-3;spacingRight=-3;points=[];labelBackgroundColor=none;rounded=0;html=1;whiteSpace=wrap;" vertex="1" parent="GR6ykVju9A3iwefrX5M7-361">
          <mxGeometry x="52" y="64" width="4" height="9" as="geometry" />
        </mxCell>
        <mxCell id="GR6ykVju9A3iwefrX5M7-370" style="vsdxID=111;fillColor=#2d5967;gradientColor=none;shape=stencil(nZjdchwnEIWfZm+7gOb32rHfwxXL0VYUySXLyebtc6Z2gOGQQYmrdLGLYL+h6T6nmYt++P74+dvDxZnvb68vvz/8df3y9njRXy7OXZ8fH16vb/h00Y8X/fD15fXht9eXH89f7t+/fd5mbp/+ePlz+4XbfV3OkuK2ypm/7yOaZfuKv0/3Bb/+eL2vsPuSKKHsS/YhDeL3oZvbZ3lx+6R9RFXCPnTTfZKVtE/aR9SJ5iXdSHREt1J0pKfSZ1W8HdkJOw8j3GFVWMFTkpxHuMvC7CQ2j2yHkGXCR9668xLtkh7EjnCLs6K4JycpjXTrJIeRHouUkY5o6AoekxiKe3veBo8qsRBcCrNNy4x9xEhZnnnosdpHzMgNKlZHrpHkR64vkkcuVi0z3UfxdNxBAu3ZI61HdBGfCG3F2pFtEb20hBvROMJtFBdGunZYi3gSTyFHTXvKti11Vnjtv3LItuIJH0UZX+rxNnoQdRO9xCUeOVEmfK2rW6+rSHgcfNSRj3MmPI4xLwsdm0hUa1AZk0Y8Iq2Udoh0pErHqXkqNp/ELUt9O2lKeaRvjWLjByGhCVZo85hj/UhHtZg13fd0qXnvW0AaXVukGz6KKcR3VVM7H1KyjH7p1VzVxzSxblpTi7fRY5wyryVsZUMe87LsbNONyoaXBGIb8XFkZ5woRd6IpZorYay5p+vzwYp3TdttuECh7flkHGt9qJ9eYMX58wW+GsLp/EmmxZFa5jBbRJeVGjrTTayZEYcO3rc7y2nOsDMn25OxO6Ehf4q9hm8HadYRH30t6/OCtaTWMMOJn7oUVL6RTEYFoauNUiuZLGbNR5JS3obQd9bF0VHiBtf0oeml6Q1eFaxcu4oTPurGkWB61zSs8RESFsw4uSUSKbJTu+q7Z3y0YbR/DHHdQsNZslzrLZpoeCnsF6n++pldwYgYn1oB3bo5eKKnKffh+4ZEC89o1r0C9kXZh/rNtHs/d0kOcsh8P7k1EkLfa5TYrjYH404pz92hToaxWRgZhrVVXM+Ux/e8anqg1CzAnDLh89QYh9Kfsar2O6UfnXCjZKYuMcKGSfc2Z6RWIR6art49rM0arTw7FsRAqVGDGFLhoxYTCd9mjnHEbyFa0dOhCThcx2j3yfe7Vq0F325ohysRd8moq/TejYxbdFRZpqOHhRva/qG9bq5j+tWpN+5maTtZRalP/Rfdy63f7PzD7anykxTmp3q1PbM9w3dC1A9fEuDcmXolmIOn5CsHce5XtTXd15agu15oItPwfiq8hA6Kkg+zpmYt1Oc+5/MtIdtJdzBr6jlwIY/T9pX4iJsfsn/skHD2LV9+coE15nw62sWi/2N6nDq8VKXhLH5lbtmS8C3HmDF4OBa+05fc4nlomfK6Y0tT6qpkzh1l3ULhTO3i4SVWv/E6dx6r//DaCx/6S7Ov16en+zu34//5JRuG7i/o9OM/);strokeColor=none;spacingTop=-3;spacingBottom=-3;spacingLeft=-3;spacingRight=-3;points=[];labelBackgroundColor=none;rounded=0;html=1;whiteSpace=wrap;" vertex="1" parent="GR6ykVju9A3iwefrX5M7-361">
          <mxGeometry x="2" y="1" width="81" height="40" as="geometry" />
        </mxCell>
        <mxCell id="GR6ykVju9A3iwefrX5M7-371" style="vsdxID=112;fillColor=#2d5967;gradientColor=none;shape=stencil(lZPbDsIgDIafhtumBwbs2sN7LHE64tzMnKe3d5MLZUYS7lr4/vYntEpWl6Y614rxMg79sb773dgoWStm3zX14McpUrJRstr3Q30Y+mu3C/m5msk5OvW3ucIj6HBWMD5D5sAU74NtYFvffbFEYCXiicHZ/wLWQGbRQP/HnQBFNJdQJPxYBKMjgWhATggM6LiDGMAyR6ARhBJPmBy7uEMBJod3FkhyHJUExuUICDHxx4jL6i41EgucLXDC/e9AJKzkjGaanYLP/O9924b1+b5f7st0FHZNNi8=);strokeColor=none;spacingTop=-3;spacingBottom=-3;spacingLeft=-3;spacingRight=-3;points=[];labelBackgroundColor=none;rounded=0;html=1;whiteSpace=wrap;" vertex="1" parent="GR6ykVju9A3iwefrX5M7-361">
          <mxGeometry x="34" y="23" width="33" height="46" as="geometry" />
        </mxCell>
        <mxCell id="GR6ykVju9A3iwefrX5M7-372" style="vsdxID=113;fillColor=#2d5967;gradientColor=none;shape=stencil(lZTbboMwDIafJrdWbDen6657j0qlIxqDirKtffuFZafAsODOOP+Hfh9kxftrfbxUivR16Lvn6j2ehlrxgyKKbV31cUiR4oPi/bnrq6e+e21P+ftyHJVj9NK9jX+4Zc4jWDtSpO9fmQA2fGYeM9DEVgTYA+IygFqXcoQdrZeTAxLkYQeEJWAA7TLgLHg7NWSEgtEB+wJADVoomBkoFMCPx3/1hECm0Otlcdkc9z2LNVoClvvCOClT8DEdU0hN9OvlngHdliXbvJUzoNz7NENHZbkW0Aj9QUDesvdzIFkyQtFzSzbNV7C0uYYVQAp+T8U5Nk2+NH/fp6clpfJZ4sMH);strokeColor=none;spacingTop=-3;spacingBottom=-3;spacingLeft=-3;spacingRight=-3;points=[];labelBackgroundColor=none;rounded=0;html=1;whiteSpace=wrap;" vertex="1" parent="GR6ykVju9A3iwefrX5M7-361">
          <mxGeometry x="17" y="32" width="33" height="45" as="geometry" />
        </mxCell>
        <mxCell id="GR6ykVju9A3iwefrX5M7-373" style="vsdxID=114;fillColor=#2d5967;gradientColor=none;shape=stencil(jZDdCoMwDIWfJrcSG5jbtXPvIVjXsK6V2v29vS1hTAdC785JvoTDAWpn008aFM4x+Jt+8RAN0BmUYmd04JgUUAfUjj7oa/APN4if+kxmdffP/OEtd5gvFH7W7iKgZbcLHuoKaR+ucYt/fRFMx+rUlAYpTrwBk/gVMrK10ud6/19gGkn51C0=);strokeColor=none;spacingTop=-3;spacingBottom=-3;spacingLeft=-3;spacingRight=-3;points=[];labelBackgroundColor=none;rounded=0;html=1;whiteSpace=wrap;" vertex="1" parent="GR6ykVju9A3iwefrX5M7-361">
          <mxGeometry x="23" y="44" width="6" height="7" as="geometry" />
        </mxCell>
        <mxCell id="GR6ykVju9A3iwefrX5M7-374" style="vsdxID=115;fillColor=#2d5967;gradientColor=none;shape=stencil(lZHNDsIgEISfhiuhLBU81/oeTUqFiNBQ/Ht7QdKoNRJ7G2bnIwuDoJlUN0pEyRS8O8qr7oNCsEOUaquk1yEqBC2CZnBeHrw72z6fxy4lkzq5S7rhljlRY84SRck9OxuOoXo6+wwYbYtARcjv+Dycw1uCCfwfrzlmpTjDAB9AYZXFIliINa9c/S1fQBSvFgZtTC7xfb5sLVq5cWgf);strokeColor=none;spacingTop=-3;spacingBottom=-3;spacingLeft=-3;spacingRight=-3;points=[];labelBackgroundColor=none;rounded=0;html=1;whiteSpace=wrap;" vertex="1" parent="GR6ykVju9A3iwefrX5M7-361">
          <mxGeometry x="26" y="29" width="30" height="21" as="geometry" />
        </mxCell>
        <mxCell id="GR6ykVju9A3iwefrX5M7-375" style="vsdxID=116;fillColor=#2d5967;gradientColor=none;shape=stencil(jZDRCoMwDEW/Jq9SE5j47Nx/CNY1rGuldnP7+7UEmdtD8e3e3JMQLlC3mGHWgGqJwd/0ymM0QGdAZGd04JgUUA/UTT7oa/APN4qfh0xmdffPfOEleypvoHqLq5X4i6CW3Q7dwg1uTlXTHscLl39BpAqPssWHi2gS304mtlYq3ef/HaaR9E/9Bw==);strokeColor=none;spacingTop=-3;spacingBottom=-3;spacingLeft=-3;spacingRight=-3;points=[];labelBackgroundColor=none;rounded=0;html=1;whiteSpace=wrap;" vertex="1" parent="GR6ykVju9A3iwefrX5M7-361">
          <mxGeometry x="52" y="64" width="4" height="9" as="geometry" />
        </mxCell>
        <mxCell id="GR6ykVju9A3iwefrX5M7-376" value="&lt;div&gt;Oracle Linux 8&lt;/div&gt;&lt;div&gt;Software Source 2&lt;/div&gt;" style="verticalAlign=middle;align=center;vsdxID=118;fillColor=none;gradientColor=none;shape=stencil(nZBLDoAgDERP0z3SIyjew0SURgSD+Lu9kMZoXLhwN9O+tukAlrNpJg1SzDH4QW/URgNYgZTkjA4UkwJUgGXng+6DX1zLfmoymdXo17xh5zmRJ6Q42BWCfc2oJfdAr+Yv+AP9Cb7OJ3H/2JG1HNGz/84klThPVCc=);strokeColor=none;spacingTop=-3;spacingBottom=-3;spacingLeft=-3;spacingRight=-3;points=[];labelBackgroundColor=none;rounded=0;html=1;whiteSpace=wrap;" vertex="1" parent="1">
          <mxGeometry x="360.5" y="404" width="122" height="32" as="geometry" />
        </mxCell>
        <mxCell id="GR6ykVju9A3iwefrX5M7-377" style="vsdxID=102;fillColor=none;gradientColor=none;strokeColor=none;spacingTop=-3;spacingBottom=-3;spacingLeft=-3;spacingRight=-3;points=[];labelBackgroundColor=none;rounded=0;html=1;whiteSpace=wrap;" vertex="1" parent="1">
          <mxGeometry x="383" y="560" width="85" height="80" as="geometry" />
        </mxCell>
        <mxCell id="GR6ykVju9A3iwefrX5M7-378" style="vsdxID=103;fillColor=#FFFFFF;gradientColor=none;shape=stencil(pZbBchoxDIafhqvGtmxZOqfJe2QaUphSyBDShrev6K5trB08ZHpbhLWfvJJ+aYUP75vnt/UquPfT8fBz/Wf7ctqs8NsqhO1+sz5uT/q0wscVPrwejusfx8PH/mX6/fZ8OXl5+nX4fXnD5+TnGTBfvII7TxZGiPTP8jQ57Lb7oUNCELzt4L50GELqz6slX5///nGc4vfFIxWP2RITyBzhZ5iDBi4xz5aopjAfwtkE3s+HZgsyBD+CE6CBYwTyPVwghh6OHij3cI/gYk9XRxpeXX049nj1KR+w3j1Cwp4fGCgafgJHhp+BZchPQAafwUeDb9moeILABk/VseITIA3xBMKG70DI8KXksPJ9Bud7fggQpefrd/NDvgaYzf29BzTZ14ww9XyBnHq8Vo0pPT2DI/ilznIPV5cejQnCEm3ICRjH6L5DkSAWhztDzRAWkZoq0TOyCDWZItF2JLKxhmGOUJpazSYGMfDoaj0UOBcNbOqgQmMqNJfM3oBH7Wlzc+0y056RwLADiFUmaS1cqhMojdgptLarSommQBJVHShw15PpSpCxCu7w1rRUJQ8+9GTK7b312kl6eHa1cKpE8/DWGcEbQc5V1Qs7J0hGkL0DIwg515jPTaLnCrhFzy1N5eYRUAye25xpGunR8LnOp3OT6ByGfFnydUL1eHZFVhueIJvrs4dgK07ldjgMdXGoIRe8fhGDV+0Xg2dIRpWYW4qKQmuTDqeh1L2ljQMENL0uqv3LaRiN0ojy7S4Qi+7dGkfO9XRVDJt7kTr5zq3/s2l3oQVd29l3tdeLsqTaPPftWZpfx//nwBGc3HaIddSc++9z51b55TV04aAPbet93e5209J8/b/dktU0bdj4+Bc=);strokeColor=none;spacingTop=-3;spacingBottom=-3;spacingLeft=-3;spacingRight=-3;points=[];labelBackgroundColor=none;rounded=0;html=1;whiteSpace=wrap;" vertex="1" parent="GR6ykVju9A3iwefrX5M7-377">
          <mxGeometry x="1" width="83" height="78" as="geometry" />
        </mxCell>
        <mxCell id="GR6ykVju9A3iwefrX5M7-379" style="vsdxID=104;fillColor=#FFFFFF;gradientColor=none;shape=stencil(pVjbctw2DP2afcWQ4P05Tf4jkzj1Tl07s3Ha9d8HqkRQPFxx3cnbWgZ0BBA4B+DJffjx+Pn7w4nNj9fLy18P/56/vj6e3B8n5vPz48Pl/Cq/Tu7jyX349nJ5+PPy8vP56/r398+L5fLr75d/ljdcV78QqfDixeZtfcLk8n8PPq32X35eVge7/j8aSmXzsOoS1ydX3ow8bU/etieOwmbiNpNEub5nexQoxhl0smQBWl5ie+jkKIce2xoqPXgKFFIPbj2FaeApknE9um2vUfhIyQJ8JO8BP1FwgJ/I8hQ/a5oVX8IH+ELOAXwmTj18NuQCwGfyZQafmZIH+EIGws+BDITPhkwE/EQm9/hsa5IO8Iut1dHqztdvVvziqUDlcRniL3GI33mann5JlOD0vdFcK3zSjFR4H4ktwEupcQ8fLHHY4z+dn3dtWhyVir45SNOVY4elDvj3HOTAt7zddPCFUu4cJHjHxw5SBwBgKf0f+zsRcM3gu+297e1Nrd2DGpAOgAoIVKAA5aCwALg2duM+MkB9LlNKM+ysVVTBXSDPPbgVggTaZYrAfQvRAbihPCVe26AU3QykLzzH3MNL70XgfbHKvseX4NK0+YTnPPZ+ogLMb3eKUvEjMr/wHOZedCe7KXymCMmXczaYfGkIpB5TK1DxF54bqddO0y9gFqk3qG5XfAnDofJ4spB+yVuC+C3XKj7CL5prxWfl+WsrNUZ8i6rvRuoTo7nySKEbFD47ML/bSTqPVhV/bL0Bv6cJ8dCEvfeDE8U8fHAArZCWv/HBDqTKFfLD95ppuYouMZaLaTRQaQnPypAFbC+SC+CFwhRaxrxhQmPgiYU1fQ8u/JIBOw8TmgeJRPBFQ4GkdGKr2MGTAWweenQ/FDs16hiqr5H7U/S9qdtMA3OUQh+ZGdpP1CvCkRodRTWrSeugRWbmR+qbzmtaHRYTVwrbHamD3vemR9bZ/aiNylBMu1GW1cgA6Wet2mtT1wCkm6tWHIFDzEUpWJETYQ+Nk6awR11QWgtxx/YD3bhaoLftb9AjDubigmQTmoTwYLQj56Hf74AbVZgdODT8IrC5Bxe2yZCqZSCDpcC6OyWybCDItFGbZTeYJFgJpTcyDiZBP2k3GUx3EnHBpUAmDp32WK08wkfKA7rBsSjB/DrAy5YNjLeMRdAhYmUg+1L9HlYySbWOWLuxbIq/G3haOWSovDjQknPNSKldl49ai6kOCofDuIHYvfL/VQkwQuJ9O4uK3bY4FZpSi+NmizahbIsG88S+N/Y1azeNZYgt4fccsqv6f9uhtFsUdcgTdRMpTv2mVEpt1aPVMPYZssYcmy/KlfH9k/xn0/aM7Ymvp3rbwTZm0YjTZOYbHe4cQglt9n2vQ+5pPrhZzCWSv3MBMHRnI2LtkDi0Zz2Z1iFGBUjvK/KwMfoqHofXJcBLeaDF4tp9VuUl1qzoVVEe2lMKeH5VlOPADUuX9PB5R3hNJ4CVpdRQvsXIzi/KDOGyFJXbd/d0HvR4ERMY11Juwtl0Yj4FL9eEiN9GOMVP4y2pV17YX1Pi9iFlOpXkFBrpqk54UOTUriXeVCcMiEIsbe+rdVfffXQ5HdpMVoMfxpHY9oSqEz3wjfl/Rl/zYV5+tMv3b+enp/Xufv9/vKyXR+tFv/v4Cw==);strokeColor=none;spacingTop=-3;spacingBottom=-3;spacingLeft=-3;spacingRight=-3;points=[];labelBackgroundColor=none;rounded=0;html=1;whiteSpace=wrap;" vertex="1" parent="GR6ykVju9A3iwefrX5M7-377">
          <mxGeometry width="85" height="80" as="geometry" />
        </mxCell>
        <mxCell id="GR6ykVju9A3iwefrX5M7-380" style="vsdxID=105;fillColor=#2d5967;gradientColor=none;shape=stencil(nZjdchwnEIWfZm+7gOb32rHfwxXL0VYUySXLyebtc6Z2gOGQQYmrdLGLYL+h6T6nmYt++P74+dvDxZnvb68vvz/8df3y9njRXy7OXZ8fH16vb/h00Y8X/fD15fXht9eXH89f7t+/fd5mbp/+ePlz+4XbfV3OkuK2ypm/7yOaZfuKv0/3Bb/+eL2vsPuSKKHsS/YhDeL3oZvbZ3lx+6R9RFXCPnTTfZKVtE/aR9SJ5iXdSHREt1J0pKfSZ1W8HdkJOw8j3GFVWMFTkpxHuMvC7CQ2j2yHkGXCR9668xLtkh7EjnCLs6K4JycpjXTrJIeRHouUkY5o6AoekxiKe3veBo8qsRBcCrNNy4x9xEhZnnnosdpHzMgNKlZHrpHkR64vkkcuVi0z3UfxdNxBAu3ZI61HdBGfCG3F2pFtEb20hBvROMJtFBdGunZYi3gSTyFHTXvKti11Vnjtv3LItuIJH0UZX+rxNnoQdRO9xCUeOVEmfK2rW6+rSHgcfNSRj3MmPI4xLwsdm0hUa1AZk0Y8Iq2Udoh0pErHqXkqNp/ELUt9O2lKeaRvjWLjByGhCVZo85hj/UhHtZg13fd0qXnvW0AaXVukGz6KKcR3VVM7H1KyjH7p1VzVxzSxblpTi7fRY5wyryVsZUMe87LsbNONyoaXBGIb8XFkZ5woRd6IpZorYay5p+vzwYp3TdttuECh7flkHGt9qJ9eYMX58wW+GsLp/EmmxZFa5jBbRJeVGjrTTayZEYcO3rc7y2nOsDMn25OxO6Ehf4q9hm8HadYRH30t6/OCtaTWMMOJn7oUVL6RTEYFoauNUiuZLGbNR5JS3obQd9bF0VHiBtf0oeml6Q1eFaxcu4oTPurGkWB61zSs8RESFsw4uSUSKbJTu+q7Z3y0YbR/DHHdQsNZslzrLZpoeCnsF6n++pldwYgYn1oB3bo5eKKnKffh+4ZEC89o1r0C9kXZh/rNtHs/d0kOcsh8P7k1EkLfa5TYrjYH404pz92hToaxWRgZhrVVXM+Ux/e8anqg1CzAnDLh89QYh9Kfsar2O6UfnXCjZKYuMcKGSfc2Z6RWIR6art49rM0arTw7FsRAqVGDGFLhoxYTCd9mjnHEbyFa0dOhCThcx2j3yfe7Vq0F325ohysRd8moq/TejYxbdFRZpqOHhRva/qG9bq5j+tWpN+5maTtZRalP/Rfdy63f7PzD7anykxTmp3q1PbM9w3dC1A9fEuDcmXolmIOn5CsHce5XtTXd15agu15oItPwfiq8hA6Kkg+zpmYt1Oc+5/MtIdtJdzBr6jlwIY/T9pX4iJsfsn/skHD2LV9+coE15nw62sWi/2N6nDq8VKXhLH5lbtmS8C3HmDF4OBa+05fc4nlomfK6Y0tT6qpkzh1l3ULhTO3i4SVWv/E6dx6r//DaCx/6S7Ov16en+zu34//5JRuG7i/o9OM/);strokeColor=none;spacingTop=-3;spacingBottom=-3;spacingLeft=-3;spacingRight=-3;points=[];labelBackgroundColor=none;rounded=0;html=1;whiteSpace=wrap;" vertex="1" parent="GR6ykVju9A3iwefrX5M7-377">
          <mxGeometry x="2" y="1" width="81" height="40" as="geometry" />
        </mxCell>
        <mxCell id="GR6ykVju9A3iwefrX5M7-381" style="vsdxID=106;fillColor=#2d5967;gradientColor=none;shape=stencil(lZPbDsIgDIafhtumBwbs2sN7LHE64tzMnKe3d5MLZUYS7lr4/vYntEpWl6Y614rxMg79sb773dgoWStm3zX14McpUrJRstr3Q30Y+mu3C/m5msk5OvW3ucIj6HBWMD5D5sAU74NtYFvffbFEYCXiicHZ/wLWQGbRQP/HnQBFNJdQJPxYBKMjgWhATggM6LiDGMAyR6ARhBJPmBy7uEMBJod3FkhyHJUExuUICDHxx4jL6i41EgucLXDC/e9AJKzkjGaanYLP/O9924b1+b5f7st0FHZNNi8=);strokeColor=none;spacingTop=-3;spacingBottom=-3;spacingLeft=-3;spacingRight=-3;points=[];labelBackgroundColor=none;rounded=0;html=1;whiteSpace=wrap;" vertex="1" parent="GR6ykVju9A3iwefrX5M7-377">
          <mxGeometry x="34" y="23" width="33" height="46" as="geometry" />
        </mxCell>
        <mxCell id="GR6ykVju9A3iwefrX5M7-382" style="vsdxID=107;fillColor=#2d5967;gradientColor=none;shape=stencil(lZTbboMwDIafJrdWbDen6657j0qlIxqDirKtffuFZafAsODOOP+Hfh9kxftrfbxUivR16Lvn6j2ehlrxgyKKbV31cUiR4oPi/bnrq6e+e21P+ftyHJVj9NK9jX+4Zc4jWDtSpO9fmQA2fGYeM9DEVgTYA+IygFqXcoQdrZeTAxLkYQeEJWAA7TLgLHg7NWSEgtEB+wJADVoomBkoFMCPx3/1hECm0Otlcdkc9z2LNVoClvvCOClT8DEdU0hN9OvlngHdliXbvJUzoNz7NENHZbkW0Aj9QUDesvdzIFkyQtFzSzbNV7C0uYYVQAp+T8U5Nk2+NH/fp6clpfJZ4sMH);strokeColor=none;spacingTop=-3;spacingBottom=-3;spacingLeft=-3;spacingRight=-3;points=[];labelBackgroundColor=none;rounded=0;html=1;whiteSpace=wrap;" vertex="1" parent="GR6ykVju9A3iwefrX5M7-377">
          <mxGeometry x="17" y="32" width="33" height="45" as="geometry" />
        </mxCell>
        <mxCell id="GR6ykVju9A3iwefrX5M7-383" style="vsdxID=108;fillColor=#2d5967;gradientColor=none;shape=stencil(jZDdCoMwDIWfJrcSG5jbtXPvIVjXsK6V2v29vS1hTAdC785JvoTDAWpn008aFM4x+Jt+8RAN0BmUYmd04JgUUAfUjj7oa/APN4if+kxmdffP/OEtd5gvFH7W7iKgZbcLHuoKaR+ucYt/fRFMx+rUlAYpTrwBk/gVMrK10ud6/19gGkn51C0=);strokeColor=none;spacingTop=-3;spacingBottom=-3;spacingLeft=-3;spacingRight=-3;points=[];labelBackgroundColor=none;rounded=0;html=1;whiteSpace=wrap;" vertex="1" parent="GR6ykVju9A3iwefrX5M7-377">
          <mxGeometry x="23" y="44" width="6" height="7" as="geometry" />
        </mxCell>
        <mxCell id="GR6ykVju9A3iwefrX5M7-384" style="vsdxID=109;fillColor=#2d5967;gradientColor=none;shape=stencil(lZHNDsIgEISfhiuhLBU81/oeTUqFiNBQ/Ht7QdKoNRJ7G2bnIwuDoJlUN0pEyRS8O8qr7oNCsEOUaquk1yEqBC2CZnBeHrw72z6fxy4lkzq5S7rhljlRY84SRck9OxuOoXo6+wwYbYtARcjv+Dycw1uCCfwfrzlmpTjDAB9AYZXFIliINa9c/S1fQBSvFgZtTC7xfb5sLVq5cWgf);strokeColor=none;spacingTop=-3;spacingBottom=-3;spacingLeft=-3;spacingRight=-3;points=[];labelBackgroundColor=none;rounded=0;html=1;whiteSpace=wrap;" vertex="1" parent="GR6ykVju9A3iwefrX5M7-377">
          <mxGeometry x="26" y="29" width="30" height="21" as="geometry" />
        </mxCell>
        <mxCell id="GR6ykVju9A3iwefrX5M7-385" style="vsdxID=110;fillColor=#2d5967;gradientColor=none;shape=stencil(jZDRCoMwDEW/Jq9SE5j47Nx/CNY1rGuldnP7+7UEmdtD8e3e3JMQLlC3mGHWgGqJwd/0ymM0QGdAZGd04JgUUA/UTT7oa/APN4qfh0xmdffPfOEleypvoHqLq5X4i6CW3Q7dwg1uTlXTHscLl39BpAqPssWHi2gS304mtlYq3ef/HaaR9E/9Bw==);strokeColor=none;spacingTop=-3;spacingBottom=-3;spacingLeft=-3;spacingRight=-3;points=[];labelBackgroundColor=none;rounded=0;html=1;whiteSpace=wrap;" vertex="1" parent="GR6ykVju9A3iwefrX5M7-377">
          <mxGeometry x="52" y="64" width="4" height="9" as="geometry" />
        </mxCell>
        <mxCell id="GR6ykVju9A3iwefrX5M7-386" style="vsdxID=111;fillColor=#2d5967;gradientColor=none;shape=stencil(nZjdchwnEIWfZm+7gOb32rHfwxXL0VYUySXLyebtc6Z2gOGQQYmrdLGLYL+h6T6nmYt++P74+dvDxZnvb68vvz/8df3y9njRXy7OXZ8fH16vb/h00Y8X/fD15fXht9eXH89f7t+/fd5mbp/+ePlz+4XbfV3OkuK2ypm/7yOaZfuKv0/3Bb/+eL2vsPuSKKHsS/YhDeL3oZvbZ3lx+6R9RFXCPnTTfZKVtE/aR9SJ5iXdSHREt1J0pKfSZ1W8HdkJOw8j3GFVWMFTkpxHuMvC7CQ2j2yHkGXCR9668xLtkh7EjnCLs6K4JycpjXTrJIeRHouUkY5o6AoekxiKe3veBo8qsRBcCrNNy4x9xEhZnnnosdpHzMgNKlZHrpHkR64vkkcuVi0z3UfxdNxBAu3ZI61HdBGfCG3F2pFtEb20hBvROMJtFBdGunZYi3gSTyFHTXvKti11Vnjtv3LItuIJH0UZX+rxNnoQdRO9xCUeOVEmfK2rW6+rSHgcfNSRj3MmPI4xLwsdm0hUa1AZk0Y8Iq2Udoh0pErHqXkqNp/ELUt9O2lKeaRvjWLjByGhCVZo85hj/UhHtZg13fd0qXnvW0AaXVukGz6KKcR3VVM7H1KyjH7p1VzVxzSxblpTi7fRY5wyryVsZUMe87LsbNONyoaXBGIb8XFkZ5woRd6IpZorYay5p+vzwYp3TdttuECh7flkHGt9qJ9eYMX58wW+GsLp/EmmxZFa5jBbRJeVGjrTTayZEYcO3rc7y2nOsDMn25OxO6Ehf4q9hm8HadYRH30t6/OCtaTWMMOJn7oUVL6RTEYFoauNUiuZLGbNR5JS3obQd9bF0VHiBtf0oeml6Q1eFaxcu4oTPurGkWB61zSs8RESFsw4uSUSKbJTu+q7Z3y0YbR/DHHdQsNZslzrLZpoeCnsF6n++pldwYgYn1oB3bo5eKKnKffh+4ZEC89o1r0C9kXZh/rNtHs/d0kOcsh8P7k1EkLfa5TYrjYH404pz92hToaxWRgZhrVVXM+Ux/e8anqg1CzAnDLh89QYh9Kfsar2O6UfnXCjZKYuMcKGSfc2Z6RWIR6art49rM0arTw7FsRAqVGDGFLhoxYTCd9mjnHEbyFa0dOhCThcx2j3yfe7Vq0F325ohysRd8moq/TejYxbdFRZpqOHhRva/qG9bq5j+tWpN+5maTtZRalP/Rfdy63f7PzD7anykxTmp3q1PbM9w3dC1A9fEuDcmXolmIOn5CsHce5XtTXd15agu15oItPwfiq8hA6Kkg+zpmYt1Oc+5/MtIdtJdzBr6jlwIY/T9pX4iJsfsn/skHD2LV9+coE15nw62sWi/2N6nDq8VKXhLH5lbtmS8C3HmDF4OBa+05fc4nlomfK6Y0tT6qpkzh1l3ULhTO3i4SVWv/E6dx6r//DaCx/6S7Ov16en+zu34//5JRuG7i/o9OM/);strokeColor=none;spacingTop=-3;spacingBottom=-3;spacingLeft=-3;spacingRight=-3;points=[];labelBackgroundColor=none;rounded=0;html=1;whiteSpace=wrap;" vertex="1" parent="GR6ykVju9A3iwefrX5M7-377">
          <mxGeometry x="2" y="1" width="81" height="40" as="geometry" />
        </mxCell>
        <mxCell id="GR6ykVju9A3iwefrX5M7-387" style="vsdxID=112;fillColor=#2d5967;gradientColor=none;shape=stencil(lZPbDsIgDIafhtumBwbs2sN7LHE64tzMnKe3d5MLZUYS7lr4/vYntEpWl6Y614rxMg79sb773dgoWStm3zX14McpUrJRstr3Q30Y+mu3C/m5msk5OvW3ucIj6HBWMD5D5sAU74NtYFvffbFEYCXiicHZ/wLWQGbRQP/HnQBFNJdQJPxYBKMjgWhATggM6LiDGMAyR6ARhBJPmBy7uEMBJod3FkhyHJUExuUICDHxx4jL6i41EgucLXDC/e9AJKzkjGaanYLP/O9924b1+b5f7st0FHZNNi8=);strokeColor=none;spacingTop=-3;spacingBottom=-3;spacingLeft=-3;spacingRight=-3;points=[];labelBackgroundColor=none;rounded=0;html=1;whiteSpace=wrap;" vertex="1" parent="GR6ykVju9A3iwefrX5M7-377">
          <mxGeometry x="34" y="23" width="33" height="46" as="geometry" />
        </mxCell>
        <mxCell id="GR6ykVju9A3iwefrX5M7-388" style="vsdxID=113;fillColor=#2d5967;gradientColor=none;shape=stencil(lZTbboMwDIafJrdWbDen6657j0qlIxqDirKtffuFZafAsODOOP+Hfh9kxftrfbxUivR16Lvn6j2ehlrxgyKKbV31cUiR4oPi/bnrq6e+e21P+ftyHJVj9NK9jX+4Zc4jWDtSpO9fmQA2fGYeM9DEVgTYA+IygFqXcoQdrZeTAxLkYQeEJWAA7TLgLHg7NWSEgtEB+wJADVoomBkoFMCPx3/1hECm0Otlcdkc9z2LNVoClvvCOClT8DEdU0hN9OvlngHdliXbvJUzoNz7NENHZbkW0Aj9QUDesvdzIFkyQtFzSzbNV7C0uYYVQAp+T8U5Nk2+NH/fp6clpfJZ4sMH);strokeColor=none;spacingTop=-3;spacingBottom=-3;spacingLeft=-3;spacingRight=-3;points=[];labelBackgroundColor=none;rounded=0;html=1;whiteSpace=wrap;" vertex="1" parent="GR6ykVju9A3iwefrX5M7-377">
          <mxGeometry x="17" y="32" width="33" height="45" as="geometry" />
        </mxCell>
        <mxCell id="GR6ykVju9A3iwefrX5M7-389" style="vsdxID=114;fillColor=#2d5967;gradientColor=none;shape=stencil(jZDdCoMwDIWfJrcSG5jbtXPvIVjXsK6V2v29vS1hTAdC785JvoTDAWpn008aFM4x+Jt+8RAN0BmUYmd04JgUUAfUjj7oa/APN4if+kxmdffP/OEtd5gvFH7W7iKgZbcLHuoKaR+ucYt/fRFMx+rUlAYpTrwBk/gVMrK10ud6/19gGkn51C0=);strokeColor=none;spacingTop=-3;spacingBottom=-3;spacingLeft=-3;spacingRight=-3;points=[];labelBackgroundColor=none;rounded=0;html=1;whiteSpace=wrap;" vertex="1" parent="GR6ykVju9A3iwefrX5M7-377">
          <mxGeometry x="23" y="44" width="6" height="7" as="geometry" />
        </mxCell>
        <mxCell id="GR6ykVju9A3iwefrX5M7-390" style="vsdxID=115;fillColor=#2d5967;gradientColor=none;shape=stencil(lZHNDsIgEISfhiuhLBU81/oeTUqFiNBQ/Ht7QdKoNRJ7G2bnIwuDoJlUN0pEyRS8O8qr7oNCsEOUaquk1yEqBC2CZnBeHrw72z6fxy4lkzq5S7rhljlRY84SRck9OxuOoXo6+wwYbYtARcjv+Dycw1uCCfwfrzlmpTjDAB9AYZXFIliINa9c/S1fQBSvFgZtTC7xfb5sLVq5cWgf);strokeColor=none;spacingTop=-3;spacingBottom=-3;spacingLeft=-3;spacingRight=-3;points=[];labelBackgroundColor=none;rounded=0;html=1;whiteSpace=wrap;" vertex="1" parent="GR6ykVju9A3iwefrX5M7-377">
          <mxGeometry x="26" y="29" width="30" height="21" as="geometry" />
        </mxCell>
        <mxCell id="GR6ykVju9A3iwefrX5M7-391" style="vsdxID=116;fillColor=#2d5967;gradientColor=none;shape=stencil(jZDRCoMwDEW/Jq9SE5j47Nx/CNY1rGuldnP7+7UEmdtD8e3e3JMQLlC3mGHWgGqJwd/0ymM0QGdAZGd04JgUUA/UTT7oa/APN4qfh0xmdffPfOEleypvoHqLq5X4i6CW3Q7dwg1uTlXTHscLl39BpAqPssWHi2gS304mtlYq3ef/HaaR9E/9Bw==);strokeColor=none;spacingTop=-3;spacingBottom=-3;spacingLeft=-3;spacingRight=-3;points=[];labelBackgroundColor=none;rounded=0;html=1;whiteSpace=wrap;" vertex="1" parent="GR6ykVju9A3iwefrX5M7-377">
          <mxGeometry x="52" y="64" width="4" height="9" as="geometry" />
        </mxCell>
        <mxCell id="GR6ykVju9A3iwefrX5M7-392" value="&lt;div&gt;Oracle Linux 9&lt;br&gt;&lt;/div&gt;&lt;div&gt;Software Source 1&lt;br&gt;&lt;/div&gt;" style="verticalAlign=middle;align=center;vsdxID=118;fillColor=none;gradientColor=none;shape=stencil(nZBLDoAgDERP0z3SIyjew0SURgSD+Lu9kMZoXLhwN9O+tukAlrNpJg1SzDH4QW/URgNYgZTkjA4UkwJUgGXng+6DX1zLfmoymdXo17xh5zmRJ6Q42BWCfc2oJfdAr+Yv+AP9Cb7OJ3H/2JG1HNGz/84klThPVCc=);strokeColor=none;spacingTop=-3;spacingBottom=-3;spacingLeft=-3;spacingRight=-3;points=[];labelBackgroundColor=none;rounded=0;html=1;whiteSpace=wrap;" vertex="1" parent="1">
          <mxGeometry x="364" y="644" width="122" height="32" as="geometry" />
        </mxCell>
        <mxCell id="GR6ykVju9A3iwefrX5M7-393" style="vsdxID=102;fillColor=none;gradientColor=none;strokeColor=none;spacingTop=-3;spacingBottom=-3;spacingLeft=-3;spacingRight=-3;points=[];labelBackgroundColor=none;rounded=0;html=1;whiteSpace=wrap;" vertex="1" parent="1">
          <mxGeometry x="383.5" y="800" width="85" height="80" as="geometry" />
        </mxCell>
        <mxCell id="GR6ykVju9A3iwefrX5M7-394" style="vsdxID=103;fillColor=#FFFFFF;gradientColor=none;shape=stencil(pZbBchoxDIafhqvGtmxZOqfJe2QaUphSyBDShrev6K5trB08ZHpbhLWfvJJ+aYUP75vnt/UquPfT8fBz/Wf7ctqs8NsqhO1+sz5uT/q0wscVPrwejusfx8PH/mX6/fZ8OXl5+nX4fXnD5+TnGTBfvII7TxZGiPTP8jQ57Lb7oUNCELzt4L50GELqz6slX5///nGc4vfFIxWP2RITyBzhZ5iDBi4xz5aopjAfwtkE3s+HZgsyBD+CE6CBYwTyPVwghh6OHij3cI/gYk9XRxpeXX049nj1KR+w3j1Cwp4fGCgafgJHhp+BZchPQAafwUeDb9moeILABk/VseITIA3xBMKG70DI8KXksPJ9Bud7fggQpefrd/NDvgaYzf29BzTZ14ww9XyBnHq8Vo0pPT2DI/ilznIPV5cejQnCEm3ICRjH6L5DkSAWhztDzRAWkZoq0TOyCDWZItF2JLKxhmGOUJpazSYGMfDoaj0UOBcNbOqgQmMqNJfM3oBH7Wlzc+0y056RwLADiFUmaS1cqhMojdgptLarSommQBJVHShw15PpSpCxCu7w1rRUJQ8+9GTK7b312kl6eHa1cKpE8/DWGcEbQc5V1Qs7J0hGkL0DIwg515jPTaLnCrhFzy1N5eYRUAye25xpGunR8LnOp3OT6ByGfFnydUL1eHZFVhueIJvrs4dgK07ldjgMdXGoIRe8fhGDV+0Xg2dIRpWYW4qKQmuTDqeh1L2ljQMENL0uqv3LaRiN0ojy7S4Qi+7dGkfO9XRVDJt7kTr5zq3/s2l3oQVd29l3tdeLsqTaPPftWZpfx//nwBGc3HaIddSc++9z51b55TV04aAPbet93e5209J8/b/dktU0bdj4+Bc=);strokeColor=none;spacingTop=-3;spacingBottom=-3;spacingLeft=-3;spacingRight=-3;points=[];labelBackgroundColor=none;rounded=0;html=1;whiteSpace=wrap;" vertex="1" parent="GR6ykVju9A3iwefrX5M7-393">
          <mxGeometry x="1" width="83" height="78" as="geometry" />
        </mxCell>
        <mxCell id="GR6ykVju9A3iwefrX5M7-395" style="vsdxID=104;fillColor=#FFFFFF;gradientColor=none;shape=stencil(pVjbctw2DP2afcWQ4P05Tf4jkzj1Tl07s3Ha9d8HqkRQPFxx3cnbWgZ0BBA4B+DJffjx+Pn7w4nNj9fLy18P/56/vj6e3B8n5vPz48Pl/Cq/Tu7jyX349nJ5+PPy8vP56/r398+L5fLr75d/ljdcV78QqfDixeZtfcLk8n8PPq32X35eVge7/j8aSmXzsOoS1ydX3ow8bU/etieOwmbiNpNEub5nexQoxhl0smQBWl5ie+jkKIce2xoqPXgKFFIPbj2FaeApknE9um2vUfhIyQJ8JO8BP1FwgJ/I8hQ/a5oVX8IH+ELOAXwmTj18NuQCwGfyZQafmZIH+EIGws+BDITPhkwE/EQm9/hsa5IO8Iut1dHqztdvVvziqUDlcRniL3GI33mann5JlOD0vdFcK3zSjFR4H4ktwEupcQ8fLHHY4z+dn3dtWhyVir45SNOVY4elDvj3HOTAt7zddPCFUu4cJHjHxw5SBwBgKf0f+zsRcM3gu+297e1Nrd2DGpAOgAoIVKAA5aCwALg2duM+MkB9LlNKM+ysVVTBXSDPPbgVggTaZYrAfQvRAbihPCVe26AU3QykLzzH3MNL70XgfbHKvseX4NK0+YTnPPZ+ogLMb3eKUvEjMr/wHOZedCe7KXymCMmXczaYfGkIpB5TK1DxF54bqddO0y9gFqk3qG5XfAnDofJ4spB+yVuC+C3XKj7CL5prxWfl+WsrNUZ8i6rvRuoTo7nySKEbFD47ML/bSTqPVhV/bL0Bv6cJ8dCEvfeDE8U8fHAArZCWv/HBDqTKFfLD95ppuYouMZaLaTRQaQnPypAFbC+SC+CFwhRaxrxhQmPgiYU1fQ8u/JIBOw8TmgeJRPBFQ4GkdGKr2MGTAWweenQ/FDs16hiqr5H7U/S9qdtMA3OUQh+ZGdpP1CvCkRodRTWrSeugRWbmR+qbzmtaHRYTVwrbHamD3vemR9bZ/aiNylBMu1GW1cgA6Wet2mtT1wCkm6tWHIFDzEUpWJETYQ+Nk6awR11QWgtxx/YD3bhaoLftb9AjDubigmQTmoTwYLQj56Hf74AbVZgdODT8IrC5Bxe2yZCqZSCDpcC6OyWybCDItFGbZTeYJFgJpTcyDiZBP2k3GUx3EnHBpUAmDp32WK08wkfKA7rBsSjB/DrAy5YNjLeMRdAhYmUg+1L9HlYySbWOWLuxbIq/G3haOWSovDjQknPNSKldl49ai6kOCofDuIHYvfL/VQkwQuJ9O4uK3bY4FZpSi+NmizahbIsG88S+N/Y1azeNZYgt4fccsqv6f9uhtFsUdcgTdRMpTv2mVEpt1aPVMPYZssYcmy/KlfH9k/xn0/aM7Ymvp3rbwTZm0YjTZOYbHe4cQglt9n2vQ+5pPrhZzCWSv3MBMHRnI2LtkDi0Zz2Z1iFGBUjvK/KwMfoqHofXJcBLeaDF4tp9VuUl1qzoVVEe2lMKeH5VlOPADUuX9PB5R3hNJ4CVpdRQvsXIzi/KDOGyFJXbd/d0HvR4ERMY11Juwtl0Yj4FL9eEiN9GOMVP4y2pV17YX1Pi9iFlOpXkFBrpqk54UOTUriXeVCcMiEIsbe+rdVfffXQ5HdpMVoMfxpHY9oSqEz3wjfl/Rl/zYV5+tMv3b+enp/Xufv9/vKyXR+tFv/v4Cw==);strokeColor=none;spacingTop=-3;spacingBottom=-3;spacingLeft=-3;spacingRight=-3;points=[];labelBackgroundColor=none;rounded=0;html=1;whiteSpace=wrap;" vertex="1" parent="GR6ykVju9A3iwefrX5M7-393">
          <mxGeometry width="85" height="80" as="geometry" />
        </mxCell>
        <mxCell id="GR6ykVju9A3iwefrX5M7-396" style="vsdxID=105;fillColor=#2d5967;gradientColor=none;shape=stencil(nZjdchwnEIWfZm+7gOb32rHfwxXL0VYUySXLyebtc6Z2gOGQQYmrdLGLYL+h6T6nmYt++P74+dvDxZnvb68vvz/8df3y9njRXy7OXZ8fH16vb/h00Y8X/fD15fXht9eXH89f7t+/fd5mbp/+ePlz+4XbfV3OkuK2ypm/7yOaZfuKv0/3Bb/+eL2vsPuSKKHsS/YhDeL3oZvbZ3lx+6R9RFXCPnTTfZKVtE/aR9SJ5iXdSHREt1J0pKfSZ1W8HdkJOw8j3GFVWMFTkpxHuMvC7CQ2j2yHkGXCR9668xLtkh7EjnCLs6K4JycpjXTrJIeRHouUkY5o6AoekxiKe3veBo8qsRBcCrNNy4x9xEhZnnnosdpHzMgNKlZHrpHkR64vkkcuVi0z3UfxdNxBAu3ZI61HdBGfCG3F2pFtEb20hBvROMJtFBdGunZYi3gSTyFHTXvKti11Vnjtv3LItuIJH0UZX+rxNnoQdRO9xCUeOVEmfK2rW6+rSHgcfNSRj3MmPI4xLwsdm0hUa1AZk0Y8Iq2Udoh0pErHqXkqNp/ELUt9O2lKeaRvjWLjByGhCVZo85hj/UhHtZg13fd0qXnvW0AaXVukGz6KKcR3VVM7H1KyjH7p1VzVxzSxblpTi7fRY5wyryVsZUMe87LsbNONyoaXBGIb8XFkZ5woRd6IpZorYay5p+vzwYp3TdttuECh7flkHGt9qJ9eYMX58wW+GsLp/EmmxZFa5jBbRJeVGjrTTayZEYcO3rc7y2nOsDMn25OxO6Ehf4q9hm8HadYRH30t6/OCtaTWMMOJn7oUVL6RTEYFoauNUiuZLGbNR5JS3obQd9bF0VHiBtf0oeml6Q1eFaxcu4oTPurGkWB61zSs8RESFsw4uSUSKbJTu+q7Z3y0YbR/DHHdQsNZslzrLZpoeCnsF6n++pldwYgYn1oB3bo5eKKnKffh+4ZEC89o1r0C9kXZh/rNtHs/d0kOcsh8P7k1EkLfa5TYrjYH404pz92hToaxWRgZhrVVXM+Ux/e8anqg1CzAnDLh89QYh9Kfsar2O6UfnXCjZKYuMcKGSfc2Z6RWIR6art49rM0arTw7FsRAqVGDGFLhoxYTCd9mjnHEbyFa0dOhCThcx2j3yfe7Vq0F325ohysRd8moq/TejYxbdFRZpqOHhRva/qG9bq5j+tWpN+5maTtZRalP/Rfdy63f7PzD7anykxTmp3q1PbM9w3dC1A9fEuDcmXolmIOn5CsHce5XtTXd15agu15oItPwfiq8hA6Kkg+zpmYt1Oc+5/MtIdtJdzBr6jlwIY/T9pX4iJsfsn/skHD2LV9+coE15nw62sWi/2N6nDq8VKXhLH5lbtmS8C3HmDF4OBa+05fc4nlomfK6Y0tT6qpkzh1l3ULhTO3i4SVWv/E6dx6r//DaCx/6S7Ov16en+zu34//5JRuG7i/o9OM/);strokeColor=none;spacingTop=-3;spacingBottom=-3;spacingLeft=-3;spacingRight=-3;points=[];labelBackgroundColor=none;rounded=0;html=1;whiteSpace=wrap;" vertex="1" parent="GR6ykVju9A3iwefrX5M7-393">
          <mxGeometry x="2" y="1" width="81" height="40" as="geometry" />
        </mxCell>
        <mxCell id="GR6ykVju9A3iwefrX5M7-397" style="vsdxID=106;fillColor=#2d5967;gradientColor=none;shape=stencil(lZPbDsIgDIafhtumBwbs2sN7LHE64tzMnKe3d5MLZUYS7lr4/vYntEpWl6Y614rxMg79sb773dgoWStm3zX14McpUrJRstr3Q30Y+mu3C/m5msk5OvW3ucIj6HBWMD5D5sAU74NtYFvffbFEYCXiicHZ/wLWQGbRQP/HnQBFNJdQJPxYBKMjgWhATggM6LiDGMAyR6ARhBJPmBy7uEMBJod3FkhyHJUExuUICDHxx4jL6i41EgucLXDC/e9AJKzkjGaanYLP/O9924b1+b5f7st0FHZNNi8=);strokeColor=none;spacingTop=-3;spacingBottom=-3;spacingLeft=-3;spacingRight=-3;points=[];labelBackgroundColor=none;rounded=0;html=1;whiteSpace=wrap;" vertex="1" parent="GR6ykVju9A3iwefrX5M7-393">
          <mxGeometry x="34" y="23" width="33" height="46" as="geometry" />
        </mxCell>
        <mxCell id="GR6ykVju9A3iwefrX5M7-398" style="vsdxID=107;fillColor=#2d5967;gradientColor=none;shape=stencil(lZTbboMwDIafJrdWbDen6657j0qlIxqDirKtffuFZafAsODOOP+Hfh9kxftrfbxUivR16Lvn6j2ehlrxgyKKbV31cUiR4oPi/bnrq6e+e21P+ftyHJVj9NK9jX+4Zc4jWDtSpO9fmQA2fGYeM9DEVgTYA+IygFqXcoQdrZeTAxLkYQeEJWAA7TLgLHg7NWSEgtEB+wJADVoomBkoFMCPx3/1hECm0Otlcdkc9z2LNVoClvvCOClT8DEdU0hN9OvlngHdliXbvJUzoNz7NENHZbkW0Aj9QUDesvdzIFkyQtFzSzbNV7C0uYYVQAp+T8U5Nk2+NH/fp6clpfJZ4sMH);strokeColor=none;spacingTop=-3;spacingBottom=-3;spacingLeft=-3;spacingRight=-3;points=[];labelBackgroundColor=none;rounded=0;html=1;whiteSpace=wrap;" vertex="1" parent="GR6ykVju9A3iwefrX5M7-393">
          <mxGeometry x="17" y="32" width="33" height="45" as="geometry" />
        </mxCell>
        <mxCell id="GR6ykVju9A3iwefrX5M7-399" style="vsdxID=108;fillColor=#2d5967;gradientColor=none;shape=stencil(jZDdCoMwDIWfJrcSG5jbtXPvIVjXsK6V2v29vS1hTAdC785JvoTDAWpn008aFM4x+Jt+8RAN0BmUYmd04JgUUAfUjj7oa/APN4if+kxmdffP/OEtd5gvFH7W7iKgZbcLHuoKaR+ucYt/fRFMx+rUlAYpTrwBk/gVMrK10ud6/19gGkn51C0=);strokeColor=none;spacingTop=-3;spacingBottom=-3;spacingLeft=-3;spacingRight=-3;points=[];labelBackgroundColor=none;rounded=0;html=1;whiteSpace=wrap;" vertex="1" parent="GR6ykVju9A3iwefrX5M7-393">
          <mxGeometry x="23" y="44" width="6" height="7" as="geometry" />
        </mxCell>
        <mxCell id="GR6ykVju9A3iwefrX5M7-400" style="vsdxID=109;fillColor=#2d5967;gradientColor=none;shape=stencil(lZHNDsIgEISfhiuhLBU81/oeTUqFiNBQ/Ht7QdKoNRJ7G2bnIwuDoJlUN0pEyRS8O8qr7oNCsEOUaquk1yEqBC2CZnBeHrw72z6fxy4lkzq5S7rhljlRY84SRck9OxuOoXo6+wwYbYtARcjv+Dycw1uCCfwfrzlmpTjDAB9AYZXFIliINa9c/S1fQBSvFgZtTC7xfb5sLVq5cWgf);strokeColor=none;spacingTop=-3;spacingBottom=-3;spacingLeft=-3;spacingRight=-3;points=[];labelBackgroundColor=none;rounded=0;html=1;whiteSpace=wrap;" vertex="1" parent="GR6ykVju9A3iwefrX5M7-393">
          <mxGeometry x="26" y="29" width="30" height="21" as="geometry" />
        </mxCell>
        <mxCell id="GR6ykVju9A3iwefrX5M7-401" style="vsdxID=110;fillColor=#2d5967;gradientColor=none;shape=stencil(jZDRCoMwDEW/Jq9SE5j47Nx/CNY1rGuldnP7+7UEmdtD8e3e3JMQLlC3mGHWgGqJwd/0ymM0QGdAZGd04JgUUA/UTT7oa/APN4qfh0xmdffPfOEleypvoHqLq5X4i6CW3Q7dwg1uTlXTHscLl39BpAqPssWHi2gS304mtlYq3ef/HaaR9E/9Bw==);strokeColor=none;spacingTop=-3;spacingBottom=-3;spacingLeft=-3;spacingRight=-3;points=[];labelBackgroundColor=none;rounded=0;html=1;whiteSpace=wrap;" vertex="1" parent="GR6ykVju9A3iwefrX5M7-393">
          <mxGeometry x="52" y="64" width="4" height="9" as="geometry" />
        </mxCell>
        <mxCell id="GR6ykVju9A3iwefrX5M7-402" style="vsdxID=111;fillColor=#2d5967;gradientColor=none;shape=stencil(nZjdchwnEIWfZm+7gOb32rHfwxXL0VYUySXLyebtc6Z2gOGQQYmrdLGLYL+h6T6nmYt++P74+dvDxZnvb68vvz/8df3y9njRXy7OXZ8fH16vb/h00Y8X/fD15fXht9eXH89f7t+/fd5mbp/+ePlz+4XbfV3OkuK2ypm/7yOaZfuKv0/3Bb/+eL2vsPuSKKHsS/YhDeL3oZvbZ3lx+6R9RFXCPnTTfZKVtE/aR9SJ5iXdSHREt1J0pKfSZ1W8HdkJOw8j3GFVWMFTkpxHuMvC7CQ2j2yHkGXCR9668xLtkh7EjnCLs6K4JycpjXTrJIeRHouUkY5o6AoekxiKe3veBo8qsRBcCrNNy4x9xEhZnnnosdpHzMgNKlZHrpHkR64vkkcuVi0z3UfxdNxBAu3ZI61HdBGfCG3F2pFtEb20hBvROMJtFBdGunZYi3gSTyFHTXvKti11Vnjtv3LItuIJH0UZX+rxNnoQdRO9xCUeOVEmfK2rW6+rSHgcfNSRj3MmPI4xLwsdm0hUa1AZk0Y8Iq2Udoh0pErHqXkqNp/ELUt9O2lKeaRvjWLjByGhCVZo85hj/UhHtZg13fd0qXnvW0AaXVukGz6KKcR3VVM7H1KyjH7p1VzVxzSxblpTi7fRY5wyryVsZUMe87LsbNONyoaXBGIb8XFkZ5woRd6IpZorYay5p+vzwYp3TdttuECh7flkHGt9qJ9eYMX58wW+GsLp/EmmxZFa5jBbRJeVGjrTTayZEYcO3rc7y2nOsDMn25OxO6Ehf4q9hm8HadYRH30t6/OCtaTWMMOJn7oUVL6RTEYFoauNUiuZLGbNR5JS3obQd9bF0VHiBtf0oeml6Q1eFaxcu4oTPurGkWB61zSs8RESFsw4uSUSKbJTu+q7Z3y0YbR/DHHdQsNZslzrLZpoeCnsF6n++pldwYgYn1oB3bo5eKKnKffh+4ZEC89o1r0C9kXZh/rNtHs/d0kOcsh8P7k1EkLfa5TYrjYH404pz92hToaxWRgZhrVVXM+Ux/e8anqg1CzAnDLh89QYh9Kfsar2O6UfnXCjZKYuMcKGSfc2Z6RWIR6art49rM0arTw7FsRAqVGDGFLhoxYTCd9mjnHEbyFa0dOhCThcx2j3yfe7Vq0F325ohysRd8moq/TejYxbdFRZpqOHhRva/qG9bq5j+tWpN+5maTtZRalP/Rfdy63f7PzD7anykxTmp3q1PbM9w3dC1A9fEuDcmXolmIOn5CsHce5XtTXd15agu15oItPwfiq8hA6Kkg+zpmYt1Oc+5/MtIdtJdzBr6jlwIY/T9pX4iJsfsn/skHD2LV9+coE15nw62sWi/2N6nDq8VKXhLH5lbtmS8C3HmDF4OBa+05fc4nlomfK6Y0tT6qpkzh1l3ULhTO3i4SVWv/E6dx6r//DaCx/6S7Ov16en+zu34//5JRuG7i/o9OM/);strokeColor=none;spacingTop=-3;spacingBottom=-3;spacingLeft=-3;spacingRight=-3;points=[];labelBackgroundColor=none;rounded=0;html=1;whiteSpace=wrap;" vertex="1" parent="GR6ykVju9A3iwefrX5M7-393">
          <mxGeometry x="2" y="1" width="81" height="40" as="geometry" />
        </mxCell>
        <mxCell id="GR6ykVju9A3iwefrX5M7-403" style="vsdxID=112;fillColor=#2d5967;gradientColor=none;shape=stencil(lZPbDsIgDIafhtumBwbs2sN7LHE64tzMnKe3d5MLZUYS7lr4/vYntEpWl6Y614rxMg79sb773dgoWStm3zX14McpUrJRstr3Q30Y+mu3C/m5msk5OvW3ucIj6HBWMD5D5sAU74NtYFvffbFEYCXiicHZ/wLWQGbRQP/HnQBFNJdQJPxYBKMjgWhATggM6LiDGMAyR6ARhBJPmBy7uEMBJod3FkhyHJUExuUICDHxx4jL6i41EgucLXDC/e9AJKzkjGaanYLP/O9924b1+b5f7st0FHZNNi8=);strokeColor=none;spacingTop=-3;spacingBottom=-3;spacingLeft=-3;spacingRight=-3;points=[];labelBackgroundColor=none;rounded=0;html=1;whiteSpace=wrap;" vertex="1" parent="GR6ykVju9A3iwefrX5M7-393">
          <mxGeometry x="34" y="23" width="33" height="46" as="geometry" />
        </mxCell>
        <mxCell id="GR6ykVju9A3iwefrX5M7-404" style="vsdxID=113;fillColor=#2d5967;gradientColor=none;shape=stencil(lZTbboMwDIafJrdWbDen6657j0qlIxqDirKtffuFZafAsODOOP+Hfh9kxftrfbxUivR16Lvn6j2ehlrxgyKKbV31cUiR4oPi/bnrq6e+e21P+ftyHJVj9NK9jX+4Zc4jWDtSpO9fmQA2fGYeM9DEVgTYA+IygFqXcoQdrZeTAxLkYQeEJWAA7TLgLHg7NWSEgtEB+wJADVoomBkoFMCPx3/1hECm0Otlcdkc9z2LNVoClvvCOClT8DEdU0hN9OvlngHdliXbvJUzoNz7NENHZbkW0Aj9QUDesvdzIFkyQtFzSzbNV7C0uYYVQAp+T8U5Nk2+NH/fp6clpfJZ4sMH);strokeColor=none;spacingTop=-3;spacingBottom=-3;spacingLeft=-3;spacingRight=-3;points=[];labelBackgroundColor=none;rounded=0;html=1;whiteSpace=wrap;" vertex="1" parent="GR6ykVju9A3iwefrX5M7-393">
          <mxGeometry x="17" y="32" width="33" height="45" as="geometry" />
        </mxCell>
        <mxCell id="GR6ykVju9A3iwefrX5M7-405" style="vsdxID=114;fillColor=#2d5967;gradientColor=none;shape=stencil(jZDdCoMwDIWfJrcSG5jbtXPvIVjXsK6V2v29vS1hTAdC785JvoTDAWpn008aFM4x+Jt+8RAN0BmUYmd04JgUUAfUjj7oa/APN4if+kxmdffP/OEtd5gvFH7W7iKgZbcLHuoKaR+ucYt/fRFMx+rUlAYpTrwBk/gVMrK10ud6/19gGkn51C0=);strokeColor=none;spacingTop=-3;spacingBottom=-3;spacingLeft=-3;spacingRight=-3;points=[];labelBackgroundColor=none;rounded=0;html=1;whiteSpace=wrap;" vertex="1" parent="GR6ykVju9A3iwefrX5M7-393">
          <mxGeometry x="23" y="44" width="6" height="7" as="geometry" />
        </mxCell>
        <mxCell id="GR6ykVju9A3iwefrX5M7-406" style="vsdxID=115;fillColor=#2d5967;gradientColor=none;shape=stencil(lZHNDsIgEISfhiuhLBU81/oeTUqFiNBQ/Ht7QdKoNRJ7G2bnIwuDoJlUN0pEyRS8O8qr7oNCsEOUaquk1yEqBC2CZnBeHrw72z6fxy4lkzq5S7rhljlRY84SRck9OxuOoXo6+wwYbYtARcjv+Dycw1uCCfwfrzlmpTjDAB9AYZXFIliINa9c/S1fQBSvFgZtTC7xfb5sLVq5cWgf);strokeColor=none;spacingTop=-3;spacingBottom=-3;spacingLeft=-3;spacingRight=-3;points=[];labelBackgroundColor=none;rounded=0;html=1;whiteSpace=wrap;" vertex="1" parent="GR6ykVju9A3iwefrX5M7-393">
          <mxGeometry x="26" y="29" width="30" height="21" as="geometry" />
        </mxCell>
        <mxCell id="GR6ykVju9A3iwefrX5M7-407" style="vsdxID=116;fillColor=#2d5967;gradientColor=none;shape=stencil(jZDRCoMwDEW/Jq9SE5j47Nx/CNY1rGuldnP7+7UEmdtD8e3e3JMQLlC3mGHWgGqJwd/0ymM0QGdAZGd04JgUUA/UTT7oa/APN4qfh0xmdffPfOEleypvoHqLq5X4i6CW3Q7dwg1uTlXTHscLl39BpAqPssWHi2gS304mtlYq3ef/HaaR9E/9Bw==);strokeColor=none;spacingTop=-3;spacingBottom=-3;spacingLeft=-3;spacingRight=-3;points=[];labelBackgroundColor=none;rounded=0;html=1;whiteSpace=wrap;" vertex="1" parent="GR6ykVju9A3iwefrX5M7-393">
          <mxGeometry x="52" y="64" width="4" height="9" as="geometry" />
        </mxCell>
        <mxCell id="GR6ykVju9A3iwefrX5M7-408" value="&lt;div&gt;Oracle Linux 9&lt;br&gt;&lt;/div&gt;&lt;div&gt;Software Source 2&lt;/div&gt;" style="verticalAlign=middle;align=center;vsdxID=118;fillColor=none;gradientColor=none;shape=stencil(nZBLDoAgDERP0z3SIyjew0SURgSD+Lu9kMZoXLhwN9O+tukAlrNpJg1SzDH4QW/URgNYgZTkjA4UkwJUgGXng+6DX1zLfmoymdXo17xh5zmRJ6Q42BWCfc2oJfdAr+Yv+AP9Cb7OJ3H/2JG1HNGz/84klThPVCc=);strokeColor=none;spacingTop=-3;spacingBottom=-3;spacingLeft=-3;spacingRight=-3;points=[];labelBackgroundColor=none;rounded=0;html=1;whiteSpace=wrap;" vertex="1" parent="1">
          <mxGeometry x="364.5" y="884" width="122" height="32" as="geometry" />
        </mxCell>
        <mxCell id="GR6ykVju9A3iwefrX5M7-441" value="Linux 9 Managed Instance Group 1" style="fontStyle=0;verticalAlign=top;align=center;spacingTop=-2;fillColor=none;rounded=0;whiteSpace=wrap;html=1;strokeColor=#00882B;strokeWidth=2;dashed=1;container=0;collapsible=0;expand=0;recursiveResize=0;" vertex="1" parent="1">
          <mxGeometry x="72" y="530" width="200" height="200" as="geometry" />
        </mxCell>
        <mxCell id="GR6ykVju9A3iwefrX5M7-455" value="" style="group" vertex="1" connectable="0" parent="1">
          <mxGeometry x="640" y="100.00000000000023" width="150" height="130" as="geometry" />
        </mxCell>
        <mxCell id="GR6ykVju9A3iwefrX5M7-456" style="vsdxID=53;fillColor=none;gradientColor=none;strokeColor=none;spacingTop=-3;spacingBottom=-3;spacingLeft=-3;spacingRight=-3;points=[];labelBackgroundColor=none;rounded=0;html=1;whiteSpace=wrap;" vertex="1" parent="GR6ykVju9A3iwefrX5M7-455">
          <mxGeometry width="84" height="84" as="geometry" />
        </mxCell>
        <mxCell id="GR6ykVju9A3iwefrX5M7-457" style="vsdxID=54;fillColor=none;gradientColor=none;strokeColor=none;spacingTop=-3;spacingBottom=-3;spacingLeft=-3;spacingRight=-3;points=[];labelBackgroundColor=none;rounded=0;html=1;whiteSpace=wrap;" vertex="1" parent="GR6ykVju9A3iwefrX5M7-456">
          <mxGeometry width="84" height="84" as="geometry" />
        </mxCell>
        <mxCell id="GR6ykVju9A3iwefrX5M7-458" style="vsdxID=55;fillColor=#FFFFFF;gradientColor=none;shape=stencil(lZPRDoIwDEW/Zq9LWUHCs+J/EAVZRCATFP/eYYdsAzW+td2922mzMtxey6zNmYBrp5pzfpfHrmS4Y0LIusyV7HTEMGW4LRqVn1TT10fK22xUjtGluY03DOSLOEajScCDCknC482rsif9oVdkCEggeIjGEfgWGASVwChMmsQchVGgqzBpEvLQfrWStUUJDuKb+QMhuHgz8ERnteDyTnDWVBzcVTiNvnFnCN/o9Cyi2CUEFy8Ab3xWB+hLfOJVxFnuI3+AnA1L6kEsG/HJB1zOxkNfBf39Hf/V62D++4WsKlod+9zfFV2iPcP0CQ==);strokeColor=none;spacingTop=-3;spacingBottom=-3;spacingLeft=-3;spacingRight=-3;points=[];labelBackgroundColor=none;rounded=0;html=1;whiteSpace=wrap;" vertex="1" parent="GR6ykVju9A3iwefrX5M7-457">
          <mxGeometry x="1" y="1" width="82" height="82" as="geometry" />
        </mxCell>
        <mxCell id="GR6ykVju9A3iwefrX5M7-459" style="vsdxID=56;fillColor=#FFFFFF;gradientColor=none;shape=stencil(lZXRdoIwDIafprc9aUMpvXb6Hp6JgzMmHsSNvf1gLbQNCHpX4h/88iehDHe34njNmYRb29Sf+U95aguGb0zK8lLkTdn2J4Z7hrtz3eQfTX2/nOzz9Tgoh9NX/T28obN5BjmqIUvCr41Ijtl/4GD17/fGJgiXoXhiXIYgKdBJJ9IcR5ELJVy6SIdzkQulPMHwz6vyEsIGCRN+JlZpgxRfgFEEN6jJV5ClhDfwCqlqEbgvR8S8VE95e5c0wdU8lTFu77cmtIprEdMGIs+v9GPYIGG5GZQ1SBCzHstZPXI2LDhzCZdnkIzB5sy+qt/aCXihxbBuWaZiyyD2C6hZdAghdmp9YSAi21wWYHTyREInb+J3EQHANro5Sh41R8U7TeQLGy2Ih56BQgXbPJWCVPPcenj9c9thDNcp/U5O3Ry5Um5EjErsXPjorLu5Nrr9wV8E57Kq7D0S/k4vjj5kLx3c/wE=);strokeColor=none;spacingTop=-3;spacingBottom=-3;spacingLeft=-3;spacingRight=-3;points=[];labelBackgroundColor=none;rounded=0;html=1;whiteSpace=wrap;" vertex="1" parent="GR6ykVju9A3iwefrX5M7-457">
          <mxGeometry width="84" height="84" as="geometry" />
        </mxCell>
        <mxCell id="GR6ykVju9A3iwefrX5M7-460" style="vsdxID=57;fillColor=none;gradientColor=none;strokeColor=none;spacingTop=-3;spacingBottom=-3;spacingLeft=-3;spacingRight=-3;points=[];labelBackgroundColor=none;rounded=0;html=1;whiteSpace=wrap;" vertex="1" parent="GR6ykVju9A3iwefrX5M7-456">
          <mxGeometry x="2" y="2" width="80" height="80" as="geometry" />
        </mxCell>
        <mxCell id="GR6ykVju9A3iwefrX5M7-461" style="vsdxID=58;fillColor=#2d5967;gradientColor=none;shape=stencil(lZXLcoMwDEW/xlvGWDzidZr8R6YhhSmFDCEt+ftCbbAkB+Lu/LgyR/IVFrC/ladrIZS89V37WfxU574U8CaUqpqy6Kp+HAk4CNhf2q746Np7czbz62lSTqOv9ns6YTBxOo3SeIpS8mFW5N/saMR11SBxEqlkXft+78zJsdmMI62tOsZyOSgyfdipsrtAd2H5drpOJgmWzra4JIXSO0qFsOcVKSkaqgNQyVO4scZ5RgCZnBPqXSRjSukYONRMueQBXAAOY6OETv+84B6kno9bIBVF1LnLm175AL774KX9XniVGTtzNVzJ38so88puneRSSr2UxihbqK20nCqsszw9hwWvuzCImkV5wmkpKlKE2QQFhPkEBdiVhEPyhoPFWesdB5uUfstxfcDlIwx01+z6EwqKFUF/rgCf/jtgHLj//aWqa/Nc4H3+PoxL5m2Bwy8=);strokeColor=none;spacingTop=-3;spacingBottom=-3;spacingLeft=-3;spacingRight=-3;points=[];labelBackgroundColor=none;rounded=0;html=1;whiteSpace=wrap;" vertex="1" parent="GR6ykVju9A3iwefrX5M7-460">
          <mxGeometry width="80" height="80" as="geometry" />
        </mxCell>
        <mxCell id="GR6ykVju9A3iwefrX5M7-462" style="vsdxID=59;fillColor=#2d5967;gradientColor=none;shape=stencil(pZJbDsIgFERXwy+hQBW/a91Hk1IhIjQUX7sXcmNsNaWx/s1wz32EDGLVoJpeIkqG4N1J3nQbFGJ7RKm2SnodokKsRqzqnJdH7y62Bd83iUzq7K5pwh36SOqg5AGuIOAPgBptR+iruArOoCvB7PosOv0BjkUxpTdYlPOjdxyXf/GCY7qd57/u+ZVfuGeZj+Idl04bA2kb1z/jFZ8gmqx+Ag==);strokeColor=none;spacingTop=-3;spacingBottom=-3;spacingLeft=-3;spacingRight=-3;points=[];labelBackgroundColor=none;rounded=0;html=1;whiteSpace=wrap;" vertex="1" parent="GR6ykVju9A3iwefrX5M7-460">
          <mxGeometry x="11" y="51" width="58" height="17" as="geometry" />
        </mxCell>
        <mxCell id="GR6ykVju9A3iwefrX5M7-463" style="vsdxID=60;fillColor=#2d5967;gradientColor=none;shape=stencil(jVLRDoMgDPwaXg2UOeezc/9hJk4ypwZ107+fpCRClxnf2nLH9eCYzIa66BUDPoyme6qPLseaySsD0G2tjB7XismcyazqjHqYbmpL7PvCIm316t72hhl5MbcU4Au2gmN/Q+x9MggWeJwk0Vk4gggZfAYyWGAjgcNIinGDUxql6Z7yxnADgEheQmV/OzfioW5MZHfNWoUkFCVWiVF/JRkijtokJv2ng9+t6Iv/s0l+tdHt4QSsxRadSjcNJs8/p1FbRxhTmX8B);strokeColor=none;spacingTop=-3;spacingBottom=-3;spacingLeft=-3;spacingRight=-3;points=[];labelBackgroundColor=none;rounded=0;html=1;whiteSpace=wrap;" vertex="1" parent="GR6ykVju9A3iwefrX5M7-460">
          <mxGeometry x="57" y="58" width="4" height="4" as="geometry" />
        </mxCell>
        <mxCell id="GR6ykVju9A3iwefrX5M7-464" style="vsdxID=61;fillColor=#2d5967;gradientColor=none;shape=stencil(pZLbDsIgEES/Zl8JZW3E51r/o0mpEBEa2nr5e0Fi2qrpRd92Z8+QCRnArJFFLYDRpnX2JK6qbCXgHhhTRgqnWj8B5oBZZZ04OtuZMu51Ecgwne0lvHCLvh0nnAcXo/eo0Od2iLBWZgDT38CETqCv4yJ4VdoZePwPHEmyGcFBSSdyp2SL/xl65avhM9Jqw0ykBQY/9NWplNaxecP7e9W8FGuK+QM=);strokeColor=none;spacingTop=-3;spacingBottom=-3;spacingLeft=-3;spacingRight=-3;points=[];labelBackgroundColor=none;rounded=0;html=1;whiteSpace=wrap;" vertex="1" parent="GR6ykVju9A3iwefrX5M7-460">
          <mxGeometry x="11" y="11" width="17" height="17" as="geometry" />
        </mxCell>
        <mxCell id="GR6ykVju9A3iwefrX5M7-465" style="vsdxID=62;fillColor=#2d5967;gradientColor=none;shape=stencil(pZJJDoMwDEVP422UxGXYU3oPJEKJmhIUoMPtm8iqCnSE7vzj920r+oBZVxetAsm73tmDOuuyrwG3IKVuauV07yvAHDCrrFN7Z4emJN0WgQzV0Z7ChAv5BOfBI/mVNKkdoUY3I3QleN/wEp2vXwSvRac/kG6YTCZwikxEH2bHLI3/M4iIJfje8HzSYsOXk34w+OIRmkobQ5kb9+ch808UUMxv);strokeColor=none;spacingTop=-3;spacingBottom=-3;spacingLeft=-3;spacingRight=-3;points=[];labelBackgroundColor=none;rounded=0;html=1;whiteSpace=wrap;" vertex="1" parent="GR6ykVju9A3iwefrX5M7-460">
          <mxGeometry x="31" y="11" width="17" height="17" as="geometry" />
        </mxCell>
        <mxCell id="GR6ykVju9A3iwefrX5M7-466" style="vsdxID=63;fillColor=#2d5967;gradientColor=none;shape=stencil(pZLbDsIgEES/Zl8JZW3E51r/o0mpEBEa2nr5e0Fi2qrpRd92Z8+QCRnArJFFLYDRpnX2JK6qbCXgHhhTRgqnWj8B5oBZZZ04OtuZMu51Ecgwne0lvHCLvh0nnAcXo/eo0Od2iLBWZgDT38CETqCv4yJ4VdoZePwPHEmyGcFBSSdyp2SL/xl65avhM9Jqw0ykBQY/9NWplNaxecP7e9W8FGuK+QM=);strokeColor=none;spacingTop=-3;spacingBottom=-3;spacingLeft=-3;spacingRight=-3;points=[];labelBackgroundColor=none;rounded=0;html=1;whiteSpace=wrap;" vertex="1" parent="GR6ykVju9A3iwefrX5M7-460">
          <mxGeometry x="11" y="31" width="17" height="17" as="geometry" />
        </mxCell>
        <mxCell id="GR6ykVju9A3iwefrX5M7-467" style="vsdxID=64;fillColor=#2d5967;gradientColor=none;shape=stencil(pZJJDoMwDEVP422UxGXYU3oPJEKJmhIUoMPtm8iqCnSE7vzj920r+oBZVxetAsm73tmDOuuyrwG3IKVuauV07yvAHDCrrFN7Z4emJN0WgQzV0Z7ChAv5BOfBI/mVNKkdoUY3I3QleN/wEp2vXwSvRac/kG6YTCZwikxEH2bHLI3/M4iIJfje8HzSYsOXk34w+OIRmkobQ5kb9+ch808UUMxv);strokeColor=none;spacingTop=-3;spacingBottom=-3;spacingLeft=-3;spacingRight=-3;points=[];labelBackgroundColor=none;rounded=0;html=1;whiteSpace=wrap;" vertex="1" parent="GR6ykVju9A3iwefrX5M7-460">
          <mxGeometry x="31" y="31" width="17" height="17" as="geometry" />
        </mxCell>
        <mxCell id="GR6ykVju9A3iwefrX5M7-468" style="vsdxID=65;fillColor=#2d5967;gradientColor=none;shape=stencil(pZJJDoMwDEVP422UxGXYU3oPJEKJmhIUoMPtm8iqCnSE7vzj920r+oBZVxetAsm73tmDOuuyrwG3IKVuauV07yvAHDCrrFN7Z4emJN0WgQzV0Z7ChAv5BOfBI/mVNKkdoUY3I3QleN/wEp2vXwSvRac/kG6YTCZwikxEH2bHLI3/M4iIJfje8HzSYsOXk34w+OIRmkobQ5kb9+ch808UUMxv);strokeColor=none;spacingTop=-3;spacingBottom=-3;spacingLeft=-3;spacingRight=-3;points=[];labelBackgroundColor=none;rounded=0;html=1;whiteSpace=wrap;" vertex="1" parent="GR6ykVju9A3iwefrX5M7-460">
          <mxGeometry x="51" y="11" width="17" height="17" as="geometry" />
        </mxCell>
        <mxCell id="GR6ykVju9A3iwefrX5M7-469" style="vsdxID=66;fillColor=#2d5967;gradientColor=none;shape=stencil(pZJJDoMwDEVP422UxGXYU3oPJEKJmhIUoMPtm8iqCnSE7vzj920r+oBZVxetAsm73tmDOuuyrwG3IKVuauV07yvAHDCrrFN7Z4emJN0WgQzV0Z7ChAv5BOfBI/mVNKkdoUY3I3QleN/wEp2vXwSvRac/kG6YTCZwikxEH2bHLI3/M4iIJfje8HzSYsOXk34w+OIRmkobQ5kb9+ch808UUMxv);strokeColor=none;spacingTop=-3;spacingBottom=-3;spacingLeft=-3;spacingRight=-3;points=[];labelBackgroundColor=none;rounded=0;html=1;whiteSpace=wrap;" vertex="1" parent="GR6ykVju9A3iwefrX5M7-460">
          <mxGeometry x="51" y="31" width="17" height="17" as="geometry" />
        </mxCell>
        <mxCell id="GR6ykVju9A3iwefrX5M7-470" value="&lt;div&gt;Oracle 8&lt;/div&gt;&lt;div&gt;Golden Instance 1&lt;br&gt;&lt;/div&gt;" style="verticalAlign=middle;align=center;vsdxID=68;fillColor=none;gradientColor=none;shape=stencil(nZBLDoAgDERP0z3SIyjew0SURgSD+Lu9kMZoXLhwN9O+tukAlrNpJg1SzDH4QW/URgNYgZTkjA4UkwJUgGXng+6DX1zLfmoymdXo17xh5zmRJ6Q42BWCfc2oJfdAr+Yv+AP9Cb7OJ3H/2JG1HNGz/84klThPVCc=);strokeColor=none;spacingTop=-3;spacingBottom=-3;spacingLeft=-3;spacingRight=-3;points=[];labelBackgroundColor=none;rounded=0;html=1;whiteSpace=wrap;" vertex="1" parent="GR6ykVju9A3iwefrX5M7-455">
          <mxGeometry x="-30" y="89" width="146" height="41" as="geometry" />
        </mxCell>
        <mxCell id="GR6ykVju9A3iwefrX5M7-487" style="vsdxID=53;fillColor=none;gradientColor=none;strokeColor=none;spacingTop=-3;spacingBottom=-3;spacingLeft=-3;spacingRight=-3;points=[];labelBackgroundColor=none;rounded=0;html=1;whiteSpace=wrap;" vertex="1" parent="1">
          <mxGeometry x="640" y="320.0000000000002" width="84" height="84" as="geometry" />
        </mxCell>
        <mxCell id="GR6ykVju9A3iwefrX5M7-488" style="vsdxID=54;fillColor=none;gradientColor=none;strokeColor=none;spacingTop=-3;spacingBottom=-3;spacingLeft=-3;spacingRight=-3;points=[];labelBackgroundColor=none;rounded=0;html=1;whiteSpace=wrap;" vertex="1" parent="GR6ykVju9A3iwefrX5M7-487">
          <mxGeometry width="84" height="84" as="geometry" />
        </mxCell>
        <mxCell id="GR6ykVju9A3iwefrX5M7-489" style="vsdxID=55;fillColor=#FFFFFF;gradientColor=none;shape=stencil(lZPRDoIwDEW/Zq9LWUHCs+J/EAVZRCATFP/eYYdsAzW+td2922mzMtxey6zNmYBrp5pzfpfHrmS4Y0LIusyV7HTEMGW4LRqVn1TT10fK22xUjtGluY03DOSLOEajScCDCknC482rsif9oVdkCEggeIjGEfgWGASVwChMmsQchVGgqzBpEvLQfrWStUUJDuKb+QMhuHgz8ERnteDyTnDWVBzcVTiNvnFnCN/o9Cyi2CUEFy8Ab3xWB+hLfOJVxFnuI3+AnA1L6kEsG/HJB1zOxkNfBf39Hf/V62D++4WsKlod+9zfFV2iPcP0CQ==);strokeColor=none;spacingTop=-3;spacingBottom=-3;spacingLeft=-3;spacingRight=-3;points=[];labelBackgroundColor=none;rounded=0;html=1;whiteSpace=wrap;" vertex="1" parent="GR6ykVju9A3iwefrX5M7-488">
          <mxGeometry x="1" y="1" width="82" height="82" as="geometry" />
        </mxCell>
        <mxCell id="GR6ykVju9A3iwefrX5M7-490" style="vsdxID=56;fillColor=#FFFFFF;gradientColor=none;shape=stencil(lZXRdoIwDIafprc9aUMpvXb6Hp6JgzMmHsSNvf1gLbQNCHpX4h/88iehDHe34njNmYRb29Sf+U95aguGb0zK8lLkTdn2J4Z7hrtz3eQfTX2/nOzz9Tgoh9NX/T28obN5BjmqIUvCr41Ijtl/4GD17/fGJgiXoXhiXIYgKdBJJ9IcR5ELJVy6SIdzkQulPMHwz6vyEsIGCRN+JlZpgxRfgFEEN6jJV5ClhDfwCqlqEbgvR8S8VE95e5c0wdU8lTFu77cmtIprEdMGIs+v9GPYIGG5GZQ1SBCzHstZPXI2LDhzCZdnkIzB5sy+qt/aCXihxbBuWaZiyyD2C6hZdAghdmp9YSAi21wWYHTyREInb+J3EQHANro5Sh41R8U7TeQLGy2Ih56BQgXbPJWCVPPcenj9c9thDNcp/U5O3Ry5Um5EjErsXPjorLu5Nrr9wV8E57Kq7D0S/k4vjj5kLx3c/wE=);strokeColor=none;spacingTop=-3;spacingBottom=-3;spacingLeft=-3;spacingRight=-3;points=[];labelBackgroundColor=none;rounded=0;html=1;whiteSpace=wrap;" vertex="1" parent="GR6ykVju9A3iwefrX5M7-488">
          <mxGeometry width="84" height="84" as="geometry" />
        </mxCell>
        <mxCell id="GR6ykVju9A3iwefrX5M7-491" style="vsdxID=57;fillColor=none;gradientColor=none;strokeColor=none;spacingTop=-3;spacingBottom=-3;spacingLeft=-3;spacingRight=-3;points=[];labelBackgroundColor=none;rounded=0;html=1;whiteSpace=wrap;" vertex="1" parent="GR6ykVju9A3iwefrX5M7-487">
          <mxGeometry x="2" y="2" width="80" height="80" as="geometry" />
        </mxCell>
        <mxCell id="GR6ykVju9A3iwefrX5M7-492" style="vsdxID=58;fillColor=#2d5967;gradientColor=none;shape=stencil(lZXLcoMwDEW/xlvGWDzidZr8R6YhhSmFDCEt+ftCbbAkB+Lu/LgyR/IVFrC/ladrIZS89V37WfxU574U8CaUqpqy6Kp+HAk4CNhf2q746Np7czbz62lSTqOv9ns6YTBxOo3SeIpS8mFW5N/saMR11SBxEqlkXft+78zJsdmMI62tOsZyOSgyfdipsrtAd2H5drpOJgmWzra4JIXSO0qFsOcVKSkaqgNQyVO4scZ5RgCZnBPqXSRjSukYONRMueQBXAAOY6OETv+84B6kno9bIBVF1LnLm175AL774KX9XniVGTtzNVzJ38so88puneRSSr2UxihbqK20nCqsszw9hwWvuzCImkV5wmkpKlKE2QQFhPkEBdiVhEPyhoPFWesdB5uUfstxfcDlIwx01+z6EwqKFUF/rgCf/jtgHLj//aWqa/Nc4H3+PoxL5m2Bwy8=);strokeColor=none;spacingTop=-3;spacingBottom=-3;spacingLeft=-3;spacingRight=-3;points=[];labelBackgroundColor=none;rounded=0;html=1;whiteSpace=wrap;" vertex="1" parent="GR6ykVju9A3iwefrX5M7-491">
          <mxGeometry width="80" height="80" as="geometry" />
        </mxCell>
        <mxCell id="GR6ykVju9A3iwefrX5M7-493" style="vsdxID=59;fillColor=#2d5967;gradientColor=none;shape=stencil(pZJbDsIgFERXwy+hQBW/a91Hk1IhIjQUX7sXcmNsNaWx/s1wz32EDGLVoJpeIkqG4N1J3nQbFGJ7RKm2SnodokKsRqzqnJdH7y62Bd83iUzq7K5pwh36SOqg5AGuIOAPgBptR+iruArOoCvB7PosOv0BjkUxpTdYlPOjdxyXf/GCY7qd57/u+ZVfuGeZj+Idl04bA2kb1z/jFZ8gmqx+Ag==);strokeColor=none;spacingTop=-3;spacingBottom=-3;spacingLeft=-3;spacingRight=-3;points=[];labelBackgroundColor=none;rounded=0;html=1;whiteSpace=wrap;" vertex="1" parent="GR6ykVju9A3iwefrX5M7-491">
          <mxGeometry x="11" y="51" width="58" height="17" as="geometry" />
        </mxCell>
        <mxCell id="GR6ykVju9A3iwefrX5M7-494" style="vsdxID=60;fillColor=#2d5967;gradientColor=none;shape=stencil(jVLRDoMgDPwaXg2UOeezc/9hJk4ypwZ107+fpCRClxnf2nLH9eCYzIa66BUDPoyme6qPLseaySsD0G2tjB7XismcyazqjHqYbmpL7PvCIm316t72hhl5MbcU4Au2gmN/Q+x9MggWeJwk0Vk4gggZfAYyWGAjgcNIinGDUxql6Z7yxnADgEheQmV/OzfioW5MZHfNWoUkFCVWiVF/JRkijtokJv2ng9+t6Iv/s0l+tdHt4QSsxRadSjcNJs8/p1FbRxhTmX8B);strokeColor=none;spacingTop=-3;spacingBottom=-3;spacingLeft=-3;spacingRight=-3;points=[];labelBackgroundColor=none;rounded=0;html=1;whiteSpace=wrap;" vertex="1" parent="GR6ykVju9A3iwefrX5M7-491">
          <mxGeometry x="57" y="58" width="4" height="4" as="geometry" />
        </mxCell>
        <mxCell id="GR6ykVju9A3iwefrX5M7-495" style="vsdxID=61;fillColor=#2d5967;gradientColor=none;shape=stencil(pZLbDsIgEES/Zl8JZW3E51r/o0mpEBEa2nr5e0Fi2qrpRd92Z8+QCRnArJFFLYDRpnX2JK6qbCXgHhhTRgqnWj8B5oBZZZ04OtuZMu51Ecgwne0lvHCLvh0nnAcXo/eo0Od2iLBWZgDT38CETqCv4yJ4VdoZePwPHEmyGcFBSSdyp2SL/xl65avhM9Jqw0ykBQY/9NWplNaxecP7e9W8FGuK+QM=);strokeColor=none;spacingTop=-3;spacingBottom=-3;spacingLeft=-3;spacingRight=-3;points=[];labelBackgroundColor=none;rounded=0;html=1;whiteSpace=wrap;" vertex="1" parent="GR6ykVju9A3iwefrX5M7-491">
          <mxGeometry x="11" y="11" width="17" height="17" as="geometry" />
        </mxCell>
        <mxCell id="GR6ykVju9A3iwefrX5M7-496" style="vsdxID=62;fillColor=#2d5967;gradientColor=none;shape=stencil(pZJJDoMwDEVP422UxGXYU3oPJEKJmhIUoMPtm8iqCnSE7vzj920r+oBZVxetAsm73tmDOuuyrwG3IKVuauV07yvAHDCrrFN7Z4emJN0WgQzV0Z7ChAv5BOfBI/mVNKkdoUY3I3QleN/wEp2vXwSvRac/kG6YTCZwikxEH2bHLI3/M4iIJfje8HzSYsOXk34w+OIRmkobQ5kb9+ch808UUMxv);strokeColor=none;spacingTop=-3;spacingBottom=-3;spacingLeft=-3;spacingRight=-3;points=[];labelBackgroundColor=none;rounded=0;html=1;whiteSpace=wrap;" vertex="1" parent="GR6ykVju9A3iwefrX5M7-491">
          <mxGeometry x="31" y="11" width="17" height="17" as="geometry" />
        </mxCell>
        <mxCell id="GR6ykVju9A3iwefrX5M7-497" style="vsdxID=63;fillColor=#2d5967;gradientColor=none;shape=stencil(pZLbDsIgEES/Zl8JZW3E51r/o0mpEBEa2nr5e0Fi2qrpRd92Z8+QCRnArJFFLYDRpnX2JK6qbCXgHhhTRgqnWj8B5oBZZZ04OtuZMu51Ecgwne0lvHCLvh0nnAcXo/eo0Od2iLBWZgDT38CETqCv4yJ4VdoZePwPHEmyGcFBSSdyp2SL/xl65avhM9Jqw0ykBQY/9NWplNaxecP7e9W8FGuK+QM=);strokeColor=none;spacingTop=-3;spacingBottom=-3;spacingLeft=-3;spacingRight=-3;points=[];labelBackgroundColor=none;rounded=0;html=1;whiteSpace=wrap;" vertex="1" parent="GR6ykVju9A3iwefrX5M7-491">
          <mxGeometry x="11" y="31" width="17" height="17" as="geometry" />
        </mxCell>
        <mxCell id="GR6ykVju9A3iwefrX5M7-498" style="vsdxID=64;fillColor=#2d5967;gradientColor=none;shape=stencil(pZJJDoMwDEVP422UxGXYU3oPJEKJmhIUoMPtm8iqCnSE7vzj920r+oBZVxetAsm73tmDOuuyrwG3IKVuauV07yvAHDCrrFN7Z4emJN0WgQzV0Z7ChAv5BOfBI/mVNKkdoUY3I3QleN/wEp2vXwSvRac/kG6YTCZwikxEH2bHLI3/M4iIJfje8HzSYsOXk34w+OIRmkobQ5kb9+ch808UUMxv);strokeColor=none;spacingTop=-3;spacingBottom=-3;spacingLeft=-3;spacingRight=-3;points=[];labelBackgroundColor=none;rounded=0;html=1;whiteSpace=wrap;" vertex="1" parent="GR6ykVju9A3iwefrX5M7-491">
          <mxGeometry x="31" y="31" width="17" height="17" as="geometry" />
        </mxCell>
        <mxCell id="GR6ykVju9A3iwefrX5M7-499" style="vsdxID=65;fillColor=#2d5967;gradientColor=none;shape=stencil(pZJJDoMwDEVP422UxGXYU3oPJEKJmhIUoMPtm8iqCnSE7vzj920r+oBZVxetAsm73tmDOuuyrwG3IKVuauV07yvAHDCrrFN7Z4emJN0WgQzV0Z7ChAv5BOfBI/mVNKkdoUY3I3QleN/wEp2vXwSvRac/kG6YTCZwikxEH2bHLI3/M4iIJfje8HzSYsOXk34w+OIRmkobQ5kb9+ch808UUMxv);strokeColor=none;spacingTop=-3;spacingBottom=-3;spacingLeft=-3;spacingRight=-3;points=[];labelBackgroundColor=none;rounded=0;html=1;whiteSpace=wrap;" vertex="1" parent="GR6ykVju9A3iwefrX5M7-491">
          <mxGeometry x="51" y="11" width="17" height="17" as="geometry" />
        </mxCell>
        <mxCell id="GR6ykVju9A3iwefrX5M7-500" style="vsdxID=66;fillColor=#2d5967;gradientColor=none;shape=stencil(pZJJDoMwDEVP422UxGXYU3oPJEKJmhIUoMPtm8iqCnSE7vzj920r+oBZVxetAsm73tmDOuuyrwG3IKVuauV07yvAHDCrrFN7Z4emJN0WgQzV0Z7ChAv5BOfBI/mVNKkdoUY3I3QleN/wEp2vXwSvRac/kG6YTCZwikxEH2bHLI3/M4iIJfje8HzSYsOXk34w+OIRmkobQ5kb9+ch808UUMxv);strokeColor=none;spacingTop=-3;spacingBottom=-3;spacingLeft=-3;spacingRight=-3;points=[];labelBackgroundColor=none;rounded=0;html=1;whiteSpace=wrap;" vertex="1" parent="GR6ykVju9A3iwefrX5M7-491">
          <mxGeometry x="51" y="31" width="17" height="17" as="geometry" />
        </mxCell>
        <mxCell id="GR6ykVju9A3iwefrX5M7-501" value="&lt;div&gt;Oracle 8&lt;/div&gt;&lt;div&gt;Golden Instance 2&lt;br&gt;&lt;/div&gt;" style="verticalAlign=middle;align=center;vsdxID=68;fillColor=none;gradientColor=none;shape=stencil(nZBLDoAgDERP0z3SIyjew0SURgSD+Lu9kMZoXLhwN9O+tukAlrNpJg1SzDH4QW/URgNYgZTkjA4UkwJUgGXng+6DX1zLfmoymdXo17xh5zmRJ6Q42BWCfc2oJfdAr+Yv+AP9Cb7OJ3H/2JG1HNGz/84klThPVCc=);strokeColor=none;spacingTop=-3;spacingBottom=-3;spacingLeft=-3;spacingRight=-3;points=[];labelBackgroundColor=none;rounded=0;html=1;whiteSpace=wrap;" vertex="1" parent="1">
          <mxGeometry x="610" y="409.0000000000002" width="146" height="41" as="geometry" />
        </mxCell>
        <mxCell id="GR6ykVju9A3iwefrX5M7-502" style="vsdxID=53;fillColor=none;gradientColor=none;strokeColor=none;spacingTop=-3;spacingBottom=-3;spacingLeft=-3;spacingRight=-3;points=[];labelBackgroundColor=none;rounded=0;html=1;whiteSpace=wrap;" vertex="1" parent="1">
          <mxGeometry x="640" y="560.0000000000002" width="84" height="84" as="geometry" />
        </mxCell>
        <mxCell id="GR6ykVju9A3iwefrX5M7-503" style="vsdxID=54;fillColor=none;gradientColor=none;strokeColor=none;spacingTop=-3;spacingBottom=-3;spacingLeft=-3;spacingRight=-3;points=[];labelBackgroundColor=none;rounded=0;html=1;whiteSpace=wrap;" vertex="1" parent="GR6ykVju9A3iwefrX5M7-502">
          <mxGeometry width="84" height="84" as="geometry" />
        </mxCell>
        <mxCell id="GR6ykVju9A3iwefrX5M7-504" style="vsdxID=55;fillColor=#FFFFFF;gradientColor=none;shape=stencil(lZPRDoIwDEW/Zq9LWUHCs+J/EAVZRCATFP/eYYdsAzW+td2922mzMtxey6zNmYBrp5pzfpfHrmS4Y0LIusyV7HTEMGW4LRqVn1TT10fK22xUjtGluY03DOSLOEajScCDCknC482rsif9oVdkCEggeIjGEfgWGASVwChMmsQchVGgqzBpEvLQfrWStUUJDuKb+QMhuHgz8ERnteDyTnDWVBzcVTiNvnFnCN/o9Cyi2CUEFy8Ab3xWB+hLfOJVxFnuI3+AnA1L6kEsG/HJB1zOxkNfBf39Hf/V62D++4WsKlod+9zfFV2iPcP0CQ==);strokeColor=none;spacingTop=-3;spacingBottom=-3;spacingLeft=-3;spacingRight=-3;points=[];labelBackgroundColor=none;rounded=0;html=1;whiteSpace=wrap;" vertex="1" parent="GR6ykVju9A3iwefrX5M7-503">
          <mxGeometry x="1" y="1" width="82" height="82" as="geometry" />
        </mxCell>
        <mxCell id="GR6ykVju9A3iwefrX5M7-505" style="vsdxID=56;fillColor=#FFFFFF;gradientColor=none;shape=stencil(lZXRdoIwDIafprc9aUMpvXb6Hp6JgzMmHsSNvf1gLbQNCHpX4h/88iehDHe34njNmYRb29Sf+U95aguGb0zK8lLkTdn2J4Z7hrtz3eQfTX2/nOzz9Tgoh9NX/T28obN5BjmqIUvCr41Ijtl/4GD17/fGJgiXoXhiXIYgKdBJJ9IcR5ELJVy6SIdzkQulPMHwz6vyEsIGCRN+JlZpgxRfgFEEN6jJV5ClhDfwCqlqEbgvR8S8VE95e5c0wdU8lTFu77cmtIprEdMGIs+v9GPYIGG5GZQ1SBCzHstZPXI2LDhzCZdnkIzB5sy+qt/aCXihxbBuWaZiyyD2C6hZdAghdmp9YSAi21wWYHTyREInb+J3EQHANro5Sh41R8U7TeQLGy2Ih56BQgXbPJWCVPPcenj9c9thDNcp/U5O3Ry5Um5EjErsXPjorLu5Nrr9wV8E57Kq7D0S/k4vjj5kLx3c/wE=);strokeColor=none;spacingTop=-3;spacingBottom=-3;spacingLeft=-3;spacingRight=-3;points=[];labelBackgroundColor=none;rounded=0;html=1;whiteSpace=wrap;" vertex="1" parent="GR6ykVju9A3iwefrX5M7-503">
          <mxGeometry width="84" height="84" as="geometry" />
        </mxCell>
        <mxCell id="GR6ykVju9A3iwefrX5M7-506" style="vsdxID=57;fillColor=none;gradientColor=none;strokeColor=none;spacingTop=-3;spacingBottom=-3;spacingLeft=-3;spacingRight=-3;points=[];labelBackgroundColor=none;rounded=0;html=1;whiteSpace=wrap;" vertex="1" parent="GR6ykVju9A3iwefrX5M7-502">
          <mxGeometry x="2" y="2" width="80" height="80" as="geometry" />
        </mxCell>
        <mxCell id="GR6ykVju9A3iwefrX5M7-507" style="vsdxID=58;fillColor=#2d5967;gradientColor=none;shape=stencil(lZXLcoMwDEW/xlvGWDzidZr8R6YhhSmFDCEt+ftCbbAkB+Lu/LgyR/IVFrC/ladrIZS89V37WfxU574U8CaUqpqy6Kp+HAk4CNhf2q746Np7czbz62lSTqOv9ns6YTBxOo3SeIpS8mFW5N/saMR11SBxEqlkXft+78zJsdmMI62tOsZyOSgyfdipsrtAd2H5drpOJgmWzra4JIXSO0qFsOcVKSkaqgNQyVO4scZ5RgCZnBPqXSRjSukYONRMueQBXAAOY6OETv+84B6kno9bIBVF1LnLm175AL774KX9XniVGTtzNVzJ38so88puneRSSr2UxihbqK20nCqsszw9hwWvuzCImkV5wmkpKlKE2QQFhPkEBdiVhEPyhoPFWesdB5uUfstxfcDlIwx01+z6EwqKFUF/rgCf/jtgHLj//aWqa/Nc4H3+PoxL5m2Bwy8=);strokeColor=none;spacingTop=-3;spacingBottom=-3;spacingLeft=-3;spacingRight=-3;points=[];labelBackgroundColor=none;rounded=0;html=1;whiteSpace=wrap;" vertex="1" parent="GR6ykVju9A3iwefrX5M7-506">
          <mxGeometry width="80" height="80" as="geometry" />
        </mxCell>
        <mxCell id="GR6ykVju9A3iwefrX5M7-508" style="vsdxID=59;fillColor=#2d5967;gradientColor=none;shape=stencil(pZJbDsIgFERXwy+hQBW/a91Hk1IhIjQUX7sXcmNsNaWx/s1wz32EDGLVoJpeIkqG4N1J3nQbFGJ7RKm2SnodokKsRqzqnJdH7y62Bd83iUzq7K5pwh36SOqg5AGuIOAPgBptR+iruArOoCvB7PosOv0BjkUxpTdYlPOjdxyXf/GCY7qd57/u+ZVfuGeZj+Idl04bA2kb1z/jFZ8gmqx+Ag==);strokeColor=none;spacingTop=-3;spacingBottom=-3;spacingLeft=-3;spacingRight=-3;points=[];labelBackgroundColor=none;rounded=0;html=1;whiteSpace=wrap;" vertex="1" parent="GR6ykVju9A3iwefrX5M7-506">
          <mxGeometry x="11" y="51" width="58" height="17" as="geometry" />
        </mxCell>
        <mxCell id="GR6ykVju9A3iwefrX5M7-509" style="vsdxID=60;fillColor=#2d5967;gradientColor=none;shape=stencil(jVLRDoMgDPwaXg2UOeezc/9hJk4ypwZ107+fpCRClxnf2nLH9eCYzIa66BUDPoyme6qPLseaySsD0G2tjB7XismcyazqjHqYbmpL7PvCIm316t72hhl5MbcU4Au2gmN/Q+x9MggWeJwk0Vk4gggZfAYyWGAjgcNIinGDUxql6Z7yxnADgEheQmV/OzfioW5MZHfNWoUkFCVWiVF/JRkijtokJv2ng9+t6Iv/s0l+tdHt4QSsxRadSjcNJs8/p1FbRxhTmX8B);strokeColor=none;spacingTop=-3;spacingBottom=-3;spacingLeft=-3;spacingRight=-3;points=[];labelBackgroundColor=none;rounded=0;html=1;whiteSpace=wrap;" vertex="1" parent="GR6ykVju9A3iwefrX5M7-506">
          <mxGeometry x="57" y="58" width="4" height="4" as="geometry" />
        </mxCell>
        <mxCell id="GR6ykVju9A3iwefrX5M7-510" style="vsdxID=61;fillColor=#2d5967;gradientColor=none;shape=stencil(pZLbDsIgEES/Zl8JZW3E51r/o0mpEBEa2nr5e0Fi2qrpRd92Z8+QCRnArJFFLYDRpnX2JK6qbCXgHhhTRgqnWj8B5oBZZZ04OtuZMu51Ecgwne0lvHCLvh0nnAcXo/eo0Od2iLBWZgDT38CETqCv4yJ4VdoZePwPHEmyGcFBSSdyp2SL/xl65avhM9Jqw0ykBQY/9NWplNaxecP7e9W8FGuK+QM=);strokeColor=none;spacingTop=-3;spacingBottom=-3;spacingLeft=-3;spacingRight=-3;points=[];labelBackgroundColor=none;rounded=0;html=1;whiteSpace=wrap;" vertex="1" parent="GR6ykVju9A3iwefrX5M7-506">
          <mxGeometry x="11" y="11" width="17" height="17" as="geometry" />
        </mxCell>
        <mxCell id="GR6ykVju9A3iwefrX5M7-511" style="vsdxID=62;fillColor=#2d5967;gradientColor=none;shape=stencil(pZJJDoMwDEVP422UxGXYU3oPJEKJmhIUoMPtm8iqCnSE7vzj920r+oBZVxetAsm73tmDOuuyrwG3IKVuauV07yvAHDCrrFN7Z4emJN0WgQzV0Z7ChAv5BOfBI/mVNKkdoUY3I3QleN/wEp2vXwSvRac/kG6YTCZwikxEH2bHLI3/M4iIJfje8HzSYsOXk34w+OIRmkobQ5kb9+ch808UUMxv);strokeColor=none;spacingTop=-3;spacingBottom=-3;spacingLeft=-3;spacingRight=-3;points=[];labelBackgroundColor=none;rounded=0;html=1;whiteSpace=wrap;" vertex="1" parent="GR6ykVju9A3iwefrX5M7-506">
          <mxGeometry x="31" y="11" width="17" height="17" as="geometry" />
        </mxCell>
        <mxCell id="GR6ykVju9A3iwefrX5M7-512" style="vsdxID=63;fillColor=#2d5967;gradientColor=none;shape=stencil(pZLbDsIgEES/Zl8JZW3E51r/o0mpEBEa2nr5e0Fi2qrpRd92Z8+QCRnArJFFLYDRpnX2JK6qbCXgHhhTRgqnWj8B5oBZZZ04OtuZMu51Ecgwne0lvHCLvh0nnAcXo/eo0Od2iLBWZgDT38CETqCv4yJ4VdoZePwPHEmyGcFBSSdyp2SL/xl65avhM9Jqw0ykBQY/9NWplNaxecP7e9W8FGuK+QM=);strokeColor=none;spacingTop=-3;spacingBottom=-3;spacingLeft=-3;spacingRight=-3;points=[];labelBackgroundColor=none;rounded=0;html=1;whiteSpace=wrap;" vertex="1" parent="GR6ykVju9A3iwefrX5M7-506">
          <mxGeometry x="11" y="31" width="17" height="17" as="geometry" />
        </mxCell>
        <mxCell id="GR6ykVju9A3iwefrX5M7-513" style="vsdxID=64;fillColor=#2d5967;gradientColor=none;shape=stencil(pZJJDoMwDEVP422UxGXYU3oPJEKJmhIUoMPtm8iqCnSE7vzj920r+oBZVxetAsm73tmDOuuyrwG3IKVuauV07yvAHDCrrFN7Z4emJN0WgQzV0Z7ChAv5BOfBI/mVNKkdoUY3I3QleN/wEp2vXwSvRac/kG6YTCZwikxEH2bHLI3/M4iIJfje8HzSYsOXk34w+OIRmkobQ5kb9+ch808UUMxv);strokeColor=none;spacingTop=-3;spacingBottom=-3;spacingLeft=-3;spacingRight=-3;points=[];labelBackgroundColor=none;rounded=0;html=1;whiteSpace=wrap;" vertex="1" parent="GR6ykVju9A3iwefrX5M7-506">
          <mxGeometry x="31" y="31" width="17" height="17" as="geometry" />
        </mxCell>
        <mxCell id="GR6ykVju9A3iwefrX5M7-514" style="vsdxID=65;fillColor=#2d5967;gradientColor=none;shape=stencil(pZJJDoMwDEVP422UxGXYU3oPJEKJmhIUoMPtm8iqCnSE7vzj920r+oBZVxetAsm73tmDOuuyrwG3IKVuauV07yvAHDCrrFN7Z4emJN0WgQzV0Z7ChAv5BOfBI/mVNKkdoUY3I3QleN/wEp2vXwSvRac/kG6YTCZwikxEH2bHLI3/M4iIJfje8HzSYsOXk34w+OIRmkobQ5kb9+ch808UUMxv);strokeColor=none;spacingTop=-3;spacingBottom=-3;spacingLeft=-3;spacingRight=-3;points=[];labelBackgroundColor=none;rounded=0;html=1;whiteSpace=wrap;" vertex="1" parent="GR6ykVju9A3iwefrX5M7-506">
          <mxGeometry x="51" y="11" width="17" height="17" as="geometry" />
        </mxCell>
        <mxCell id="GR6ykVju9A3iwefrX5M7-515" style="vsdxID=66;fillColor=#2d5967;gradientColor=none;shape=stencil(pZJJDoMwDEVP422UxGXYU3oPJEKJmhIUoMPtm8iqCnSE7vzj920r+oBZVxetAsm73tmDOuuyrwG3IKVuauV07yvAHDCrrFN7Z4emJN0WgQzV0Z7ChAv5BOfBI/mVNKkdoUY3I3QleN/wEp2vXwSvRac/kG6YTCZwikxEH2bHLI3/M4iIJfje8HzSYsOXk34w+OIRmkobQ5kb9+ch808UUMxv);strokeColor=none;spacingTop=-3;spacingBottom=-3;spacingLeft=-3;spacingRight=-3;points=[];labelBackgroundColor=none;rounded=0;html=1;whiteSpace=wrap;" vertex="1" parent="GR6ykVju9A3iwefrX5M7-506">
          <mxGeometry x="51" y="31" width="17" height="17" as="geometry" />
        </mxCell>
        <mxCell id="GR6ykVju9A3iwefrX5M7-516" value="&lt;div&gt;Oracle 9&lt;br&gt;&lt;/div&gt;&lt;div&gt;Golden Instance 1&lt;br&gt;&lt;/div&gt;" style="verticalAlign=middle;align=center;vsdxID=68;fillColor=none;gradientColor=none;shape=stencil(nZBLDoAgDERP0z3SIyjew0SURgSD+Lu9kMZoXLhwN9O+tukAlrNpJg1SzDH4QW/URgNYgZTkjA4UkwJUgGXng+6DX1zLfmoymdXo17xh5zmRJ6Q42BWCfc2oJfdAr+Yv+AP9Cb7OJ3H/2JG1HNGz/84klThPVCc=);strokeColor=none;spacingTop=-3;spacingBottom=-3;spacingLeft=-3;spacingRight=-3;points=[];labelBackgroundColor=none;rounded=0;html=1;whiteSpace=wrap;" vertex="1" parent="1">
          <mxGeometry x="610" y="649.0000000000002" width="146" height="41" as="geometry" />
        </mxCell>
        <mxCell id="GR6ykVju9A3iwefrX5M7-517" style="vsdxID=53;fillColor=none;gradientColor=none;strokeColor=none;spacingTop=-3;spacingBottom=-3;spacingLeft=-3;spacingRight=-3;points=[];labelBackgroundColor=none;rounded=0;html=1;whiteSpace=wrap;" vertex="1" parent="1">
          <mxGeometry x="640" y="800.0000000000002" width="84" height="84" as="geometry" />
        </mxCell>
        <mxCell id="GR6ykVju9A3iwefrX5M7-518" style="vsdxID=54;fillColor=none;gradientColor=none;strokeColor=none;spacingTop=-3;spacingBottom=-3;spacingLeft=-3;spacingRight=-3;points=[];labelBackgroundColor=none;rounded=0;html=1;whiteSpace=wrap;" vertex="1" parent="GR6ykVju9A3iwefrX5M7-517">
          <mxGeometry width="84" height="84" as="geometry" />
        </mxCell>
        <mxCell id="GR6ykVju9A3iwefrX5M7-519" style="vsdxID=55;fillColor=#FFFFFF;gradientColor=none;shape=stencil(lZPRDoIwDEW/Zq9LWUHCs+J/EAVZRCATFP/eYYdsAzW+td2922mzMtxey6zNmYBrp5pzfpfHrmS4Y0LIusyV7HTEMGW4LRqVn1TT10fK22xUjtGluY03DOSLOEajScCDCknC482rsif9oVdkCEggeIjGEfgWGASVwChMmsQchVGgqzBpEvLQfrWStUUJDuKb+QMhuHgz8ERnteDyTnDWVBzcVTiNvnFnCN/o9Cyi2CUEFy8Ab3xWB+hLfOJVxFnuI3+AnA1L6kEsG/HJB1zOxkNfBf39Hf/V62D++4WsKlod+9zfFV2iPcP0CQ==);strokeColor=none;spacingTop=-3;spacingBottom=-3;spacingLeft=-3;spacingRight=-3;points=[];labelBackgroundColor=none;rounded=0;html=1;whiteSpace=wrap;" vertex="1" parent="GR6ykVju9A3iwefrX5M7-518">
          <mxGeometry x="1" y="1" width="82" height="82" as="geometry" />
        </mxCell>
        <mxCell id="GR6ykVju9A3iwefrX5M7-520" style="vsdxID=56;fillColor=#FFFFFF;gradientColor=none;shape=stencil(lZXRdoIwDIafprc9aUMpvXb6Hp6JgzMmHsSNvf1gLbQNCHpX4h/88iehDHe34njNmYRb29Sf+U95aguGb0zK8lLkTdn2J4Z7hrtz3eQfTX2/nOzz9Tgoh9NX/T28obN5BjmqIUvCr41Ijtl/4GD17/fGJgiXoXhiXIYgKdBJJ9IcR5ELJVy6SIdzkQulPMHwz6vyEsIGCRN+JlZpgxRfgFEEN6jJV5ClhDfwCqlqEbgvR8S8VE95e5c0wdU8lTFu77cmtIprEdMGIs+v9GPYIGG5GZQ1SBCzHstZPXI2LDhzCZdnkIzB5sy+qt/aCXihxbBuWaZiyyD2C6hZdAghdmp9YSAi21wWYHTyREInb+J3EQHANro5Sh41R8U7TeQLGy2Ih56BQgXbPJWCVPPcenj9c9thDNcp/U5O3Ry5Um5EjErsXPjorLu5Nrr9wV8E57Kq7D0S/k4vjj5kLx3c/wE=);strokeColor=none;spacingTop=-3;spacingBottom=-3;spacingLeft=-3;spacingRight=-3;points=[];labelBackgroundColor=none;rounded=0;html=1;whiteSpace=wrap;" vertex="1" parent="GR6ykVju9A3iwefrX5M7-518">
          <mxGeometry width="84" height="84" as="geometry" />
        </mxCell>
        <mxCell id="GR6ykVju9A3iwefrX5M7-521" style="vsdxID=57;fillColor=none;gradientColor=none;strokeColor=none;spacingTop=-3;spacingBottom=-3;spacingLeft=-3;spacingRight=-3;points=[];labelBackgroundColor=none;rounded=0;html=1;whiteSpace=wrap;" vertex="1" parent="GR6ykVju9A3iwefrX5M7-517">
          <mxGeometry x="2" y="2" width="80" height="80" as="geometry" />
        </mxCell>
        <mxCell id="GR6ykVju9A3iwefrX5M7-522" style="vsdxID=58;fillColor=#2d5967;gradientColor=none;shape=stencil(lZXLcoMwDEW/xlvGWDzidZr8R6YhhSmFDCEt+ftCbbAkB+Lu/LgyR/IVFrC/ladrIZS89V37WfxU574U8CaUqpqy6Kp+HAk4CNhf2q746Np7czbz62lSTqOv9ns6YTBxOo3SeIpS8mFW5N/saMR11SBxEqlkXft+78zJsdmMI62tOsZyOSgyfdipsrtAd2H5drpOJgmWzra4JIXSO0qFsOcVKSkaqgNQyVO4scZ5RgCZnBPqXSRjSukYONRMueQBXAAOY6OETv+84B6kno9bIBVF1LnLm175AL774KX9XniVGTtzNVzJ38so88puneRSSr2UxihbqK20nCqsszw9hwWvuzCImkV5wmkpKlKE2QQFhPkEBdiVhEPyhoPFWesdB5uUfstxfcDlIwx01+z6EwqKFUF/rgCf/jtgHLj//aWqa/Nc4H3+PoxL5m2Bwy8=);strokeColor=none;spacingTop=-3;spacingBottom=-3;spacingLeft=-3;spacingRight=-3;points=[];labelBackgroundColor=none;rounded=0;html=1;whiteSpace=wrap;" vertex="1" parent="GR6ykVju9A3iwefrX5M7-521">
          <mxGeometry width="80" height="80" as="geometry" />
        </mxCell>
        <mxCell id="GR6ykVju9A3iwefrX5M7-523" style="vsdxID=59;fillColor=#2d5967;gradientColor=none;shape=stencil(pZJbDsIgFERXwy+hQBW/a91Hk1IhIjQUX7sXcmNsNaWx/s1wz32EDGLVoJpeIkqG4N1J3nQbFGJ7RKm2SnodokKsRqzqnJdH7y62Bd83iUzq7K5pwh36SOqg5AGuIOAPgBptR+iruArOoCvB7PosOv0BjkUxpTdYlPOjdxyXf/GCY7qd57/u+ZVfuGeZj+Idl04bA2kb1z/jFZ8gmqx+Ag==);strokeColor=none;spacingTop=-3;spacingBottom=-3;spacingLeft=-3;spacingRight=-3;points=[];labelBackgroundColor=none;rounded=0;html=1;whiteSpace=wrap;" vertex="1" parent="GR6ykVju9A3iwefrX5M7-521">
          <mxGeometry x="11" y="51" width="58" height="17" as="geometry" />
        </mxCell>
        <mxCell id="GR6ykVju9A3iwefrX5M7-524" style="vsdxID=60;fillColor=#2d5967;gradientColor=none;shape=stencil(jVLRDoMgDPwaXg2UOeezc/9hJk4ypwZ107+fpCRClxnf2nLH9eCYzIa66BUDPoyme6qPLseaySsD0G2tjB7XismcyazqjHqYbmpL7PvCIm316t72hhl5MbcU4Au2gmN/Q+x9MggWeJwk0Vk4gggZfAYyWGAjgcNIinGDUxql6Z7yxnADgEheQmV/OzfioW5MZHfNWoUkFCVWiVF/JRkijtokJv2ng9+t6Iv/s0l+tdHt4QSsxRadSjcNJs8/p1FbRxhTmX8B);strokeColor=none;spacingTop=-3;spacingBottom=-3;spacingLeft=-3;spacingRight=-3;points=[];labelBackgroundColor=none;rounded=0;html=1;whiteSpace=wrap;" vertex="1" parent="GR6ykVju9A3iwefrX5M7-521">
          <mxGeometry x="57" y="58" width="4" height="4" as="geometry" />
        </mxCell>
        <mxCell id="GR6ykVju9A3iwefrX5M7-525" style="vsdxID=61;fillColor=#2d5967;gradientColor=none;shape=stencil(pZLbDsIgEES/Zl8JZW3E51r/o0mpEBEa2nr5e0Fi2qrpRd92Z8+QCRnArJFFLYDRpnX2JK6qbCXgHhhTRgqnWj8B5oBZZZ04OtuZMu51Ecgwne0lvHCLvh0nnAcXo/eo0Od2iLBWZgDT38CETqCv4yJ4VdoZePwPHEmyGcFBSSdyp2SL/xl65avhM9Jqw0ykBQY/9NWplNaxecP7e9W8FGuK+QM=);strokeColor=none;spacingTop=-3;spacingBottom=-3;spacingLeft=-3;spacingRight=-3;points=[];labelBackgroundColor=none;rounded=0;html=1;whiteSpace=wrap;" vertex="1" parent="GR6ykVju9A3iwefrX5M7-521">
          <mxGeometry x="11" y="11" width="17" height="17" as="geometry" />
        </mxCell>
        <mxCell id="GR6ykVju9A3iwefrX5M7-526" style="vsdxID=62;fillColor=#2d5967;gradientColor=none;shape=stencil(pZJJDoMwDEVP422UxGXYU3oPJEKJmhIUoMPtm8iqCnSE7vzj920r+oBZVxetAsm73tmDOuuyrwG3IKVuauV07yvAHDCrrFN7Z4emJN0WgQzV0Z7ChAv5BOfBI/mVNKkdoUY3I3QleN/wEp2vXwSvRac/kG6YTCZwikxEH2bHLI3/M4iIJfje8HzSYsOXk34w+OIRmkobQ5kb9+ch808UUMxv);strokeColor=none;spacingTop=-3;spacingBottom=-3;spacingLeft=-3;spacingRight=-3;points=[];labelBackgroundColor=none;rounded=0;html=1;whiteSpace=wrap;" vertex="1" parent="GR6ykVju9A3iwefrX5M7-521">
          <mxGeometry x="31" y="11" width="17" height="17" as="geometry" />
        </mxCell>
        <mxCell id="GR6ykVju9A3iwefrX5M7-527" style="vsdxID=63;fillColor=#2d5967;gradientColor=none;shape=stencil(pZLbDsIgEES/Zl8JZW3E51r/o0mpEBEa2nr5e0Fi2qrpRd92Z8+QCRnArJFFLYDRpnX2JK6qbCXgHhhTRgqnWj8B5oBZZZ04OtuZMu51Ecgwne0lvHCLvh0nnAcXo/eo0Od2iLBWZgDT38CETqCv4yJ4VdoZePwPHEmyGcFBSSdyp2SL/xl65avhM9Jqw0ykBQY/9NWplNaxecP7e9W8FGuK+QM=);strokeColor=none;spacingTop=-3;spacingBottom=-3;spacingLeft=-3;spacingRight=-3;points=[];labelBackgroundColor=none;rounded=0;html=1;whiteSpace=wrap;" vertex="1" parent="GR6ykVju9A3iwefrX5M7-521">
          <mxGeometry x="11" y="31" width="17" height="17" as="geometry" />
        </mxCell>
        <mxCell id="GR6ykVju9A3iwefrX5M7-528" style="vsdxID=64;fillColor=#2d5967;gradientColor=none;shape=stencil(pZJJDoMwDEVP422UxGXYU3oPJEKJmhIUoMPtm8iqCnSE7vzj920r+oBZVxetAsm73tmDOuuyrwG3IKVuauV07yvAHDCrrFN7Z4emJN0WgQzV0Z7ChAv5BOfBI/mVNKkdoUY3I3QleN/wEp2vXwSvRac/kG6YTCZwikxEH2bHLI3/M4iIJfje8HzSYsOXk34w+OIRmkobQ5kb9+ch808UUMxv);strokeColor=none;spacingTop=-3;spacingBottom=-3;spacingLeft=-3;spacingRight=-3;points=[];labelBackgroundColor=none;rounded=0;html=1;whiteSpace=wrap;" vertex="1" parent="GR6ykVju9A3iwefrX5M7-521">
          <mxGeometry x="31" y="31" width="17" height="17" as="geometry" />
        </mxCell>
        <mxCell id="GR6ykVju9A3iwefrX5M7-529" style="vsdxID=65;fillColor=#2d5967;gradientColor=none;shape=stencil(pZJJDoMwDEVP422UxGXYU3oPJEKJmhIUoMPtm8iqCnSE7vzj920r+oBZVxetAsm73tmDOuuyrwG3IKVuauV07yvAHDCrrFN7Z4emJN0WgQzV0Z7ChAv5BOfBI/mVNKkdoUY3I3QleN/wEp2vXwSvRac/kG6YTCZwikxEH2bHLI3/M4iIJfje8HzSYsOXk34w+OIRmkobQ5kb9+ch808UUMxv);strokeColor=none;spacingTop=-3;spacingBottom=-3;spacingLeft=-3;spacingRight=-3;points=[];labelBackgroundColor=none;rounded=0;html=1;whiteSpace=wrap;" vertex="1" parent="GR6ykVju9A3iwefrX5M7-521">
          <mxGeometry x="51" y="11" width="17" height="17" as="geometry" />
        </mxCell>
        <mxCell id="GR6ykVju9A3iwefrX5M7-530" style="vsdxID=66;fillColor=#2d5967;gradientColor=none;shape=stencil(pZJJDoMwDEVP422UxGXYU3oPJEKJmhIUoMPtm8iqCnSE7vzj920r+oBZVxetAsm73tmDOuuyrwG3IKVuauV07yvAHDCrrFN7Z4emJN0WgQzV0Z7ChAv5BOfBI/mVNKkdoUY3I3QleN/wEp2vXwSvRac/kG6YTCZwikxEH2bHLI3/M4iIJfje8HzSYsOXk34w+OIRmkobQ5kb9+ch808UUMxv);strokeColor=none;spacingTop=-3;spacingBottom=-3;spacingLeft=-3;spacingRight=-3;points=[];labelBackgroundColor=none;rounded=0;html=1;whiteSpace=wrap;" vertex="1" parent="GR6ykVju9A3iwefrX5M7-521">
          <mxGeometry x="51" y="31" width="17" height="17" as="geometry" />
        </mxCell>
        <mxCell id="GR6ykVju9A3iwefrX5M7-531" value="&lt;div&gt;Oracle 9&lt;br&gt;&lt;/div&gt;&lt;div&gt;Golden Instance 2&lt;br&gt;&lt;/div&gt;" style="verticalAlign=middle;align=center;vsdxID=68;fillColor=none;gradientColor=none;shape=stencil(nZBLDoAgDERP0z3SIyjew0SURgSD+Lu9kMZoXLhwN9O+tukAlrNpJg1SzDH4QW/URgNYgZTkjA4UkwJUgGXng+6DX1zLfmoymdXo17xh5zmRJ6Q42BWCfc2oJfdAr+Yv+AP9Cb7OJ3H/2JG1HNGz/84klThPVCc=);strokeColor=none;spacingTop=-3;spacingBottom=-3;spacingLeft=-3;spacingRight=-3;points=[];labelBackgroundColor=none;rounded=0;html=1;whiteSpace=wrap;" vertex="1" parent="1">
          <mxGeometry x="610" y="889.0000000000002" width="146" height="41" as="geometry" />
        </mxCell>
        <mxCell id="GR6ykVju9A3iwefrX5M7-164" style="vsdxID=55;fillColor=#FFFFFF;gradientColor=none;shape=stencil(lZPRDoIwDEW/Zq9LWUHCs+J/EAVZRCATFP/eYYdsAzW+td2922mzMtxey6zNmYBrp5pzfpfHrmS4Y0LIusyV7HTEMGW4LRqVn1TT10fK22xUjtGluY03DOSLOEajScCDCknC482rsif9oVdkCEggeIjGEfgWGASVwChMmsQchVGgqzBpEvLQfrWStUUJDuKb+QMhuHgz8ERnteDyTnDWVBzcVTiNvnFnCN/o9Cyi2CUEFy8Ab3xWB+hLfOJVxFnuI3+AnA1L6kEsG/HJB1zOxkNfBf39Hf/V62D++4WsKlod+9zfFV2iPcP0CQ==);strokeColor=none;spacingTop=-3;spacingBottom=-3;spacingLeft=-3;spacingRight=-3;points=[];labelBackgroundColor=none;rounded=0;html=1;whiteSpace=wrap;container=0;" vertex="1" parent="1">
          <mxGeometry x="148" y="330" width="82" height="82" as="geometry" />
        </mxCell>
        <mxCell id="GR6ykVju9A3iwefrX5M7-165" style="vsdxID=56;fillColor=#FFFFFF;gradientColor=none;shape=stencil(lZXRdoIwDIafprc9aUMpvXb6Hp6JgzMmHsSNvf1gLbQNCHpX4h/88iehDHe34njNmYRb29Sf+U95aguGb0zK8lLkTdn2J4Z7hrtz3eQfTX2/nOzz9Tgoh9NX/T28obN5BjmqIUvCr41Ijtl/4GD17/fGJgiXoXhiXIYgKdBJJ9IcR5ELJVy6SIdzkQulPMHwz6vyEsIGCRN+JlZpgxRfgFEEN6jJV5ClhDfwCqlqEbgvR8S8VE95e5c0wdU8lTFu77cmtIprEdMGIs+v9GPYIGG5GZQ1SBCzHstZPXI2LDhzCZdnkIzB5sy+qt/aCXihxbBuWaZiyyD2C6hZdAghdmp9YSAi21wWYHTyREInb+J3EQHANro5Sh41R8U7TeQLGy2Ih56BQgXbPJWCVPPcenj9c9thDNcp/U5O3Ry5Um5EjErsXPjorLu5Nrr9wV8E57Kq7D0S/k4vjj5kLx3c/wE=);strokeColor=none;spacingTop=-3;spacingBottom=-3;spacingLeft=-3;spacingRight=-3;points=[];labelBackgroundColor=none;rounded=0;html=1;whiteSpace=wrap;container=0;" vertex="1" parent="1">
          <mxGeometry x="147" y="329" width="84" height="84" as="geometry" />
        </mxCell>
        <mxCell id="GR6ykVju9A3iwefrX5M7-167" style="vsdxID=58;fillColor=#2d5967;gradientColor=none;shape=stencil(lZXLcoMwDEW/xlvGWDzidZr8R6YhhSmFDCEt+ftCbbAkB+Lu/LgyR/IVFrC/ladrIZS89V37WfxU574U8CaUqpqy6Kp+HAk4CNhf2q746Np7czbz62lSTqOv9ns6YTBxOo3SeIpS8mFW5N/saMR11SBxEqlkXft+78zJsdmMI62tOsZyOSgyfdipsrtAd2H5drpOJgmWzra4JIXSO0qFsOcVKSkaqgNQyVO4scZ5RgCZnBPqXSRjSukYONRMueQBXAAOY6OETv+84B6kno9bIBVF1LnLm175AL774KX9XniVGTtzNVzJ38so88puneRSSr2UxihbqK20nCqsszw9hwWvuzCImkV5wmkpKlKE2QQFhPkEBdiVhEPyhoPFWesdB5uUfstxfcDlIwx01+z6EwqKFUF/rgCf/jtgHLj//aWqa/Nc4H3+PoxL5m2Bwy8=);strokeColor=none;spacingTop=-3;spacingBottom=-3;spacingLeft=-3;spacingRight=-3;points=[];labelBackgroundColor=none;rounded=0;html=1;whiteSpace=wrap;container=0;" vertex="1" parent="1">
          <mxGeometry x="149" y="331" width="80" height="80" as="geometry" />
        </mxCell>
        <mxCell id="GR6ykVju9A3iwefrX5M7-168" style="vsdxID=59;fillColor=#2d5967;gradientColor=none;shape=stencil(pZJbDsIgFERXwy+hQBW/a91Hk1IhIjQUX7sXcmNsNaWx/s1wz32EDGLVoJpeIkqG4N1J3nQbFGJ7RKm2SnodokKsRqzqnJdH7y62Bd83iUzq7K5pwh36SOqg5AGuIOAPgBptR+iruArOoCvB7PosOv0BjkUxpTdYlPOjdxyXf/GCY7qd57/u+ZVfuGeZj+Idl04bA2kb1z/jFZ8gmqx+Ag==);strokeColor=none;spacingTop=-3;spacingBottom=-3;spacingLeft=-3;spacingRight=-3;points=[];labelBackgroundColor=none;rounded=0;html=1;whiteSpace=wrap;container=0;" vertex="1" parent="1">
          <mxGeometry x="160" y="382" width="58" height="17" as="geometry" />
        </mxCell>
        <mxCell id="GR6ykVju9A3iwefrX5M7-169" style="vsdxID=60;fillColor=#2d5967;gradientColor=none;shape=stencil(jVLRDoMgDPwaXg2UOeezc/9hJk4ypwZ107+fpCRClxnf2nLH9eCYzIa66BUDPoyme6qPLseaySsD0G2tjB7XismcyazqjHqYbmpL7PvCIm316t72hhl5MbcU4Au2gmN/Q+x9MggWeJwk0Vk4gggZfAYyWGAjgcNIinGDUxql6Z7yxnADgEheQmV/OzfioW5MZHfNWoUkFCVWiVF/JRkijtokJv2ng9+t6Iv/s0l+tdHt4QSsxRadSjcNJs8/p1FbRxhTmX8B);strokeColor=none;spacingTop=-3;spacingBottom=-3;spacingLeft=-3;spacingRight=-3;points=[];labelBackgroundColor=none;rounded=0;html=1;whiteSpace=wrap;container=0;" vertex="1" parent="1">
          <mxGeometry x="206" y="389" width="4" height="4" as="geometry" />
        </mxCell>
        <mxCell id="GR6ykVju9A3iwefrX5M7-170" style="vsdxID=61;fillColor=#2d5967;gradientColor=none;shape=stencil(pZLbDsIgEES/Zl8JZW3E51r/o0mpEBEa2nr5e0Fi2qrpRd92Z8+QCRnArJFFLYDRpnX2JK6qbCXgHhhTRgqnWj8B5oBZZZ04OtuZMu51Ecgwne0lvHCLvh0nnAcXo/eo0Od2iLBWZgDT38CETqCv4yJ4VdoZePwPHEmyGcFBSSdyp2SL/xl65avhM9Jqw0ykBQY/9NWplNaxecP7e9W8FGuK+QM=);strokeColor=none;spacingTop=-3;spacingBottom=-3;spacingLeft=-3;spacingRight=-3;points=[];labelBackgroundColor=none;rounded=0;html=1;whiteSpace=wrap;container=0;" vertex="1" parent="1">
          <mxGeometry x="160" y="342" width="17" height="17" as="geometry" />
        </mxCell>
        <mxCell id="GR6ykVju9A3iwefrX5M7-171" style="vsdxID=62;fillColor=#2d5967;gradientColor=none;shape=stencil(pZJJDoMwDEVP422UxGXYU3oPJEKJmhIUoMPtm8iqCnSE7vzj920r+oBZVxetAsm73tmDOuuyrwG3IKVuauV07yvAHDCrrFN7Z4emJN0WgQzV0Z7ChAv5BOfBI/mVNKkdoUY3I3QleN/wEp2vXwSvRac/kG6YTCZwikxEH2bHLI3/M4iIJfje8HzSYsOXk34w+OIRmkobQ5kb9+ch808UUMxv);strokeColor=none;spacingTop=-3;spacingBottom=-3;spacingLeft=-3;spacingRight=-3;points=[];labelBackgroundColor=none;rounded=0;html=1;whiteSpace=wrap;container=0;" vertex="1" parent="1">
          <mxGeometry x="180" y="342" width="17" height="17" as="geometry" />
        </mxCell>
        <mxCell id="GR6ykVju9A3iwefrX5M7-172" style="vsdxID=63;fillColor=#2d5967;gradientColor=none;shape=stencil(pZLbDsIgEES/Zl8JZW3E51r/o0mpEBEa2nr5e0Fi2qrpRd92Z8+QCRnArJFFLYDRpnX2JK6qbCXgHhhTRgqnWj8B5oBZZZ04OtuZMu51Ecgwne0lvHCLvh0nnAcXo/eo0Od2iLBWZgDT38CETqCv4yJ4VdoZePwPHEmyGcFBSSdyp2SL/xl65avhM9Jqw0ykBQY/9NWplNaxecP7e9W8FGuK+QM=);strokeColor=none;spacingTop=-3;spacingBottom=-3;spacingLeft=-3;spacingRight=-3;points=[];labelBackgroundColor=none;rounded=0;html=1;whiteSpace=wrap;container=0;" vertex="1" parent="1">
          <mxGeometry x="160" y="362" width="17" height="17" as="geometry" />
        </mxCell>
        <mxCell id="GR6ykVju9A3iwefrX5M7-173" style="vsdxID=64;fillColor=#2d5967;gradientColor=none;shape=stencil(pZJJDoMwDEVP422UxGXYU3oPJEKJmhIUoMPtm8iqCnSE7vzj920r+oBZVxetAsm73tmDOuuyrwG3IKVuauV07yvAHDCrrFN7Z4emJN0WgQzV0Z7ChAv5BOfBI/mVNKkdoUY3I3QleN/wEp2vXwSvRac/kG6YTCZwikxEH2bHLI3/M4iIJfje8HzSYsOXk34w+OIRmkobQ5kb9+ch808UUMxv);strokeColor=none;spacingTop=-3;spacingBottom=-3;spacingLeft=-3;spacingRight=-3;points=[];labelBackgroundColor=none;rounded=0;html=1;whiteSpace=wrap;container=0;" vertex="1" parent="1">
          <mxGeometry x="180" y="362" width="17" height="17" as="geometry" />
        </mxCell>
        <mxCell id="GR6ykVju9A3iwefrX5M7-174" style="vsdxID=65;fillColor=#2d5967;gradientColor=none;shape=stencil(pZJJDoMwDEVP422UxGXYU3oPJEKJmhIUoMPtm8iqCnSE7vzj920r+oBZVxetAsm73tmDOuuyrwG3IKVuauV07yvAHDCrrFN7Z4emJN0WgQzV0Z7ChAv5BOfBI/mVNKkdoUY3I3QleN/wEp2vXwSvRac/kG6YTCZwikxEH2bHLI3/M4iIJfje8HzSYsOXk34w+OIRmkobQ5kb9+ch808UUMxv);strokeColor=none;spacingTop=-3;spacingBottom=-3;spacingLeft=-3;spacingRight=-3;points=[];labelBackgroundColor=none;rounded=0;html=1;whiteSpace=wrap;container=0;" vertex="1" parent="1">
          <mxGeometry x="200" y="342" width="17" height="17" as="geometry" />
        </mxCell>
        <mxCell id="GR6ykVju9A3iwefrX5M7-175" style="vsdxID=66;fillColor=#2d5967;gradientColor=none;shape=stencil(pZJJDoMwDEVP422UxGXYU3oPJEKJmhIUoMPtm8iqCnSE7vzj920r+oBZVxetAsm73tmDOuuyrwG3IKVuauV07yvAHDCrrFN7Z4emJN0WgQzV0Z7ChAv5BOfBI/mVNKkdoUY3I3QleN/wEp2vXwSvRac/kG6YTCZwikxEH2bHLI3/M4iIJfje8HzSYsOXk34w+OIRmkobQ5kb9+ch808UUMxv);strokeColor=none;spacingTop=-3;spacingBottom=-3;spacingLeft=-3;spacingRight=-3;points=[];labelBackgroundColor=none;rounded=0;html=1;whiteSpace=wrap;container=0;" vertex="1" parent="1">
          <mxGeometry x="200" y="362" width="17" height="17" as="geometry" />
        </mxCell>
        <mxCell id="GR6ykVju9A3iwefrX5M7-178" style="vsdxID=55;fillColor=#FFFFFF;gradientColor=none;shape=stencil(lZPRDoIwDEW/Zq9LWUHCs+J/EAVZRCATFP/eYYdsAzW+td2922mzMtxey6zNmYBrp5pzfpfHrmS4Y0LIusyV7HTEMGW4LRqVn1TT10fK22xUjtGluY03DOSLOEajScCDCknC482rsif9oVdkCEggeIjGEfgWGASVwChMmsQchVGgqzBpEvLQfrWStUUJDuKb+QMhuHgz8ERnteDyTnDWVBzcVTiNvnFnCN/o9Cyi2CUEFy8Ab3xWB+hLfOJVxFnuI3+AnA1L6kEsG/HJB1zOxkNfBf39Hf/V62D++4WsKlod+9zfFV2iPcP0CQ==);strokeColor=none;spacingTop=-3;spacingBottom=-3;spacingLeft=-3;spacingRight=-3;points=[];labelBackgroundColor=none;rounded=0;html=1;whiteSpace=wrap;container=0;" vertex="1" parent="1">
          <mxGeometry x="138" y="340" width="82" height="82" as="geometry" />
        </mxCell>
        <mxCell id="GR6ykVju9A3iwefrX5M7-179" style="vsdxID=56;fillColor=#FFFFFF;gradientColor=none;shape=stencil(lZXRdoIwDIafprc9aUMpvXb6Hp6JgzMmHsSNvf1gLbQNCHpX4h/88iehDHe34njNmYRb29Sf+U95aguGb0zK8lLkTdn2J4Z7hrtz3eQfTX2/nOzz9Tgoh9NX/T28obN5BjmqIUvCr41Ijtl/4GD17/fGJgiXoXhiXIYgKdBJJ9IcR5ELJVy6SIdzkQulPMHwz6vyEsIGCRN+JlZpgxRfgFEEN6jJV5ClhDfwCqlqEbgvR8S8VE95e5c0wdU8lTFu77cmtIprEdMGIs+v9GPYIGG5GZQ1SBCzHstZPXI2LDhzCZdnkIzB5sy+qt/aCXihxbBuWaZiyyD2C6hZdAghdmp9YSAi21wWYHTyREInb+J3EQHANro5Sh41R8U7TeQLGy2Ih56BQgXbPJWCVPPcenj9c9thDNcp/U5O3Ry5Um5EjErsXPjorLu5Nrr9wV8E57Kq7D0S/k4vjj5kLx3c/wE=);strokeColor=none;spacingTop=-3;spacingBottom=-3;spacingLeft=-3;spacingRight=-3;points=[];labelBackgroundColor=none;rounded=0;html=1;whiteSpace=wrap;container=0;" vertex="1" parent="1">
          <mxGeometry x="137" y="339" width="84" height="84" as="geometry" />
        </mxCell>
        <mxCell id="GR6ykVju9A3iwefrX5M7-181" style="vsdxID=58;fillColor=#2d5967;gradientColor=none;shape=stencil(lZXLcoMwDEW/xlvGWDzidZr8R6YhhSmFDCEt+ftCbbAkB+Lu/LgyR/IVFrC/ladrIZS89V37WfxU574U8CaUqpqy6Kp+HAk4CNhf2q746Np7czbz62lSTqOv9ns6YTBxOo3SeIpS8mFW5N/saMR11SBxEqlkXft+78zJsdmMI62tOsZyOSgyfdipsrtAd2H5drpOJgmWzra4JIXSO0qFsOcVKSkaqgNQyVO4scZ5RgCZnBPqXSRjSukYONRMueQBXAAOY6OETv+84B6kno9bIBVF1LnLm175AL774KX9XniVGTtzNVzJ38so88puneRSSr2UxihbqK20nCqsszw9hwWvuzCImkV5wmkpKlKE2QQFhPkEBdiVhEPyhoPFWesdB5uUfstxfcDlIwx01+z6EwqKFUF/rgCf/jtgHLj//aWqa/Nc4H3+PoxL5m2Bwy8=);strokeColor=none;spacingTop=-3;spacingBottom=-3;spacingLeft=-3;spacingRight=-3;points=[];labelBackgroundColor=none;rounded=0;html=1;whiteSpace=wrap;container=0;" vertex="1" parent="1">
          <mxGeometry x="139" y="341" width="80" height="80" as="geometry" />
        </mxCell>
        <mxCell id="GR6ykVju9A3iwefrX5M7-182" style="vsdxID=59;fillColor=#2d5967;gradientColor=none;shape=stencil(pZJbDsIgFERXwy+hQBW/a91Hk1IhIjQUX7sXcmNsNaWx/s1wz32EDGLVoJpeIkqG4N1J3nQbFGJ7RKm2SnodokKsRqzqnJdH7y62Bd83iUzq7K5pwh36SOqg5AGuIOAPgBptR+iruArOoCvB7PosOv0BjkUxpTdYlPOjdxyXf/GCY7qd57/u+ZVfuGeZj+Idl04bA2kb1z/jFZ8gmqx+Ag==);strokeColor=none;spacingTop=-3;spacingBottom=-3;spacingLeft=-3;spacingRight=-3;points=[];labelBackgroundColor=none;rounded=0;html=1;whiteSpace=wrap;container=0;" vertex="1" parent="1">
          <mxGeometry x="150" y="392" width="58" height="17" as="geometry" />
        </mxCell>
        <mxCell id="GR6ykVju9A3iwefrX5M7-183" style="vsdxID=60;fillColor=#2d5967;gradientColor=none;shape=stencil(jVLRDoMgDPwaXg2UOeezc/9hJk4ypwZ107+fpCRClxnf2nLH9eCYzIa66BUDPoyme6qPLseaySsD0G2tjB7XismcyazqjHqYbmpL7PvCIm316t72hhl5MbcU4Au2gmN/Q+x9MggWeJwk0Vk4gggZfAYyWGAjgcNIinGDUxql6Z7yxnADgEheQmV/OzfioW5MZHfNWoUkFCVWiVF/JRkijtokJv2ng9+t6Iv/s0l+tdHt4QSsxRadSjcNJs8/p1FbRxhTmX8B);strokeColor=none;spacingTop=-3;spacingBottom=-3;spacingLeft=-3;spacingRight=-3;points=[];labelBackgroundColor=none;rounded=0;html=1;whiteSpace=wrap;container=0;" vertex="1" parent="1">
          <mxGeometry x="196" y="399" width="4" height="4" as="geometry" />
        </mxCell>
        <mxCell id="GR6ykVju9A3iwefrX5M7-184" style="vsdxID=61;fillColor=#2d5967;gradientColor=none;shape=stencil(pZLbDsIgEES/Zl8JZW3E51r/o0mpEBEa2nr5e0Fi2qrpRd92Z8+QCRnArJFFLYDRpnX2JK6qbCXgHhhTRgqnWj8B5oBZZZ04OtuZMu51Ecgwne0lvHCLvh0nnAcXo/eo0Od2iLBWZgDT38CETqCv4yJ4VdoZePwPHEmyGcFBSSdyp2SL/xl65avhM9Jqw0ykBQY/9NWplNaxecP7e9W8FGuK+QM=);strokeColor=none;spacingTop=-3;spacingBottom=-3;spacingLeft=-3;spacingRight=-3;points=[];labelBackgroundColor=none;rounded=0;html=1;whiteSpace=wrap;container=0;" vertex="1" parent="1">
          <mxGeometry x="150" y="352" width="17" height="17" as="geometry" />
        </mxCell>
        <mxCell id="GR6ykVju9A3iwefrX5M7-185" style="vsdxID=62;fillColor=#2d5967;gradientColor=none;shape=stencil(pZJJDoMwDEVP422UxGXYU3oPJEKJmhIUoMPtm8iqCnSE7vzj920r+oBZVxetAsm73tmDOuuyrwG3IKVuauV07yvAHDCrrFN7Z4emJN0WgQzV0Z7ChAv5BOfBI/mVNKkdoUY3I3QleN/wEp2vXwSvRac/kG6YTCZwikxEH2bHLI3/M4iIJfje8HzSYsOXk34w+OIRmkobQ5kb9+ch808UUMxv);strokeColor=none;spacingTop=-3;spacingBottom=-3;spacingLeft=-3;spacingRight=-3;points=[];labelBackgroundColor=none;rounded=0;html=1;whiteSpace=wrap;container=0;" vertex="1" parent="1">
          <mxGeometry x="170" y="352" width="17" height="17" as="geometry" />
        </mxCell>
        <mxCell id="GR6ykVju9A3iwefrX5M7-186" style="vsdxID=63;fillColor=#2d5967;gradientColor=none;shape=stencil(pZLbDsIgEES/Zl8JZW3E51r/o0mpEBEa2nr5e0Fi2qrpRd92Z8+QCRnArJFFLYDRpnX2JK6qbCXgHhhTRgqnWj8B5oBZZZ04OtuZMu51Ecgwne0lvHCLvh0nnAcXo/eo0Od2iLBWZgDT38CETqCv4yJ4VdoZePwPHEmyGcFBSSdyp2SL/xl65avhM9Jqw0ykBQY/9NWplNaxecP7e9W8FGuK+QM=);strokeColor=none;spacingTop=-3;spacingBottom=-3;spacingLeft=-3;spacingRight=-3;points=[];labelBackgroundColor=none;rounded=0;html=1;whiteSpace=wrap;container=0;" vertex="1" parent="1">
          <mxGeometry x="150" y="372" width="17" height="17" as="geometry" />
        </mxCell>
        <mxCell id="GR6ykVju9A3iwefrX5M7-187" style="vsdxID=64;fillColor=#2d5967;gradientColor=none;shape=stencil(pZJJDoMwDEVP422UxGXYU3oPJEKJmhIUoMPtm8iqCnSE7vzj920r+oBZVxetAsm73tmDOuuyrwG3IKVuauV07yvAHDCrrFN7Z4emJN0WgQzV0Z7ChAv5BOfBI/mVNKkdoUY3I3QleN/wEp2vXwSvRac/kG6YTCZwikxEH2bHLI3/M4iIJfje8HzSYsOXk34w+OIRmkobQ5kb9+ch808UUMxv);strokeColor=none;spacingTop=-3;spacingBottom=-3;spacingLeft=-3;spacingRight=-3;points=[];labelBackgroundColor=none;rounded=0;html=1;whiteSpace=wrap;container=0;" vertex="1" parent="1">
          <mxGeometry x="170" y="372" width="17" height="17" as="geometry" />
        </mxCell>
        <mxCell id="GR6ykVju9A3iwefrX5M7-188" style="vsdxID=65;fillColor=#2d5967;gradientColor=none;shape=stencil(pZJJDoMwDEVP422UxGXYU3oPJEKJmhIUoMPtm8iqCnSE7vzj920r+oBZVxetAsm73tmDOuuyrwG3IKVuauV07yvAHDCrrFN7Z4emJN0WgQzV0Z7ChAv5BOfBI/mVNKkdoUY3I3QleN/wEp2vXwSvRac/kG6YTCZwikxEH2bHLI3/M4iIJfje8HzSYsOXk34w+OIRmkobQ5kb9+ch808UUMxv);strokeColor=none;spacingTop=-3;spacingBottom=-3;spacingLeft=-3;spacingRight=-3;points=[];labelBackgroundColor=none;rounded=0;html=1;whiteSpace=wrap;container=0;" vertex="1" parent="1">
          <mxGeometry x="190" y="352" width="17" height="17" as="geometry" />
        </mxCell>
        <mxCell id="GR6ykVju9A3iwefrX5M7-189" style="vsdxID=66;fillColor=#2d5967;gradientColor=none;shape=stencil(pZJJDoMwDEVP422UxGXYU3oPJEKJmhIUoMPtm8iqCnSE7vzj920r+oBZVxetAsm73tmDOuuyrwG3IKVuauV07yvAHDCrrFN7Z4emJN0WgQzV0Z7ChAv5BOfBI/mVNKkdoUY3I3QleN/wEp2vXwSvRac/kG6YTCZwikxEH2bHLI3/M4iIJfje8HzSYsOXk34w+OIRmkobQ5kb9+ch808UUMxv);strokeColor=none;spacingTop=-3;spacingBottom=-3;spacingLeft=-3;spacingRight=-3;points=[];labelBackgroundColor=none;rounded=0;html=1;whiteSpace=wrap;container=0;" vertex="1" parent="1">
          <mxGeometry x="190" y="372" width="17" height="17" as="geometry" />
        </mxCell>
        <mxCell id="GR6ykVju9A3iwefrX5M7-205" value="&lt;div&gt;3 Managed Instances&lt;/div&gt;" style="verticalAlign=middle;align=center;vsdxID=68;fillColor=none;gradientColor=none;shape=stencil(nZBLDoAgDERP0z3SIyjew0SURgSD+Lu9kMZoXLhwN9O+tukAlrNpJg1SzDH4QW/URgNYgZTkjA4UkwJUgGXng+6DX1zLfmoymdXo17xh5zmRJ6Q42BWCfc2oJfdAr+Yv+AP9Cb7OJ3H/2JG1HNGz/84klThPVCc=);strokeColor=none;spacingTop=-3;spacingBottom=-3;spacingLeft=-3;spacingRight=-3;points=[];labelBackgroundColor=none;rounded=0;html=1;whiteSpace=wrap;container=0;" vertex="1" parent="1">
          <mxGeometry x="106" y="438" width="129" height="41" as="geometry" />
        </mxCell>
        <mxCell id="GR6ykVju9A3iwefrX5M7-193" style="vsdxID=55;fillColor=#FFFFFF;gradientColor=none;shape=stencil(lZPRDoIwDEW/Zq9LWUHCs+J/EAVZRCATFP/eYYdsAzW+td2922mzMtxey6zNmYBrp5pzfpfHrmS4Y0LIusyV7HTEMGW4LRqVn1TT10fK22xUjtGluY03DOSLOEajScCDCknC482rsif9oVdkCEggeIjGEfgWGASVwChMmsQchVGgqzBpEvLQfrWStUUJDuKb+QMhuHgz8ERnteDyTnDWVBzcVTiNvnFnCN/o9Cyi2CUEFy8Ab3xWB+hLfOJVxFnuI3+AnA1L6kEsG/HJB1zOxkNfBf39Hf/V62D++4WsKlod+9zfFV2iPcP0CQ==);strokeColor=none;spacingTop=-3;spacingBottom=-3;spacingLeft=-3;spacingRight=-3;points=[];labelBackgroundColor=none;rounded=0;html=1;whiteSpace=wrap;container=0;" vertex="1" parent="1">
          <mxGeometry x="128" y="350" width="82" height="82" as="geometry" />
        </mxCell>
        <mxCell id="GR6ykVju9A3iwefrX5M7-194" style="vsdxID=56;fillColor=#FFFFFF;gradientColor=none;shape=stencil(lZXRdoIwDIafprc9aUMpvXb6Hp6JgzMmHsSNvf1gLbQNCHpX4h/88iehDHe34njNmYRb29Sf+U95aguGb0zK8lLkTdn2J4Z7hrtz3eQfTX2/nOzz9Tgoh9NX/T28obN5BjmqIUvCr41Ijtl/4GD17/fGJgiXoXhiXIYgKdBJJ9IcR5ELJVy6SIdzkQulPMHwz6vyEsIGCRN+JlZpgxRfgFEEN6jJV5ClhDfwCqlqEbgvR8S8VE95e5c0wdU8lTFu77cmtIprEdMGIs+v9GPYIGG5GZQ1SBCzHstZPXI2LDhzCZdnkIzB5sy+qt/aCXihxbBuWaZiyyD2C6hZdAghdmp9YSAi21wWYHTyREInb+J3EQHANro5Sh41R8U7TeQLGy2Ih56BQgXbPJWCVPPcenj9c9thDNcp/U5O3Ry5Um5EjErsXPjorLu5Nrr9wV8E57Kq7D0S/k4vjj5kLx3c/wE=);strokeColor=none;spacingTop=-3;spacingBottom=-3;spacingLeft=-3;spacingRight=-3;points=[];labelBackgroundColor=none;rounded=0;html=1;whiteSpace=wrap;container=0;" vertex="1" parent="1">
          <mxGeometry x="127" y="349" width="84" height="84" as="geometry" />
        </mxCell>
        <mxCell id="GR6ykVju9A3iwefrX5M7-196" style="vsdxID=58;fillColor=#2d5967;gradientColor=none;shape=stencil(lZXLcoMwDEW/xlvGWDzidZr8R6YhhSmFDCEt+ftCbbAkB+Lu/LgyR/IVFrC/ladrIZS89V37WfxU574U8CaUqpqy6Kp+HAk4CNhf2q746Np7czbz62lSTqOv9ns6YTBxOo3SeIpS8mFW5N/saMR11SBxEqlkXft+78zJsdmMI62tOsZyOSgyfdipsrtAd2H5drpOJgmWzra4JIXSO0qFsOcVKSkaqgNQyVO4scZ5RgCZnBPqXSRjSukYONRMueQBXAAOY6OETv+84B6kno9bIBVF1LnLm175AL774KX9XniVGTtzNVzJ38so88puneRSSr2UxihbqK20nCqsszw9hwWvuzCImkV5wmkpKlKE2QQFhPkEBdiVhEPyhoPFWesdB5uUfstxfcDlIwx01+z6EwqKFUF/rgCf/jtgHLj//aWqa/Nc4H3+PoxL5m2Bwy8=);strokeColor=none;spacingTop=-3;spacingBottom=-3;spacingLeft=-3;spacingRight=-3;points=[];labelBackgroundColor=none;rounded=0;html=1;whiteSpace=wrap;container=0;" vertex="1" parent="1">
          <mxGeometry x="129" y="351" width="80" height="80" as="geometry" />
        </mxCell>
        <mxCell id="GR6ykVju9A3iwefrX5M7-197" style="vsdxID=59;fillColor=#2d5967;gradientColor=none;shape=stencil(pZJbDsIgFERXwy+hQBW/a91Hk1IhIjQUX7sXcmNsNaWx/s1wz32EDGLVoJpeIkqG4N1J3nQbFGJ7RKm2SnodokKsRqzqnJdH7y62Bd83iUzq7K5pwh36SOqg5AGuIOAPgBptR+iruArOoCvB7PosOv0BjkUxpTdYlPOjdxyXf/GCY7qd57/u+ZVfuGeZj+Idl04bA2kb1z/jFZ8gmqx+Ag==);strokeColor=none;spacingTop=-3;spacingBottom=-3;spacingLeft=-3;spacingRight=-3;points=[];labelBackgroundColor=none;rounded=0;html=1;whiteSpace=wrap;container=0;" vertex="1" parent="1">
          <mxGeometry x="140" y="402" width="58" height="17" as="geometry" />
        </mxCell>
        <mxCell id="GR6ykVju9A3iwefrX5M7-198" style="vsdxID=60;fillColor=#2d5967;gradientColor=none;shape=stencil(jVLRDoMgDPwaXg2UOeezc/9hJk4ypwZ107+fpCRClxnf2nLH9eCYzIa66BUDPoyme6qPLseaySsD0G2tjB7XismcyazqjHqYbmpL7PvCIm316t72hhl5MbcU4Au2gmN/Q+x9MggWeJwk0Vk4gggZfAYyWGAjgcNIinGDUxql6Z7yxnADgEheQmV/OzfioW5MZHfNWoUkFCVWiVF/JRkijtokJv2ng9+t6Iv/s0l+tdHt4QSsxRadSjcNJs8/p1FbRxhTmX8B);strokeColor=none;spacingTop=-3;spacingBottom=-3;spacingLeft=-3;spacingRight=-3;points=[];labelBackgroundColor=none;rounded=0;html=1;whiteSpace=wrap;container=0;" vertex="1" parent="1">
          <mxGeometry x="186" y="409" width="4" height="4" as="geometry" />
        </mxCell>
        <mxCell id="GR6ykVju9A3iwefrX5M7-199" style="vsdxID=61;fillColor=#2d5967;gradientColor=none;shape=stencil(pZLbDsIgEES/Zl8JZW3E51r/o0mpEBEa2nr5e0Fi2qrpRd92Z8+QCRnArJFFLYDRpnX2JK6qbCXgHhhTRgqnWj8B5oBZZZ04OtuZMu51Ecgwne0lvHCLvh0nnAcXo/eo0Od2iLBWZgDT38CETqCv4yJ4VdoZePwPHEmyGcFBSSdyp2SL/xl65avhM9Jqw0ykBQY/9NWplNaxecP7e9W8FGuK+QM=);strokeColor=none;spacingTop=-3;spacingBottom=-3;spacingLeft=-3;spacingRight=-3;points=[];labelBackgroundColor=none;rounded=0;html=1;whiteSpace=wrap;container=0;" vertex="1" parent="1">
          <mxGeometry x="140" y="362" width="17" height="17" as="geometry" />
        </mxCell>
        <mxCell id="GR6ykVju9A3iwefrX5M7-200" style="vsdxID=62;fillColor=#2d5967;gradientColor=none;shape=stencil(pZJJDoMwDEVP422UxGXYU3oPJEKJmhIUoMPtm8iqCnSE7vzj920r+oBZVxetAsm73tmDOuuyrwG3IKVuauV07yvAHDCrrFN7Z4emJN0WgQzV0Z7ChAv5BOfBI/mVNKkdoUY3I3QleN/wEp2vXwSvRac/kG6YTCZwikxEH2bHLI3/M4iIJfje8HzSYsOXk34w+OIRmkobQ5kb9+ch808UUMxv);strokeColor=none;spacingTop=-3;spacingBottom=-3;spacingLeft=-3;spacingRight=-3;points=[];labelBackgroundColor=none;rounded=0;html=1;whiteSpace=wrap;container=0;" vertex="1" parent="1">
          <mxGeometry x="160" y="362" width="17" height="17" as="geometry" />
        </mxCell>
        <mxCell id="GR6ykVju9A3iwefrX5M7-201" style="vsdxID=63;fillColor=#2d5967;gradientColor=none;shape=stencil(pZLbDsIgEES/Zl8JZW3E51r/o0mpEBEa2nr5e0Fi2qrpRd92Z8+QCRnArJFFLYDRpnX2JK6qbCXgHhhTRgqnWj8B5oBZZZ04OtuZMu51Ecgwne0lvHCLvh0nnAcXo/eo0Od2iLBWZgDT38CETqCv4yJ4VdoZePwPHEmyGcFBSSdyp2SL/xl65avhM9Jqw0ykBQY/9NWplNaxecP7e9W8FGuK+QM=);strokeColor=none;spacingTop=-3;spacingBottom=-3;spacingLeft=-3;spacingRight=-3;points=[];labelBackgroundColor=none;rounded=0;html=1;whiteSpace=wrap;container=0;" vertex="1" parent="1">
          <mxGeometry x="140" y="382" width="17" height="17" as="geometry" />
        </mxCell>
        <mxCell id="GR6ykVju9A3iwefrX5M7-202" style="vsdxID=64;fillColor=#2d5967;gradientColor=none;shape=stencil(pZJJDoMwDEVP422UxGXYU3oPJEKJmhIUoMPtm8iqCnSE7vzj920r+oBZVxetAsm73tmDOuuyrwG3IKVuauV07yvAHDCrrFN7Z4emJN0WgQzV0Z7ChAv5BOfBI/mVNKkdoUY3I3QleN/wEp2vXwSvRac/kG6YTCZwikxEH2bHLI3/M4iIJfje8HzSYsOXk34w+OIRmkobQ5kb9+ch808UUMxv);strokeColor=none;spacingTop=-3;spacingBottom=-3;spacingLeft=-3;spacingRight=-3;points=[];labelBackgroundColor=none;rounded=0;html=1;whiteSpace=wrap;container=0;" vertex="1" parent="1">
          <mxGeometry x="160" y="382" width="17" height="17" as="geometry" />
        </mxCell>
        <mxCell id="GR6ykVju9A3iwefrX5M7-203" style="vsdxID=65;fillColor=#2d5967;gradientColor=none;shape=stencil(pZJJDoMwDEVP422UxGXYU3oPJEKJmhIUoMPtm8iqCnSE7vzj920r+oBZVxetAsm73tmDOuuyrwG3IKVuauV07yvAHDCrrFN7Z4emJN0WgQzV0Z7ChAv5BOfBI/mVNKkdoUY3I3QleN/wEp2vXwSvRac/kG6YTCZwikxEH2bHLI3/M4iIJfje8HzSYsOXk34w+OIRmkobQ5kb9+ch808UUMxv);strokeColor=none;spacingTop=-3;spacingBottom=-3;spacingLeft=-3;spacingRight=-3;points=[];labelBackgroundColor=none;rounded=0;html=1;whiteSpace=wrap;container=0;" vertex="1" parent="1">
          <mxGeometry x="180" y="362" width="17" height="17" as="geometry" />
        </mxCell>
        <mxCell id="GR6ykVju9A3iwefrX5M7-204" style="vsdxID=66;fillColor=#2d5967;gradientColor=none;shape=stencil(pZJJDoMwDEVP422UxGXYU3oPJEKJmhIUoMPtm8iqCnSE7vzj920r+oBZVxetAsm73tmDOuuyrwG3IKVuauV07yvAHDCrrFN7Z4emJN0WgQzV0Z7ChAv5BOfBI/mVNKkdoUY3I3QleN/wEp2vXwSvRac/kG6YTCZwikxEH2bHLI3/M4iIJfje8HzSYsOXk34w+OIRmkobQ5kb9+ch808UUMxv);strokeColor=none;spacingTop=-3;spacingBottom=-3;spacingLeft=-3;spacingRight=-3;points=[];labelBackgroundColor=none;rounded=0;html=1;whiteSpace=wrap;container=0;" vertex="1" parent="1">
          <mxGeometry x="180" y="382" width="17" height="17" as="geometry" />
        </mxCell>
        <mxCell id="GR6ykVju9A3iwefrX5M7-413" style="vsdxID=55;fillColor=#FFFFFF;gradientColor=none;shape=stencil(lZPRDoIwDEW/Zq9LWUHCs+J/EAVZRCATFP/eYYdsAzW+td2922mzMtxey6zNmYBrp5pzfpfHrmS4Y0LIusyV7HTEMGW4LRqVn1TT10fK22xUjtGluY03DOSLOEajScCDCknC482rsif9oVdkCEggeIjGEfgWGASVwChMmsQchVGgqzBpEvLQfrWStUUJDuKb+QMhuHgz8ERnteDyTnDWVBzcVTiNvnFnCN/o9Cyi2CUEFy8Ab3xWB+hLfOJVxFnuI3+AnA1L6kEsG/HJB1zOxkNfBf39Hf/V62D++4WsKlod+9zfFV2iPcP0CQ==);strokeColor=none;spacingTop=-3;spacingBottom=-3;spacingLeft=-3;spacingRight=-3;points=[];labelBackgroundColor=none;rounded=0;html=1;whiteSpace=wrap;container=0;" vertex="1" parent="1">
          <mxGeometry x="138" y="581" width="82" height="82" as="geometry" />
        </mxCell>
        <mxCell id="GR6ykVju9A3iwefrX5M7-414" style="vsdxID=56;fillColor=#FFFFFF;gradientColor=none;shape=stencil(lZXRdoIwDIafprc9aUMpvXb6Hp6JgzMmHsSNvf1gLbQNCHpX4h/88iehDHe34njNmYRb29Sf+U95aguGb0zK8lLkTdn2J4Z7hrtz3eQfTX2/nOzz9Tgoh9NX/T28obN5BjmqIUvCr41Ijtl/4GD17/fGJgiXoXhiXIYgKdBJJ9IcR5ELJVy6SIdzkQulPMHwz6vyEsIGCRN+JlZpgxRfgFEEN6jJV5ClhDfwCqlqEbgvR8S8VE95e5c0wdU8lTFu77cmtIprEdMGIs+v9GPYIGG5GZQ1SBCzHstZPXI2LDhzCZdnkIzB5sy+qt/aCXihxbBuWaZiyyD2C6hZdAghdmp9YSAi21wWYHTyREInb+J3EQHANro5Sh41R8U7TeQLGy2Ih56BQgXbPJWCVPPcenj9c9thDNcp/U5O3Ry5Um5EjErsXPjorLu5Nrr9wV8E57Kq7D0S/k4vjj5kLx3c/wE=);strokeColor=none;spacingTop=-3;spacingBottom=-3;spacingLeft=-3;spacingRight=-3;points=[];labelBackgroundColor=none;rounded=0;html=1;whiteSpace=wrap;container=0;" vertex="1" parent="1">
          <mxGeometry x="137" y="580" width="84" height="84" as="geometry" />
        </mxCell>
        <mxCell id="GR6ykVju9A3iwefrX5M7-416" style="vsdxID=58;fillColor=#2d5967;gradientColor=none;shape=stencil(lZXLcoMwDEW/xlvGWDzidZr8R6YhhSmFDCEt+ftCbbAkB+Lu/LgyR/IVFrC/ladrIZS89V37WfxU574U8CaUqpqy6Kp+HAk4CNhf2q746Np7czbz62lSTqOv9ns6YTBxOo3SeIpS8mFW5N/saMR11SBxEqlkXft+78zJsdmMI62tOsZyOSgyfdipsrtAd2H5drpOJgmWzra4JIXSO0qFsOcVKSkaqgNQyVO4scZ5RgCZnBPqXSRjSukYONRMueQBXAAOY6OETv+84B6kno9bIBVF1LnLm175AL774KX9XniVGTtzNVzJ38so88puneRSSr2UxihbqK20nCqsszw9hwWvuzCImkV5wmkpKlKE2QQFhPkEBdiVhEPyhoPFWesdB5uUfstxfcDlIwx01+z6EwqKFUF/rgCf/jtgHLj//aWqa/Nc4H3+PoxL5m2Bwy8=);strokeColor=none;spacingTop=-3;spacingBottom=-3;spacingLeft=-3;spacingRight=-3;points=[];labelBackgroundColor=none;rounded=0;html=1;whiteSpace=wrap;container=0;" vertex="1" parent="1">
          <mxGeometry x="139" y="582" width="80" height="80" as="geometry" />
        </mxCell>
        <mxCell id="GR6ykVju9A3iwefrX5M7-417" style="vsdxID=59;fillColor=#2d5967;gradientColor=none;shape=stencil(pZJbDsIgFERXwy+hQBW/a91Hk1IhIjQUX7sXcmNsNaWx/s1wz32EDGLVoJpeIkqG4N1J3nQbFGJ7RKm2SnodokKsRqzqnJdH7y62Bd83iUzq7K5pwh36SOqg5AGuIOAPgBptR+iruArOoCvB7PosOv0BjkUxpTdYlPOjdxyXf/GCY7qd57/u+ZVfuGeZj+Idl04bA2kb1z/jFZ8gmqx+Ag==);strokeColor=none;spacingTop=-3;spacingBottom=-3;spacingLeft=-3;spacingRight=-3;points=[];labelBackgroundColor=none;rounded=0;html=1;whiteSpace=wrap;container=0;" vertex="1" parent="1">
          <mxGeometry x="150" y="633" width="58" height="17" as="geometry" />
        </mxCell>
        <mxCell id="GR6ykVju9A3iwefrX5M7-418" style="vsdxID=60;fillColor=#2d5967;gradientColor=none;shape=stencil(jVLRDoMgDPwaXg2UOeezc/9hJk4ypwZ107+fpCRClxnf2nLH9eCYzIa66BUDPoyme6qPLseaySsD0G2tjB7XismcyazqjHqYbmpL7PvCIm316t72hhl5MbcU4Au2gmN/Q+x9MggWeJwk0Vk4gggZfAYyWGAjgcNIinGDUxql6Z7yxnADgEheQmV/OzfioW5MZHfNWoUkFCVWiVF/JRkijtokJv2ng9+t6Iv/s0l+tdHt4QSsxRadSjcNJs8/p1FbRxhTmX8B);strokeColor=none;spacingTop=-3;spacingBottom=-3;spacingLeft=-3;spacingRight=-3;points=[];labelBackgroundColor=none;rounded=0;html=1;whiteSpace=wrap;container=0;" vertex="1" parent="1">
          <mxGeometry x="196" y="640" width="4" height="4" as="geometry" />
        </mxCell>
        <mxCell id="GR6ykVju9A3iwefrX5M7-419" style="vsdxID=61;fillColor=#2d5967;gradientColor=none;shape=stencil(pZLbDsIgEES/Zl8JZW3E51r/o0mpEBEa2nr5e0Fi2qrpRd92Z8+QCRnArJFFLYDRpnX2JK6qbCXgHhhTRgqnWj8B5oBZZZ04OtuZMu51Ecgwne0lvHCLvh0nnAcXo/eo0Od2iLBWZgDT38CETqCv4yJ4VdoZePwPHEmyGcFBSSdyp2SL/xl65avhM9Jqw0ykBQY/9NWplNaxecP7e9W8FGuK+QM=);strokeColor=none;spacingTop=-3;spacingBottom=-3;spacingLeft=-3;spacingRight=-3;points=[];labelBackgroundColor=none;rounded=0;html=1;whiteSpace=wrap;container=0;" vertex="1" parent="1">
          <mxGeometry x="150" y="593" width="17" height="17" as="geometry" />
        </mxCell>
        <mxCell id="GR6ykVju9A3iwefrX5M7-420" style="vsdxID=62;fillColor=#2d5967;gradientColor=none;shape=stencil(pZJJDoMwDEVP422UxGXYU3oPJEKJmhIUoMPtm8iqCnSE7vzj920r+oBZVxetAsm73tmDOuuyrwG3IKVuauV07yvAHDCrrFN7Z4emJN0WgQzV0Z7ChAv5BOfBI/mVNKkdoUY3I3QleN/wEp2vXwSvRac/kG6YTCZwikxEH2bHLI3/M4iIJfje8HzSYsOXk34w+OIRmkobQ5kb9+ch808UUMxv);strokeColor=none;spacingTop=-3;spacingBottom=-3;spacingLeft=-3;spacingRight=-3;points=[];labelBackgroundColor=none;rounded=0;html=1;whiteSpace=wrap;container=0;" vertex="1" parent="1">
          <mxGeometry x="170" y="593" width="17" height="17" as="geometry" />
        </mxCell>
        <mxCell id="GR6ykVju9A3iwefrX5M7-421" style="vsdxID=63;fillColor=#2d5967;gradientColor=none;shape=stencil(pZLbDsIgEES/Zl8JZW3E51r/o0mpEBEa2nr5e0Fi2qrpRd92Z8+QCRnArJFFLYDRpnX2JK6qbCXgHhhTRgqnWj8B5oBZZZ04OtuZMu51Ecgwne0lvHCLvh0nnAcXo/eo0Od2iLBWZgDT38CETqCv4yJ4VdoZePwPHEmyGcFBSSdyp2SL/xl65avhM9Jqw0ykBQY/9NWplNaxecP7e9W8FGuK+QM=);strokeColor=none;spacingTop=-3;spacingBottom=-3;spacingLeft=-3;spacingRight=-3;points=[];labelBackgroundColor=none;rounded=0;html=1;whiteSpace=wrap;container=0;" vertex="1" parent="1">
          <mxGeometry x="150" y="613" width="17" height="17" as="geometry" />
        </mxCell>
        <mxCell id="GR6ykVju9A3iwefrX5M7-422" style="vsdxID=64;fillColor=#2d5967;gradientColor=none;shape=stencil(pZJJDoMwDEVP422UxGXYU3oPJEKJmhIUoMPtm8iqCnSE7vzj920r+oBZVxetAsm73tmDOuuyrwG3IKVuauV07yvAHDCrrFN7Z4emJN0WgQzV0Z7ChAv5BOfBI/mVNKkdoUY3I3QleN/wEp2vXwSvRac/kG6YTCZwikxEH2bHLI3/M4iIJfje8HzSYsOXk34w+OIRmkobQ5kb9+ch808UUMxv);strokeColor=none;spacingTop=-3;spacingBottom=-3;spacingLeft=-3;spacingRight=-3;points=[];labelBackgroundColor=none;rounded=0;html=1;whiteSpace=wrap;container=0;" vertex="1" parent="1">
          <mxGeometry x="170" y="613" width="17" height="17" as="geometry" />
        </mxCell>
        <mxCell id="GR6ykVju9A3iwefrX5M7-423" style="vsdxID=65;fillColor=#2d5967;gradientColor=none;shape=stencil(pZJJDoMwDEVP422UxGXYU3oPJEKJmhIUoMPtm8iqCnSE7vzj920r+oBZVxetAsm73tmDOuuyrwG3IKVuauV07yvAHDCrrFN7Z4emJN0WgQzV0Z7ChAv5BOfBI/mVNKkdoUY3I3QleN/wEp2vXwSvRac/kG6YTCZwikxEH2bHLI3/M4iIJfje8HzSYsOXk34w+OIRmkobQ5kb9+ch808UUMxv);strokeColor=none;spacingTop=-3;spacingBottom=-3;spacingLeft=-3;spacingRight=-3;points=[];labelBackgroundColor=none;rounded=0;html=1;whiteSpace=wrap;container=0;" vertex="1" parent="1">
          <mxGeometry x="190" y="593" width="17" height="17" as="geometry" />
        </mxCell>
        <mxCell id="GR6ykVju9A3iwefrX5M7-424" style="vsdxID=66;fillColor=#2d5967;gradientColor=none;shape=stencil(pZJJDoMwDEVP422UxGXYU3oPJEKJmhIUoMPtm8iqCnSE7vzj920r+oBZVxetAsm73tmDOuuyrwG3IKVuauV07yvAHDCrrFN7Z4emJN0WgQzV0Z7ChAv5BOfBI/mVNKkdoUY3I3QleN/wEp2vXwSvRac/kG6YTCZwikxEH2bHLI3/M4iIJfje8HzSYsOXk34w+OIRmkobQ5kb9+ch808UUMxv);strokeColor=none;spacingTop=-3;spacingBottom=-3;spacingLeft=-3;spacingRight=-3;points=[];labelBackgroundColor=none;rounded=0;html=1;whiteSpace=wrap;container=0;" vertex="1" parent="1">
          <mxGeometry x="190" y="613" width="17" height="17" as="geometry" />
        </mxCell>
        <mxCell id="GR6ykVju9A3iwefrX5M7-440" value="2 Managed Instances" style="verticalAlign=middle;align=center;vsdxID=68;fillColor=none;gradientColor=none;shape=stencil(nZBLDoAgDERP0z3SIyjew0SURgSD+Lu9kMZoXLhwN9O+tukAlrNpJg1SzDH4QW/URgNYgZTkjA4UkwJUgGXng+6DX1zLfmoymdXo17xh5zmRJ6Q42BWCfc2oJfdAr+Yv+AP9Cb7OJ3H/2JG1HNGz/84klThPVCc=);strokeColor=none;spacingTop=-3;spacingBottom=-3;spacingLeft=-3;spacingRight=-3;points=[];labelBackgroundColor=none;rounded=0;html=1;whiteSpace=wrap;container=0;" vertex="1" parent="1">
          <mxGeometry x="107" y="679" width="129" height="41" as="geometry" />
        </mxCell>
        <mxCell id="GR6ykVju9A3iwefrX5M7-428" style="vsdxID=55;fillColor=#FFFFFF;gradientColor=none;shape=stencil(lZPRDoIwDEW/Zq9LWUHCs+J/EAVZRCATFP/eYYdsAzW+td2922mzMtxey6zNmYBrp5pzfpfHrmS4Y0LIusyV7HTEMGW4LRqVn1TT10fK22xUjtGluY03DOSLOEajScCDCknC482rsif9oVdkCEggeIjGEfgWGASVwChMmsQchVGgqzBpEvLQfrWStUUJDuKb+QMhuHgz8ERnteDyTnDWVBzcVTiNvnFnCN/o9Cyi2CUEFy8Ab3xWB+hLfOJVxFnuI3+AnA1L6kEsG/HJB1zOxkNfBf39Hf/V62D++4WsKlod+9zfFV2iPcP0CQ==);strokeColor=none;spacingTop=-3;spacingBottom=-3;spacingLeft=-3;spacingRight=-3;points=[];labelBackgroundColor=none;rounded=0;html=1;whiteSpace=wrap;container=0;" vertex="1" parent="1">
          <mxGeometry x="128" y="591" width="82" height="82" as="geometry" />
        </mxCell>
        <mxCell id="GR6ykVju9A3iwefrX5M7-429" style="vsdxID=56;fillColor=#FFFFFF;gradientColor=none;shape=stencil(lZXRdoIwDIafprc9aUMpvXb6Hp6JgzMmHsSNvf1gLbQNCHpX4h/88iehDHe34njNmYRb29Sf+U95aguGb0zK8lLkTdn2J4Z7hrtz3eQfTX2/nOzz9Tgoh9NX/T28obN5BjmqIUvCr41Ijtl/4GD17/fGJgiXoXhiXIYgKdBJJ9IcR5ELJVy6SIdzkQulPMHwz6vyEsIGCRN+JlZpgxRfgFEEN6jJV5ClhDfwCqlqEbgvR8S8VE95e5c0wdU8lTFu77cmtIprEdMGIs+v9GPYIGG5GZQ1SBCzHstZPXI2LDhzCZdnkIzB5sy+qt/aCXihxbBuWaZiyyD2C6hZdAghdmp9YSAi21wWYHTyREInb+J3EQHANro5Sh41R8U7TeQLGy2Ih56BQgXbPJWCVPPcenj9c9thDNcp/U5O3Ry5Um5EjErsXPjorLu5Nrr9wV8E57Kq7D0S/k4vjj5kLx3c/wE=);strokeColor=none;spacingTop=-3;spacingBottom=-3;spacingLeft=-3;spacingRight=-3;points=[];labelBackgroundColor=none;rounded=0;html=1;whiteSpace=wrap;container=0;" vertex="1" parent="1">
          <mxGeometry x="127" y="590" width="84" height="84" as="geometry" />
        </mxCell>
        <mxCell id="GR6ykVju9A3iwefrX5M7-431" style="vsdxID=58;fillColor=#2d5967;gradientColor=none;shape=stencil(lZXLcoMwDEW/xlvGWDzidZr8R6YhhSmFDCEt+ftCbbAkB+Lu/LgyR/IVFrC/ladrIZS89V37WfxU574U8CaUqpqy6Kp+HAk4CNhf2q746Np7czbz62lSTqOv9ns6YTBxOo3SeIpS8mFW5N/saMR11SBxEqlkXft+78zJsdmMI62tOsZyOSgyfdipsrtAd2H5drpOJgmWzra4JIXSO0qFsOcVKSkaqgNQyVO4scZ5RgCZnBPqXSRjSukYONRMueQBXAAOY6OETv+84B6kno9bIBVF1LnLm175AL774KX9XniVGTtzNVzJ38so88puneRSSr2UxihbqK20nCqsszw9hwWvuzCImkV5wmkpKlKE2QQFhPkEBdiVhEPyhoPFWesdB5uUfstxfcDlIwx01+z6EwqKFUF/rgCf/jtgHLj//aWqa/Nc4H3+PoxL5m2Bwy8=);strokeColor=none;spacingTop=-3;spacingBottom=-3;spacingLeft=-3;spacingRight=-3;points=[];labelBackgroundColor=none;rounded=0;html=1;whiteSpace=wrap;container=0;" vertex="1" parent="1">
          <mxGeometry x="129" y="592" width="80" height="80" as="geometry" />
        </mxCell>
        <mxCell id="GR6ykVju9A3iwefrX5M7-432" style="vsdxID=59;fillColor=#2d5967;gradientColor=none;shape=stencil(pZJbDsIgFERXwy+hQBW/a91Hk1IhIjQUX7sXcmNsNaWx/s1wz32EDGLVoJpeIkqG4N1J3nQbFGJ7RKm2SnodokKsRqzqnJdH7y62Bd83iUzq7K5pwh36SOqg5AGuIOAPgBptR+iruArOoCvB7PosOv0BjkUxpTdYlPOjdxyXf/GCY7qd57/u+ZVfuGeZj+Idl04bA2kb1z/jFZ8gmqx+Ag==);strokeColor=none;spacingTop=-3;spacingBottom=-3;spacingLeft=-3;spacingRight=-3;points=[];labelBackgroundColor=none;rounded=0;html=1;whiteSpace=wrap;container=0;" vertex="1" parent="1">
          <mxGeometry x="140" y="643" width="58" height="17" as="geometry" />
        </mxCell>
        <mxCell id="GR6ykVju9A3iwefrX5M7-433" style="vsdxID=60;fillColor=#2d5967;gradientColor=none;shape=stencil(jVLRDoMgDPwaXg2UOeezc/9hJk4ypwZ107+fpCRClxnf2nLH9eCYzIa66BUDPoyme6qPLseaySsD0G2tjB7XismcyazqjHqYbmpL7PvCIm316t72hhl5MbcU4Au2gmN/Q+x9MggWeJwk0Vk4gggZfAYyWGAjgcNIinGDUxql6Z7yxnADgEheQmV/OzfioW5MZHfNWoUkFCVWiVF/JRkijtokJv2ng9+t6Iv/s0l+tdHt4QSsxRadSjcNJs8/p1FbRxhTmX8B);strokeColor=none;spacingTop=-3;spacingBottom=-3;spacingLeft=-3;spacingRight=-3;points=[];labelBackgroundColor=none;rounded=0;html=1;whiteSpace=wrap;container=0;" vertex="1" parent="1">
          <mxGeometry x="186" y="650" width="4" height="4" as="geometry" />
        </mxCell>
        <mxCell id="GR6ykVju9A3iwefrX5M7-434" style="vsdxID=61;fillColor=#2d5967;gradientColor=none;shape=stencil(pZLbDsIgEES/Zl8JZW3E51r/o0mpEBEa2nr5e0Fi2qrpRd92Z8+QCRnArJFFLYDRpnX2JK6qbCXgHhhTRgqnWj8B5oBZZZ04OtuZMu51Ecgwne0lvHCLvh0nnAcXo/eo0Od2iLBWZgDT38CETqCv4yJ4VdoZePwPHEmyGcFBSSdyp2SL/xl65avhM9Jqw0ykBQY/9NWplNaxecP7e9W8FGuK+QM=);strokeColor=none;spacingTop=-3;spacingBottom=-3;spacingLeft=-3;spacingRight=-3;points=[];labelBackgroundColor=none;rounded=0;html=1;whiteSpace=wrap;container=0;" vertex="1" parent="1">
          <mxGeometry x="140" y="603" width="17" height="17" as="geometry" />
        </mxCell>
        <mxCell id="GR6ykVju9A3iwefrX5M7-435" style="vsdxID=62;fillColor=#2d5967;gradientColor=none;shape=stencil(pZJJDoMwDEVP422UxGXYU3oPJEKJmhIUoMPtm8iqCnSE7vzj920r+oBZVxetAsm73tmDOuuyrwG3IKVuauV07yvAHDCrrFN7Z4emJN0WgQzV0Z7ChAv5BOfBI/mVNKkdoUY3I3QleN/wEp2vXwSvRac/kG6YTCZwikxEH2bHLI3/M4iIJfje8HzSYsOXk34w+OIRmkobQ5kb9+ch808UUMxv);strokeColor=none;spacingTop=-3;spacingBottom=-3;spacingLeft=-3;spacingRight=-3;points=[];labelBackgroundColor=none;rounded=0;html=1;whiteSpace=wrap;container=0;" vertex="1" parent="1">
          <mxGeometry x="160" y="603" width="17" height="17" as="geometry" />
        </mxCell>
        <mxCell id="GR6ykVju9A3iwefrX5M7-436" style="vsdxID=63;fillColor=#2d5967;gradientColor=none;shape=stencil(pZLbDsIgEES/Zl8JZW3E51r/o0mpEBEa2nr5e0Fi2qrpRd92Z8+QCRnArJFFLYDRpnX2JK6qbCXgHhhTRgqnWj8B5oBZZZ04OtuZMu51Ecgwne0lvHCLvh0nnAcXo/eo0Od2iLBWZgDT38CETqCv4yJ4VdoZePwPHEmyGcFBSSdyp2SL/xl65avhM9Jqw0ykBQY/9NWplNaxecP7e9W8FGuK+QM=);strokeColor=none;spacingTop=-3;spacingBottom=-3;spacingLeft=-3;spacingRight=-3;points=[];labelBackgroundColor=none;rounded=0;html=1;whiteSpace=wrap;container=0;" vertex="1" parent="1">
          <mxGeometry x="140" y="623" width="17" height="17" as="geometry" />
        </mxCell>
        <mxCell id="GR6ykVju9A3iwefrX5M7-437" style="vsdxID=64;fillColor=#2d5967;gradientColor=none;shape=stencil(pZJJDoMwDEVP422UxGXYU3oPJEKJmhIUoMPtm8iqCnSE7vzj920r+oBZVxetAsm73tmDOuuyrwG3IKVuauV07yvAHDCrrFN7Z4emJN0WgQzV0Z7ChAv5BOfBI/mVNKkdoUY3I3QleN/wEp2vXwSvRac/kG6YTCZwikxEH2bHLI3/M4iIJfje8HzSYsOXk34w+OIRmkobQ5kb9+ch808UUMxv);strokeColor=none;spacingTop=-3;spacingBottom=-3;spacingLeft=-3;spacingRight=-3;points=[];labelBackgroundColor=none;rounded=0;html=1;whiteSpace=wrap;container=0;" vertex="1" parent="1">
          <mxGeometry x="160" y="623" width="17" height="17" as="geometry" />
        </mxCell>
        <mxCell id="GR6ykVju9A3iwefrX5M7-438" style="vsdxID=65;fillColor=#2d5967;gradientColor=none;shape=stencil(pZJJDoMwDEVP422UxGXYU3oPJEKJmhIUoMPtm8iqCnSE7vzj920r+oBZVxetAsm73tmDOuuyrwG3IKVuauV07yvAHDCrrFN7Z4emJN0WgQzV0Z7ChAv5BOfBI/mVNKkdoUY3I3QleN/wEp2vXwSvRac/kG6YTCZwikxEH2bHLI3/M4iIJfje8HzSYsOXk34w+OIRmkobQ5kb9+ch808UUMxv);strokeColor=none;spacingTop=-3;spacingBottom=-3;spacingLeft=-3;spacingRight=-3;points=[];labelBackgroundColor=none;rounded=0;html=1;whiteSpace=wrap;container=0;" vertex="1" parent="1">
          <mxGeometry x="180" y="603" width="17" height="17" as="geometry" />
        </mxCell>
        <mxCell id="GR6ykVju9A3iwefrX5M7-439" style="vsdxID=66;fillColor=#2d5967;gradientColor=none;shape=stencil(pZJJDoMwDEVP422UxGXYU3oPJEKJmhIUoMPtm8iqCnSE7vzj920r+oBZVxetAsm73tmDOuuyrwG3IKVuauV07yvAHDCrrFN7Z4emJN0WgQzV0Z7ChAv5BOfBI/mVNKkdoUY3I3QleN/wEp2vXwSvRac/kG6YTCZwikxEH2bHLI3/M4iIJfje8HzSYsOXk34w+OIRmkobQ5kb9+ch808UUMxv);strokeColor=none;spacingTop=-3;spacingBottom=-3;spacingLeft=-3;spacingRight=-3;points=[];labelBackgroundColor=none;rounded=0;html=1;whiteSpace=wrap;container=0;" vertex="1" parent="1">
          <mxGeometry x="180" y="623" width="17" height="17" as="geometry" />
        </mxCell>
        <mxCell id="GR6ykVju9A3iwefrX5M7-255" style="vsdxID=55;fillColor=#FFFFFF;gradientColor=none;shape=stencil(lZPRDoIwDEW/Zq9LWUHCs+J/EAVZRCATFP/eYYdsAzW+td2922mzMtxey6zNmYBrp5pzfpfHrmS4Y0LIusyV7HTEMGW4LRqVn1TT10fK22xUjtGluY03DOSLOEajScCDCknC482rsif9oVdkCEggeIjGEfgWGASVwChMmsQchVGgqzBpEvLQfrWStUUJDuKb+QMhuHgz8ERnteDyTnDWVBzcVTiNvnFnCN/o9Cyi2CUEFy8Ab3xWB+hLfOJVxFnuI3+AnA1L6kEsG/HJB1zOxkNfBf39Hf/V62D++4WsKlod+9zfFV2iPcP0CQ==);strokeColor=none;spacingTop=-3;spacingBottom=-3;spacingLeft=-3;spacingRight=-3;points=[];labelBackgroundColor=none;rounded=0;html=1;whiteSpace=wrap;container=0;" vertex="1" parent="1">
          <mxGeometry x="138" y="809" width="82" height="82" as="geometry" />
        </mxCell>
        <mxCell id="GR6ykVju9A3iwefrX5M7-256" style="vsdxID=56;fillColor=#FFFFFF;gradientColor=none;shape=stencil(lZXRdoIwDIafprc9aUMpvXb6Hp6JgzMmHsSNvf1gLbQNCHpX4h/88iehDHe34njNmYRb29Sf+U95aguGb0zK8lLkTdn2J4Z7hrtz3eQfTX2/nOzz9Tgoh9NX/T28obN5BjmqIUvCr41Ijtl/4GD17/fGJgiXoXhiXIYgKdBJJ9IcR5ELJVy6SIdzkQulPMHwz6vyEsIGCRN+JlZpgxRfgFEEN6jJV5ClhDfwCqlqEbgvR8S8VE95e5c0wdU8lTFu77cmtIprEdMGIs+v9GPYIGG5GZQ1SBCzHstZPXI2LDhzCZdnkIzB5sy+qt/aCXihxbBuWaZiyyD2C6hZdAghdmp9YSAi21wWYHTyREInb+J3EQHANro5Sh41R8U7TeQLGy2Ih56BQgXbPJWCVPPcenj9c9thDNcp/U5O3Ry5Um5EjErsXPjorLu5Nrr9wV8E57Kq7D0S/k4vjj5kLx3c/wE=);strokeColor=none;spacingTop=-3;spacingBottom=-3;spacingLeft=-3;spacingRight=-3;points=[];labelBackgroundColor=none;rounded=0;html=1;whiteSpace=wrap;container=0;" vertex="1" parent="1">
          <mxGeometry x="137" y="808" width="84" height="84" as="geometry" />
        </mxCell>
        <mxCell id="GR6ykVju9A3iwefrX5M7-258" style="vsdxID=58;fillColor=#2d5967;gradientColor=none;shape=stencil(lZXLcoMwDEW/xlvGWDzidZr8R6YhhSmFDCEt+ftCbbAkB+Lu/LgyR/IVFrC/ladrIZS89V37WfxU574U8CaUqpqy6Kp+HAk4CNhf2q746Np7czbz62lSTqOv9ns6YTBxOo3SeIpS8mFW5N/saMR11SBxEqlkXft+78zJsdmMI62tOsZyOSgyfdipsrtAd2H5drpOJgmWzra4JIXSO0qFsOcVKSkaqgNQyVO4scZ5RgCZnBPqXSRjSukYONRMueQBXAAOY6OETv+84B6kno9bIBVF1LnLm175AL774KX9XniVGTtzNVzJ38so88puneRSSr2UxihbqK20nCqsszw9hwWvuzCImkV5wmkpKlKE2QQFhPkEBdiVhEPyhoPFWesdB5uUfstxfcDlIwx01+z6EwqKFUF/rgCf/jtgHLj//aWqa/Nc4H3+PoxL5m2Bwy8=);strokeColor=none;spacingTop=-3;spacingBottom=-3;spacingLeft=-3;spacingRight=-3;points=[];labelBackgroundColor=none;rounded=0;html=1;whiteSpace=wrap;container=0;" vertex="1" parent="1">
          <mxGeometry x="139" y="810" width="80" height="80" as="geometry" />
        </mxCell>
        <mxCell id="GR6ykVju9A3iwefrX5M7-259" style="vsdxID=59;fillColor=#2d5967;gradientColor=none;shape=stencil(pZJbDsIgFERXwy+hQBW/a91Hk1IhIjQUX7sXcmNsNaWx/s1wz32EDGLVoJpeIkqG4N1J3nQbFGJ7RKm2SnodokKsRqzqnJdH7y62Bd83iUzq7K5pwh36SOqg5AGuIOAPgBptR+iruArOoCvB7PosOv0BjkUxpTdYlPOjdxyXf/GCY7qd57/u+ZVfuGeZj+Idl04bA2kb1z/jFZ8gmqx+Ag==);strokeColor=none;spacingTop=-3;spacingBottom=-3;spacingLeft=-3;spacingRight=-3;points=[];labelBackgroundColor=none;rounded=0;html=1;whiteSpace=wrap;container=0;" vertex="1" parent="1">
          <mxGeometry x="150" y="861" width="58" height="17" as="geometry" />
        </mxCell>
        <mxCell id="GR6ykVju9A3iwefrX5M7-260" style="vsdxID=60;fillColor=#2d5967;gradientColor=none;shape=stencil(jVLRDoMgDPwaXg2UOeezc/9hJk4ypwZ107+fpCRClxnf2nLH9eCYzIa66BUDPoyme6qPLseaySsD0G2tjB7XismcyazqjHqYbmpL7PvCIm316t72hhl5MbcU4Au2gmN/Q+x9MggWeJwk0Vk4gggZfAYyWGAjgcNIinGDUxql6Z7yxnADgEheQmV/OzfioW5MZHfNWoUkFCVWiVF/JRkijtokJv2ng9+t6Iv/s0l+tdHt4QSsxRadSjcNJs8/p1FbRxhTmX8B);strokeColor=none;spacingTop=-3;spacingBottom=-3;spacingLeft=-3;spacingRight=-3;points=[];labelBackgroundColor=none;rounded=0;html=1;whiteSpace=wrap;container=0;" vertex="1" parent="1">
          <mxGeometry x="196" y="868" width="4" height="4" as="geometry" />
        </mxCell>
        <mxCell id="GR6ykVju9A3iwefrX5M7-261" style="vsdxID=61;fillColor=#2d5967;gradientColor=none;shape=stencil(pZLbDsIgEES/Zl8JZW3E51r/o0mpEBEa2nr5e0Fi2qrpRd92Z8+QCRnArJFFLYDRpnX2JK6qbCXgHhhTRgqnWj8B5oBZZZ04OtuZMu51Ecgwne0lvHCLvh0nnAcXo/eo0Od2iLBWZgDT38CETqCv4yJ4VdoZePwPHEmyGcFBSSdyp2SL/xl65avhM9Jqw0ykBQY/9NWplNaxecP7e9W8FGuK+QM=);strokeColor=none;spacingTop=-3;spacingBottom=-3;spacingLeft=-3;spacingRight=-3;points=[];labelBackgroundColor=none;rounded=0;html=1;whiteSpace=wrap;container=0;" vertex="1" parent="1">
          <mxGeometry x="150" y="821" width="17" height="17" as="geometry" />
        </mxCell>
        <mxCell id="GR6ykVju9A3iwefrX5M7-262" style="vsdxID=62;fillColor=#2d5967;gradientColor=none;shape=stencil(pZJJDoMwDEVP422UxGXYU3oPJEKJmhIUoMPtm8iqCnSE7vzj920r+oBZVxetAsm73tmDOuuyrwG3IKVuauV07yvAHDCrrFN7Z4emJN0WgQzV0Z7ChAv5BOfBI/mVNKkdoUY3I3QleN/wEp2vXwSvRac/kG6YTCZwikxEH2bHLI3/M4iIJfje8HzSYsOXk34w+OIRmkobQ5kb9+ch808UUMxv);strokeColor=none;spacingTop=-3;spacingBottom=-3;spacingLeft=-3;spacingRight=-3;points=[];labelBackgroundColor=none;rounded=0;html=1;whiteSpace=wrap;container=0;" vertex="1" parent="1">
          <mxGeometry x="170" y="821" width="17" height="17" as="geometry" />
        </mxCell>
        <mxCell id="GR6ykVju9A3iwefrX5M7-263" style="vsdxID=63;fillColor=#2d5967;gradientColor=none;shape=stencil(pZLbDsIgEES/Zl8JZW3E51r/o0mpEBEa2nr5e0Fi2qrpRd92Z8+QCRnArJFFLYDRpnX2JK6qbCXgHhhTRgqnWj8B5oBZZZ04OtuZMu51Ecgwne0lvHCLvh0nnAcXo/eo0Od2iLBWZgDT38CETqCv4yJ4VdoZePwPHEmyGcFBSSdyp2SL/xl65avhM9Jqw0ykBQY/9NWplNaxecP7e9W8FGuK+QM=);strokeColor=none;spacingTop=-3;spacingBottom=-3;spacingLeft=-3;spacingRight=-3;points=[];labelBackgroundColor=none;rounded=0;html=1;whiteSpace=wrap;container=0;" vertex="1" parent="1">
          <mxGeometry x="150" y="841" width="17" height="17" as="geometry" />
        </mxCell>
        <mxCell id="GR6ykVju9A3iwefrX5M7-264" style="vsdxID=64;fillColor=#2d5967;gradientColor=none;shape=stencil(pZJJDoMwDEVP422UxGXYU3oPJEKJmhIUoMPtm8iqCnSE7vzj920r+oBZVxetAsm73tmDOuuyrwG3IKVuauV07yvAHDCrrFN7Z4emJN0WgQzV0Z7ChAv5BOfBI/mVNKkdoUY3I3QleN/wEp2vXwSvRac/kG6YTCZwikxEH2bHLI3/M4iIJfje8HzSYsOXk34w+OIRmkobQ5kb9+ch808UUMxv);strokeColor=none;spacingTop=-3;spacingBottom=-3;spacingLeft=-3;spacingRight=-3;points=[];labelBackgroundColor=none;rounded=0;html=1;whiteSpace=wrap;container=0;" vertex="1" parent="1">
          <mxGeometry x="170" y="841" width="17" height="17" as="geometry" />
        </mxCell>
        <mxCell id="GR6ykVju9A3iwefrX5M7-265" style="vsdxID=65;fillColor=#2d5967;gradientColor=none;shape=stencil(pZJJDoMwDEVP422UxGXYU3oPJEKJmhIUoMPtm8iqCnSE7vzj920r+oBZVxetAsm73tmDOuuyrwG3IKVuauV07yvAHDCrrFN7Z4emJN0WgQzV0Z7ChAv5BOfBI/mVNKkdoUY3I3QleN/wEp2vXwSvRac/kG6YTCZwikxEH2bHLI3/M4iIJfje8HzSYsOXk34w+OIRmkobQ5kb9+ch808UUMxv);strokeColor=none;spacingTop=-3;spacingBottom=-3;spacingLeft=-3;spacingRight=-3;points=[];labelBackgroundColor=none;rounded=0;html=1;whiteSpace=wrap;container=0;" vertex="1" parent="1">
          <mxGeometry x="190" y="821" width="17" height="17" as="geometry" />
        </mxCell>
        <mxCell id="GR6ykVju9A3iwefrX5M7-266" style="vsdxID=66;fillColor=#2d5967;gradientColor=none;shape=stencil(pZJJDoMwDEVP422UxGXYU3oPJEKJmhIUoMPtm8iqCnSE7vzj920r+oBZVxetAsm73tmDOuuyrwG3IKVuauV07yvAHDCrrFN7Z4emJN0WgQzV0Z7ChAv5BOfBI/mVNKkdoUY3I3QleN/wEp2vXwSvRac/kG6YTCZwikxEH2bHLI3/M4iIJfje8HzSYsOXk34w+OIRmkobQ5kb9+ch808UUMxv);strokeColor=none;spacingTop=-3;spacingBottom=-3;spacingLeft=-3;spacingRight=-3;points=[];labelBackgroundColor=none;rounded=0;html=1;whiteSpace=wrap;container=0;" vertex="1" parent="1">
          <mxGeometry x="190" y="841" width="17" height="17" as="geometry" />
        </mxCell>
        <mxCell id="GR6ykVju9A3iwefrX5M7-282" value="&lt;div&gt;2 Managed Instances&lt;/div&gt;" style="verticalAlign=middle;align=center;vsdxID=68;fillColor=none;gradientColor=none;shape=stencil(nZBLDoAgDERP0z3SIyjew0SURgSD+Lu9kMZoXLhwN9O+tukAlrNpJg1SzDH4QW/URgNYgZTkjA4UkwJUgGXng+6DX1zLfmoymdXo17xh5zmRJ6Q42BWCfc2oJfdAr+Yv+AP9Cb7OJ3H/2JG1HNGz/84klThPVCc=);strokeColor=none;spacingTop=-3;spacingBottom=-3;spacingLeft=-3;spacingRight=-3;points=[];labelBackgroundColor=none;rounded=0;html=1;whiteSpace=wrap;container=0;" vertex="1" parent="1">
          <mxGeometry x="102" y="907" width="137" height="41" as="geometry" />
        </mxCell>
        <mxCell id="GR6ykVju9A3iwefrX5M7-270" style="vsdxID=55;fillColor=#FFFFFF;gradientColor=none;shape=stencil(lZPRDoIwDEW/Zq9LWUHCs+J/EAVZRCATFP/eYYdsAzW+td2922mzMtxey6zNmYBrp5pzfpfHrmS4Y0LIusyV7HTEMGW4LRqVn1TT10fK22xUjtGluY03DOSLOEajScCDCknC482rsif9oVdkCEggeIjGEfgWGASVwChMmsQchVGgqzBpEvLQfrWStUUJDuKb+QMhuHgz8ERnteDyTnDWVBzcVTiNvnFnCN/o9Cyi2CUEFy8Ab3xWB+hLfOJVxFnuI3+AnA1L6kEsG/HJB1zOxkNfBf39Hf/V62D++4WsKlod+9zfFV2iPcP0CQ==);strokeColor=none;spacingTop=-3;spacingBottom=-3;spacingLeft=-3;spacingRight=-3;points=[];labelBackgroundColor=none;rounded=0;html=1;whiteSpace=wrap;container=0;" vertex="1" parent="1">
          <mxGeometry x="128" y="819" width="82" height="82" as="geometry" />
        </mxCell>
        <mxCell id="GR6ykVju9A3iwefrX5M7-271" style="vsdxID=56;fillColor=#FFFFFF;gradientColor=none;shape=stencil(lZXRdoIwDIafprc9aUMpvXb6Hp6JgzMmHsSNvf1gLbQNCHpX4h/88iehDHe34njNmYRb29Sf+U95aguGb0zK8lLkTdn2J4Z7hrtz3eQfTX2/nOzz9Tgoh9NX/T28obN5BjmqIUvCr41Ijtl/4GD17/fGJgiXoXhiXIYgKdBJJ9IcR5ELJVy6SIdzkQulPMHwz6vyEsIGCRN+JlZpgxRfgFEEN6jJV5ClhDfwCqlqEbgvR8S8VE95e5c0wdU8lTFu77cmtIprEdMGIs+v9GPYIGG5GZQ1SBCzHstZPXI2LDhzCZdnkIzB5sy+qt/aCXihxbBuWaZiyyD2C6hZdAghdmp9YSAi21wWYHTyREInb+J3EQHANro5Sh41R8U7TeQLGy2Ih56BQgXbPJWCVPPcenj9c9thDNcp/U5O3Ry5Um5EjErsXPjorLu5Nrr9wV8E57Kq7D0S/k4vjj5kLx3c/wE=);strokeColor=none;spacingTop=-3;spacingBottom=-3;spacingLeft=-3;spacingRight=-3;points=[];labelBackgroundColor=none;rounded=0;html=1;whiteSpace=wrap;container=0;" vertex="1" parent="1">
          <mxGeometry x="127" y="818" width="84" height="84" as="geometry" />
        </mxCell>
        <mxCell id="GR6ykVju9A3iwefrX5M7-273" style="vsdxID=58;fillColor=#2d5967;gradientColor=none;shape=stencil(lZXLcoMwDEW/xlvGWDzidZr8R6YhhSmFDCEt+ftCbbAkB+Lu/LgyR/IVFrC/ladrIZS89V37WfxU574U8CaUqpqy6Kp+HAk4CNhf2q746Np7czbz62lSTqOv9ns6YTBxOo3SeIpS8mFW5N/saMR11SBxEqlkXft+78zJsdmMI62tOsZyOSgyfdipsrtAd2H5drpOJgmWzra4JIXSO0qFsOcVKSkaqgNQyVO4scZ5RgCZnBPqXSRjSukYONRMueQBXAAOY6OETv+84B6kno9bIBVF1LnLm175AL774KX9XniVGTtzNVzJ38so88puneRSSr2UxihbqK20nCqsszw9hwWvuzCImkV5wmkpKlKE2QQFhPkEBdiVhEPyhoPFWesdB5uUfstxfcDlIwx01+z6EwqKFUF/rgCf/jtgHLj//aWqa/Nc4H3+PoxL5m2Bwy8=);strokeColor=none;spacingTop=-3;spacingBottom=-3;spacingLeft=-3;spacingRight=-3;points=[];labelBackgroundColor=none;rounded=0;html=1;whiteSpace=wrap;container=0;" vertex="1" parent="1">
          <mxGeometry x="129" y="820" width="80" height="80" as="geometry" />
        </mxCell>
        <mxCell id="GR6ykVju9A3iwefrX5M7-274" style="vsdxID=59;fillColor=#2d5967;gradientColor=none;shape=stencil(pZJbDsIgFERXwy+hQBW/a91Hk1IhIjQUX7sXcmNsNaWx/s1wz32EDGLVoJpeIkqG4N1J3nQbFGJ7RKm2SnodokKsRqzqnJdH7y62Bd83iUzq7K5pwh36SOqg5AGuIOAPgBptR+iruArOoCvB7PosOv0BjkUxpTdYlPOjdxyXf/GCY7qd57/u+ZVfuGeZj+Idl04bA2kb1z/jFZ8gmqx+Ag==);strokeColor=none;spacingTop=-3;spacingBottom=-3;spacingLeft=-3;spacingRight=-3;points=[];labelBackgroundColor=none;rounded=0;html=1;whiteSpace=wrap;container=0;" vertex="1" parent="1">
          <mxGeometry x="140" y="871" width="58" height="17" as="geometry" />
        </mxCell>
        <mxCell id="GR6ykVju9A3iwefrX5M7-275" style="vsdxID=60;fillColor=#2d5967;gradientColor=none;shape=stencil(jVLRDoMgDPwaXg2UOeezc/9hJk4ypwZ107+fpCRClxnf2nLH9eCYzIa66BUDPoyme6qPLseaySsD0G2tjB7XismcyazqjHqYbmpL7PvCIm316t72hhl5MbcU4Au2gmN/Q+x9MggWeJwk0Vk4gggZfAYyWGAjgcNIinGDUxql6Z7yxnADgEheQmV/OzfioW5MZHfNWoUkFCVWiVF/JRkijtokJv2ng9+t6Iv/s0l+tdHt4QSsxRadSjcNJs8/p1FbRxhTmX8B);strokeColor=none;spacingTop=-3;spacingBottom=-3;spacingLeft=-3;spacingRight=-3;points=[];labelBackgroundColor=none;rounded=0;html=1;whiteSpace=wrap;container=0;" vertex="1" parent="1">
          <mxGeometry x="186" y="878" width="4" height="4" as="geometry" />
        </mxCell>
        <mxCell id="GR6ykVju9A3iwefrX5M7-276" style="vsdxID=61;fillColor=#2d5967;gradientColor=none;shape=stencil(pZLbDsIgEES/Zl8JZW3E51r/o0mpEBEa2nr5e0Fi2qrpRd92Z8+QCRnArJFFLYDRpnX2JK6qbCXgHhhTRgqnWj8B5oBZZZ04OtuZMu51Ecgwne0lvHCLvh0nnAcXo/eo0Od2iLBWZgDT38CETqCv4yJ4VdoZePwPHEmyGcFBSSdyp2SL/xl65avhM9Jqw0ykBQY/9NWplNaxecP7e9W8FGuK+QM=);strokeColor=none;spacingTop=-3;spacingBottom=-3;spacingLeft=-3;spacingRight=-3;points=[];labelBackgroundColor=none;rounded=0;html=1;whiteSpace=wrap;container=0;" vertex="1" parent="1">
          <mxGeometry x="140" y="831" width="17" height="17" as="geometry" />
        </mxCell>
        <mxCell id="GR6ykVju9A3iwefrX5M7-277" style="vsdxID=62;fillColor=#2d5967;gradientColor=none;shape=stencil(pZJJDoMwDEVP422UxGXYU3oPJEKJmhIUoMPtm8iqCnSE7vzj920r+oBZVxetAsm73tmDOuuyrwG3IKVuauV07yvAHDCrrFN7Z4emJN0WgQzV0Z7ChAv5BOfBI/mVNKkdoUY3I3QleN/wEp2vXwSvRac/kG6YTCZwikxEH2bHLI3/M4iIJfje8HzSYsOXk34w+OIRmkobQ5kb9+ch808UUMxv);strokeColor=none;spacingTop=-3;spacingBottom=-3;spacingLeft=-3;spacingRight=-3;points=[];labelBackgroundColor=none;rounded=0;html=1;whiteSpace=wrap;container=0;" vertex="1" parent="1">
          <mxGeometry x="160" y="831" width="17" height="17" as="geometry" />
        </mxCell>
        <mxCell id="GR6ykVju9A3iwefrX5M7-278" style="vsdxID=63;fillColor=#2d5967;gradientColor=none;shape=stencil(pZLbDsIgEES/Zl8JZW3E51r/o0mpEBEa2nr5e0Fi2qrpRd92Z8+QCRnArJFFLYDRpnX2JK6qbCXgHhhTRgqnWj8B5oBZZZ04OtuZMu51Ecgwne0lvHCLvh0nnAcXo/eo0Od2iLBWZgDT38CETqCv4yJ4VdoZePwPHEmyGcFBSSdyp2SL/xl65avhM9Jqw0ykBQY/9NWplNaxecP7e9W8FGuK+QM=);strokeColor=none;spacingTop=-3;spacingBottom=-3;spacingLeft=-3;spacingRight=-3;points=[];labelBackgroundColor=none;rounded=0;html=1;whiteSpace=wrap;container=0;" vertex="1" parent="1">
          <mxGeometry x="140" y="851" width="17" height="17" as="geometry" />
        </mxCell>
        <mxCell id="GR6ykVju9A3iwefrX5M7-279" style="vsdxID=64;fillColor=#2d5967;gradientColor=none;shape=stencil(pZJJDoMwDEVP422UxGXYU3oPJEKJmhIUoMPtm8iqCnSE7vzj920r+oBZVxetAsm73tmDOuuyrwG3IKVuauV07yvAHDCrrFN7Z4emJN0WgQzV0Z7ChAv5BOfBI/mVNKkdoUY3I3QleN/wEp2vXwSvRac/kG6YTCZwikxEH2bHLI3/M4iIJfje8HzSYsOXk34w+OIRmkobQ5kb9+ch808UUMxv);strokeColor=none;spacingTop=-3;spacingBottom=-3;spacingLeft=-3;spacingRight=-3;points=[];labelBackgroundColor=none;rounded=0;html=1;whiteSpace=wrap;container=0;" vertex="1" parent="1">
          <mxGeometry x="160" y="851" width="17" height="17" as="geometry" />
        </mxCell>
        <mxCell id="GR6ykVju9A3iwefrX5M7-280" style="vsdxID=65;fillColor=#2d5967;gradientColor=none;shape=stencil(pZJJDoMwDEVP422UxGXYU3oPJEKJmhIUoMPtm8iqCnSE7vzj920r+oBZVxetAsm73tmDOuuyrwG3IKVuauV07yvAHDCrrFN7Z4emJN0WgQzV0Z7ChAv5BOfBI/mVNKkdoUY3I3QleN/wEp2vXwSvRac/kG6YTCZwikxEH2bHLI3/M4iIJfje8HzSYsOXk34w+OIRmkobQ5kb9+ch808UUMxv);strokeColor=none;spacingTop=-3;spacingBottom=-3;spacingLeft=-3;spacingRight=-3;points=[];labelBackgroundColor=none;rounded=0;html=1;whiteSpace=wrap;container=0;" vertex="1" parent="1">
          <mxGeometry x="180" y="831" width="17" height="17" as="geometry" />
        </mxCell>
        <mxCell id="GR6ykVju9A3iwefrX5M7-281" style="vsdxID=66;fillColor=#2d5967;gradientColor=none;shape=stencil(pZJJDoMwDEVP422UxGXYU3oPJEKJmhIUoMPtm8iqCnSE7vzj920r+oBZVxetAsm73tmDOuuyrwG3IKVuauV07yvAHDCrrFN7Z4emJN0WgQzV0Z7ChAv5BOfBI/mVNKkdoUY3I3QleN/wEp2vXwSvRac/kG6YTCZwikxEH2bHLI3/M4iIJfje8HzSYsOXk34w+OIRmkobQ5kb9+ch808UUMxv);strokeColor=none;spacingTop=-3;spacingBottom=-3;spacingLeft=-3;spacingRight=-3;points=[];labelBackgroundColor=none;rounded=0;html=1;whiteSpace=wrap;container=0;" vertex="1" parent="1">
          <mxGeometry x="180" y="851" width="17" height="17" as="geometry" />
        </mxCell>
        <mxCell id="GR6ykVju9A3iwefrX5M7-532" value="" style="endArrow=classic;html=1;rounded=0;entryX=0.843;entryY=0.5;entryDx=0;entryDy=0;entryPerimeter=0;strokeWidth=3;" edge="1" parent="1" target="GR6ykVju9A3iwefrX5M7-283">
          <mxGeometry width="50" height="50" relative="1" as="geometry">
            <mxPoint x="370" y="140" as="sourcePoint" />
            <mxPoint x="490" y="320" as="targetPoint" />
          </mxGeometry>
        </mxCell>
        <mxCell id="GR6ykVju9A3iwefrX5M7-533" value="" style="endArrow=classic;html=1;rounded=0;entryX=0.843;entryY=0.5;entryDx=0;entryDy=0;entryPerimeter=0;strokeWidth=3;" edge="1" parent="1">
          <mxGeometry width="50" height="50" relative="1" as="geometry">
            <mxPoint x="630" y="140" as="sourcePoint" />
            <mxPoint x="467" y="140" as="targetPoint" />
          </mxGeometry>
        </mxCell>
        <mxCell id="GR6ykVju9A3iwefrX5M7-534" value="" style="endArrow=classic;html=1;rounded=0;entryX=0.843;entryY=0.5;entryDx=0;entryDy=0;entryPerimeter=0;strokeWidth=3;" edge="1" parent="1">
          <mxGeometry width="50" height="50" relative="1" as="geometry">
            <mxPoint x="370" y="359" as="sourcePoint" />
            <mxPoint x="240" y="359" as="targetPoint" />
          </mxGeometry>
        </mxCell>
        <mxCell id="GR6ykVju9A3iwefrX5M7-535" value="" style="endArrow=classic;html=1;rounded=0;entryX=0.843;entryY=0.5;entryDx=0;entryDy=0;entryPerimeter=0;strokeWidth=3;" edge="1" parent="1">
          <mxGeometry width="50" height="50" relative="1" as="geometry">
            <mxPoint x="630" y="359" as="sourcePoint" />
            <mxPoint x="467" y="359" as="targetPoint" />
          </mxGeometry>
        </mxCell>
        <mxCell id="GR6ykVju9A3iwefrX5M7-536" value="" style="endArrow=classic;html=1;rounded=0;entryX=0.843;entryY=0.5;entryDx=0;entryDy=0;entryPerimeter=0;strokeWidth=3;" edge="1" parent="1">
          <mxGeometry width="50" height="50" relative="1" as="geometry">
            <mxPoint x="369" y="599.5" as="sourcePoint" />
            <mxPoint x="239" y="599.5" as="targetPoint" />
          </mxGeometry>
        </mxCell>
        <mxCell id="GR6ykVju9A3iwefrX5M7-537" value="" style="endArrow=classic;html=1;rounded=0;entryX=0.843;entryY=0.5;entryDx=0;entryDy=0;entryPerimeter=0;strokeWidth=3;" edge="1" parent="1">
          <mxGeometry width="50" height="50" relative="1" as="geometry">
            <mxPoint x="629" y="599.5" as="sourcePoint" />
            <mxPoint x="466" y="599.5" as="targetPoint" />
          </mxGeometry>
        </mxCell>
        <mxCell id="GR6ykVju9A3iwefrX5M7-538" value="" style="endArrow=classic;html=1;rounded=0;entryX=0.843;entryY=0.5;entryDx=0;entryDy=0;entryPerimeter=0;strokeWidth=3;" edge="1" parent="1">
          <mxGeometry width="50" height="50" relative="1" as="geometry">
            <mxPoint x="369" y="839.5" as="sourcePoint" />
            <mxPoint x="239" y="839.5" as="targetPoint" />
          </mxGeometry>
        </mxCell>
        <mxCell id="GR6ykVju9A3iwefrX5M7-539" value="" style="endArrow=classic;html=1;rounded=0;entryX=0.843;entryY=0.5;entryDx=0;entryDy=0;entryPerimeter=0;strokeWidth=3;" edge="1" parent="1">
          <mxGeometry width="50" height="50" relative="1" as="geometry">
            <mxPoint x="629" y="839.5" as="sourcePoint" />
            <mxPoint x="466" y="839.5" as="targetPoint" />
          </mxGeometry>
        </mxCell>
      </root>
    </mxGraphModel>
  </diagram>
</mxfile>
